<?xml version="1.0" encoding="utf-8"?>
<!-- Generator: Adobe Illustrator 26.5.0, SVG Export Plug-In . SVG Version: 6.00 Build 0)  -->
<svg version="1.1" id="Ebene_1" xmlns="http://www.w3.org/2000/svg" xmlns:xlink="http://www.w3.org/1999/xlink" x="0px" y="0px"
	 viewBox="0 0 1497 533.3" style="enable-background:new 0 0 1497 533.3;" xml:space="preserve">
<style type="text/css">
	.st0{fill:#049AD7;}
	.st1{fill:#333333;stroke:#333333;stroke-width:1.0045;stroke-miterlimit:10;}
	.st2{fill:#333333;}
	.st3{fill:#333333;stroke:#333333;stroke-width:5.0223;stroke-miterlimit:10;}
	.st4{fill:#333333;stroke:#333333;stroke-width:3.6868;stroke-miterlimit:10;}
	.st5{fill:#FFFFFF;}
	.st6{fill:#049AD7;stroke:#049AD7;stroke-miterlimit:10;}
</style>
<path id="XMLID_00000011024726787862771770000013397397604362878369_" class="st0" d="M178.2,192.5c3.8-3,8.2-6.8,13.4-11.2
	c1.9-1.6,3.4-3,4.6-4.2c1.2-1.2,2.2-2.6,3-4.2c0.8-1.6,1.6-3.7,2.5-6.1c0.8-2.4,1.9-5.8,3.3-10h-0.4c-1.6,3.7-3.7,6.6-6.2,8.7
	c-2.5,2.1-5.2,4.1-8.1,6.1c-2.9,2-5.9,4.3-8.8,7c-2.9,2.7-5.6,6.4-7.9,11v-0.4c2.1-6.1,3.7-11.2,4.7-15.4c1.1-4.2,2-7.9,2.8-11
	c0.8-3.2,1.9-5.9,3.2-8.2c1.3-2.3,3.3-4.5,6.1-6.6v-0.4c-6.3,1.6-11.4,5.4-15.4,11.2c-4,5.8-6,12.4-6,19.6V203
	C171.4,199,174.4,195.5,178.2,192.5z M194.8,162.5c3.3-3.4,6.2-6.8,8.9-10.3c2.7-3.5,5.2-6.8,7.7-10c2.5-3.1,5.2-6,8.2-8.6l-0.3-0.4
	c-2.1,1.9-4.7,3.3-7.9,4.2c-3.1,0.9-6.5,2.5-10,4.6c-3.5,2.1-6.9,5.4-10.2,10c-3.3,4.6-6.1,11.3-8.4,20.1
	C187.5,169.1,191.5,165.9,194.8,162.5z M155.5,254.1c2.3,3.5,4.9,6.9,7.8,10.3c2.9,3.4,5.8,7.5,8.5,12.4h0.3
	c-0.3-1.9-0.4-3.7-0.4-5.6v-4.9c0-1.9,0.7-5,2-9.3c1.3-4.3,2.7-9.1,4.2-14.4c1.4-5.2,2.7-10.6,3.8-15.9c1.1-5.4,1.4-10.2,0.9-14.4
	h-0.4c-0.7,3-1.9,6-3.7,8.9c-1.8,2.9-3.6,6-5.5,9.1c-1.9,3.1-3.5,6.5-4.9,10.2c-1.4,3.6-2.1,7.5-2.1,11.7c0,1.4,0.3,3.3,0.8,5.8
	c0.6,2.5,0.8,3.9,0.8,4.4h-0.4c-0.9-5.1-2.2-10-3.9-14.7c-1.7-4.7-3.4-9-5.1-12.9c-1.7-4-3.1-7.6-4.3-10.9c-1.1-3.3-1.7-6-1.7-8.1
	c0-2.3,0.1-4.2,0.2-5.6c0.1-1.4,0.2-3.2,0.2-5.2h-0.4c-0.8,1.9-1.7,4.9-2.8,9.1c-1.1,4.2-1.7,7.9-1.7,11.2c0,7,0.7,12.7,2.1,17
	C151.3,246.7,153.2,250.6,155.5,254.1z M219.2,349c1.2,0.1,2.5,0.2,3.9,0.2c1.9,0,3.6-0.1,5.2-0.3c1.6-0.2,3.7-0.6,6.3-1.1
	c2.6-0.5,5.9-1.2,10-2.3c4.1-1,9.5-2.4,16.3-4c-4.4-1.2-8.3-2.3-11.5-3.3c-3.3-1-6.5-3.1-9.8-6.1c-4-3.5-7.9-7.1-11.9-10.8
	c-3.1-2.9-6.3-5.6-9.5-8.4c-0.9-0.8-5.5-4.9-6.8-6.2l-0.4,0.4c0.5,0.8,4.8,9.5,4.8,9.5s0.7,0.9,1,1.4c1.2,2.1,2.3,4.2,3.4,6.3
	c0.4,0.8,0.9,1.7,1.3,2.5c1.4,2.7,3.3,4.9,5.8,6.8c3,2.8,7.9,5.2,14.7,7.3v0.3c-3-0.5-5.5-0.9-7.5-1.2c-2.1-0.3-3.9-0.6-5.6-0.9
	c-1.7-0.2-3.4-0.4-5.1-0.5c-2.1-0.1-4.2-0.3-6.3-0.6c-1.6-0.3-3.3-0.6-4.9-0.7c-1.6-0.2-3.2-0.4-4.9-0.6c-0.8-0.1-1.7-0.2-2.5-0.3
	c-3.2-0.3-6.1-0.9-8.8-1.6c-2.7-0.7-5.3-1.8-7.9-3.3c-2.6-1.5-5.4-3.7-8.4-6.5l-0.4,0.4c1.2,2.1,2.8,4.3,4.7,6.7
	c2,2.3,4.5,4.7,7.4,7c2.9,2.4,6.4,4.4,10.4,6c4,1.7,8.6,2.9,13.7,3.6C215.9,348.6,218.1,348.8,219.2,349z M164.6,239.4h0.4
	c0.2-2.1,0.6-4,1-5.6c0.5-1.6,1.3-3.6,2.6-5.9c1.3-2.3,3.1-5.1,5.4-8.4c2.3-3.3,5.4-7.7,9.3-13.3c2.3-3.5,4.2-7.6,5.5-12.3
	c1.4-4.7,2.3-8,2.8-10.1h-0.3c-0.5,1.2-1,2.2-1.6,3c-0.6,0.8-1.3,1.7-2.2,2.8c-0.9,1.1-2.1,2.3-3.6,3.7c-1.5,1.4-3.5,3.3-6,5.6
	c-4.6,4.2-7.6,8.1-9,11.6c-1.4,3.5-2.5,7.3-3.5,11.5h-0.3c0.1-1.9,0.3-3.7,0.3-5.4c0.1-1.7,0.1-4,0.1-6.8c0-3.5-0.2-7.6-0.7-12.2
	c-0.4-4.7-0.7-10.7-0.7-18.2c0-2.3,0.5-4.6,1.4-6.7c0.9-2.1,1.7-4.1,2.4-6h-0.4c-5,6.3-8.3,12.2-10.1,17.7
	c-1.8,5.5-2.7,10.9-2.7,16.3c0,6.1,1.2,12.2,3.6,18.4C160.9,225.1,162.9,231.9,164.6,239.4z M201.1,330l14.6,3.2l7.6,1.7
	c-2.7-2.3-7.4-9.9-7.4-9.9c-1.6-2.6-3.2-5.8-4.6-9.6c-1.4-3.8-3.4-8.9-6-15.2c-0.7-2.1-1.5-4-2.3-5.6c-0.8-1.6-1.8-3.3-2.8-5.1
	c-1.1-1.8-2.3-3.7-3.9-5.9c-1.5-2.2-3.5-5-5.8-8.2l-0.3,0.4c0.7,2.3,1.7,6.5,3,12.6c1.3,6.1,2.5,11.8,3.7,17.2c0.7,4,2.3,7.6,4.7,11
	c2.4,3.4,5.6,6.8,9.6,10.3l-0.4,0.4c-1.6-0.5-4.5-2.3-8.4-5.6c-4-3.3-8.2-5.9-12.7-8.1c-8.9-4.4-15.9-8.3-20.9-11.7
	c-5-3.4-8.9-8-11.4-13.8l-0.4,0.4c1.4,5.8,3.6,11.1,6.5,15.8c2.9,4.7,6.4,8.8,10.4,12.3c4,3.5,8.3,6.4,13,8.7
	C191.7,327.5,196.4,329.1,201.1,330z M168.3,294l25.9,17.1c-1.1-2.3-2.1-4.6-2.9-6.7c-0.8-2.1-1.4-4.4-1.9-7
	c-0.5-2.6-0.9-5.4-1.2-8.6c-0.3-3.1-0.7-6.9-1.2-11.4c-0.9-7.7-1.7-13.6-2.4-17.8c-0.7-4.2-1.9-8.8-3.8-13.7h-0.3
	c0,4-0.2,7.4-0.5,10.2c-0.4,2.8-0.8,5.4-1.4,7.7c-0.6,2.3-1.1,4.5-1.4,6.5c-0.4,2-0.5,4.3-0.5,6.8c0,2.6,0.8,5.9,2.3,10
	c1.5,4.1,2.9,7.4,4.3,10l-0.3,0.4c-4-6.3-7.9-11.5-11.7-15.6c-3.8-4.1-7.3-7.8-10.5-11.2c-3.2-3.4-5.8-6.7-8-10
	c-2.2-3.3-3.7-7.4-4.4-12.3c-0.3,1.2-0.5,2.3-0.7,3.3c-0.2,1-0.2,2.2-0.2,3.3c0,4,0.7,8,2.1,12.1c1.4,4.1,3.1,7.9,5.2,11.4
	c2.1,3.5,4.4,6.6,6.8,9.3C164,290.5,166.2,292.6,168.3,294z M381.1,142.3c2.5,3.1,5,6.5,7.7,10c2.7,3.5,5.7,6.9,8.9,10.3
	c3.3,3.4,7.2,6.6,11.9,9.6c-2.3-8.9-5.1-15.6-8.4-20.1c-3.3-4.6-6.7-7.9-10.2-10c-3.5-2.1-6.8-3.6-10-4.5c-3.1-0.9-5.8-2.3-7.9-4.2
	l-0.4,0.4C375.9,136.3,378.6,139.1,381.1,142.3z M404,331.5c-2.6,1.5-5.2,2.6-7.9,3.3c-2.7,0.7-5.6,1.2-8.8,1.6
	c-0.8,0.1-1.7,0.2-2.5,0.3c-1.6,0.2-3.2,0.4-4.9,0.6c-1.7,0.2-3.3,0.5-4.9,0.7c-2.1,0.3-4.2,0.4-6.3,0.6c-1.7,0.1-3.4,0.3-5.1,0.5
	c-1.7,0.2-3.6,0.5-5.6,0.9c-2,0.3-4.6,0.8-7.5,1.2v-0.3c6.8-2.1,11.7-4.5,14.7-7.3c2.5-1.9,4.4-4.1,5.8-6.8c0.4-0.8,0.9-1.7,1.3-2.5
	c1.1-2.1,2.3-4.2,3.4-6.3c0.3-0.5,1-1.4,1-1.4s4.3-8.7,4.8-9.5l-0.4-0.4c-1.3,1.3-5.9,5.4-6.8,6.2c-3.1,2.8-6.4,5.5-9.5,8.4
	c-4,3.7-7.9,7.3-11.9,10.8c-3.3,3-6.5,5.1-9.8,6.1c-3.3,1-7.1,2.1-11.5,3.3c6.8,1.6,12.2,3,16.3,4c4.1,1,7.4,1.8,10,2.3
	c2.6,0.5,4.7,0.8,6.3,1.1c1.6,0.2,3.4,0.4,5.2,0.4c1.4,0,2.7-0.1,3.9-0.2c1.1-0.1,3.3-0.4,3.3-0.4c5.2-0.7,9.7-1.9,13.7-3.6
	c4-1.7,7.5-3.7,10.4-6c2.9-2.4,5.4-4.7,7.4-7c2-2.3,3.6-4.6,4.8-6.6l-0.4-0.4C409.4,327.8,406.6,329.9,404,331.5z M423.6,301.9
	c-5,3.4-12,7.3-20.9,11.7c-4.5,2.1-8.7,4.8-12.7,8.1c-4,3.3-6.8,5.1-8.4,5.6l-0.4-0.3c4-3.5,7.2-6.9,9.6-10.3c2.4-3.4,4-7.1,4.7-11
	c1.2-5.4,2.4-11.1,3.7-17.1c1.3-6.1,2.3-10.3,3-12.6l-0.3-0.4c-2.3,3.3-4.3,6-5.8,8.2c-1.5,2.2-2.8,4.2-3.9,5.9
	c-1,1.8-2,3.4-2.8,5.1c-0.8,1.6-1.6,3.5-2.3,5.6c-2.6,6.3-4.6,11.4-6,15.2c-1.4,3.9-2.9,7.1-4.6,9.6c0,0-4.7,7.6-7.4,9.9l7.6-1.7
	l14.6-3.2c4.7-0.9,9.4-2.6,14.1-4.9c4.7-2.3,9-5.2,13-8.7c4-3.5,7.5-7.6,10.4-12.3c2.9-4.7,5.1-9.9,6.5-15.7l-0.4-0.4
	C432.5,293.9,428.7,298.5,423.6,301.9z M434.3,234.9c-1.7,4-3.4,8.3-5.1,12.9c-1.7,4.7-3,9.6-3.9,14.7h-0.3c0-0.5,0.3-1.9,0.8-4.4
	c0.6-2.4,0.8-4.4,0.8-5.8c0-4.2-0.7-8.1-2.1-11.7c-1.4-3.6-3.1-7-4.9-10.2c-1.9-3.1-3.7-6.2-5.5-9.1c-1.8-2.9-3-5.9-3.7-8.9H410
	c-0.5,4.2-0.2,9,0.9,14.4c1.1,5.4,2.3,10.7,3.8,15.9c1.4,5.3,2.8,10,4.2,14.4c1.3,4.3,2,7.4,2,9.3v4.9c0,1.9-0.1,3.7-0.4,5.6h0.3
	c2.8-4.9,5.6-9,8.5-12.4c2.9-3.4,5.5-6.8,7.8-10.3c2.3-3.5,4.2-7.4,5.6-11.7c1.4-4.3,2.1-10,2.1-17c0-3.3-0.6-7-1.7-11.2
	c-1.1-4.2-2.1-7.2-2.8-9.1h-0.4c0,2.1,0.1,3.9,0.2,5.2c0.2,1.4,0.2,3.3,0.2,5.6c0,2.1-0.6,4.8-1.7,8.1
	C437.4,227.3,436,230.9,434.3,234.9z M423.6,210.4c-1.4-3.5-4.4-7.4-9-11.6c-2.5-2.3-4.6-4.2-6.1-5.6c-1.5-1.4-2.7-2.6-3.6-3.7
	c-0.9-1.1-1.7-2-2.2-2.8c-0.6-0.8-1.1-1.8-1.6-3h-0.3c0.5,2.1,1.4,5.5,2.8,10.2c1.4,4.7,3.2,8.8,5.5,12.3c3.9,5.6,7,10,9.3,13.3
	c2.3,3.3,4.1,6.1,5.4,8.4c1.3,2.3,2.1,4.3,2.6,5.9c0.5,1.6,0.8,3.5,1,5.6h0.4c1.7-7.5,3.7-14.3,6.1-20.5c2.4-6.2,3.6-12.3,3.6-18.4
	c0-5.4-0.9-10.8-2.7-16.3c-1.8-5.5-5.1-11.4-10.1-17.7h-0.4c0.7,1.9,1.5,3.9,2.4,6c0.9,2.1,1.4,4.3,1.4,6.6c0,7.5-0.2,13.5-0.7,18.2
	c-0.4,4.7-0.7,8.8-0.7,12.3c0,2.8,0,5.1,0.1,6.8c0.1,1.8,0.2,3.6,0.3,5.4h-0.3C426.1,217.7,425,213.9,423.6,210.4z M408.2,154.7
	c1.3,2.3,2.3,5.1,3.2,8.2c0.8,3.1,1.7,6.8,2.8,11c1,4.2,2.6,9.3,4.7,15.4v0.4c-2.3-4.7-5-8.3-7.9-11c-2.9-2.7-5.9-5-8.8-7
	c-2.9-2-5.6-4-8.1-6.1c-2.5-2.1-4.5-5-6.2-8.7h-0.4c1.4,4.2,2.5,7.5,3.3,10c0.8,2.4,1.7,4.5,2.5,6.1c0.8,1.6,1.8,3,3,4.2
	c1.2,1.2,2.7,2.6,4.6,4.2c5.2,4.4,9.6,8.2,13.4,11.2c3.8,3,6.8,6.5,9.2,10.5v-24.5c0-7.2-2-13.8-6-19.6c-4-5.8-9.1-9.6-15.4-11.2
	v0.4C404.8,150.2,406.9,152.4,408.2,154.7z M367.6,356.1c-2.1,0-4-0.2-5.8-0.5c-1.8-0.3-3.9-0.8-6.5-1.2v0.1c-2.1-0.7-4.4-1.5-7-2.4
	c-2.7-0.9-5.9-2.1-9.7-3.5c-6.6-2.3-11.5-4.1-14.9-5.3c-3.4-1.2-6.7-1.8-10-1.8c-3.1,0-6.5,0.4-10.2,1.2c-3.5,0.8-6,1.4-7.7,1.8
	c-1.5-0.5-3.9-1.1-7.4-1.8c-3.7-0.8-7.1-1.2-10.1-1.2c-3.3,0-6.6,0.6-10,1.7c-3.4,1.2-8.3,2.9-14.9,5.2c-7.7,2.8-13.4,4.7-17.1,5.9
	c-3.7,1.2-7.6,1.7-11.5,1.7c-1.6,0-3.3-0.1-4.9-0.3c-1.6-0.2-3-0.6-4.2-1.1c0,0-3.3-1-5.1-1.7c-1.9-0.8-4.1-1.8-6.7-3l-0.4,0.3
	c3.7,4.2,12.3,9.4,12.3,9.4c6.5,3.7,12.9,5.6,19.4,5.6c2.8,0,5.3-0.2,7.5-0.5c2.2-0.3,4.4-1,6.6-1.9c2.2-0.9,4.7-2.1,7.3-3.5
	c2.7-1.4,5.9-3.3,9.6-5.6c4-2.6,7.3-4.6,10-6.1c2.7-1.5,5.8-2.3,9.3-2.3c1.4,0,2.8,0.2,4.2,0.7c-4.7,2.5-10,5.6-15.9,9.2
	c-6,3.6-11.7,8.4-17.3,14.4l6,5.2c5.1-6.1,10.8-11.6,17.1-16.8c6.1-5,11.5-8.3,16.1-10c4.6,1.7,10,5,16.3,10
	c6.4,5.1,12.2,10.7,17.3,16.8l5.9-5.2c-5.6-6-11.4-10.8-17.5-14.4c-6.1-3.6-11.4-6.7-16.1-9.2c1.9-0.5,3.4-0.7,4.6-0.7
	c3.5,0,6.6,0.8,9.3,2.3c2.7,1.5,6,3.6,10,6.1c3.5,2.1,6.6,3.9,9.1,5.4c2.6,1.5,5,2.7,7.2,3.5c2.2,0.8,4.4,1.5,6.5,1.9
	c2.1,0.5,4.4,0.7,6.9,0.7v0h1.4c4.9,0,10.2-1.2,15.9-3.5c5.7-2.3,10.9-6.2,15.6-11.6V350c-4.9,2.3-8.8,3.9-11.6,4.8
	C373.9,355.7,370.9,356.1,367.6,356.1z M445.1,254.5c0-0.4,0-0.7,0-1.1c0-0.6-0.1-1.1-0.2-1.6c-0.2-1.1-0.4-2.2-0.7-3.3
	c-0.7,4.9-2.2,9-4.4,12.3c-2.2,3.3-4.9,6.6-8,10c-0.2,0.2-0.4,0.4-0.6,0.6c-3,3.2-6.3,6.8-10,10.6c-3.8,4-7.6,9.1-11.5,15.3
	l-0.1-0.1c1.3-2.6,2.7-5.9,4.1-10c1.4-4.1,2.1-7.4,2.1-10c0-2.6-0.2-4.8-0.5-6.8c-0.4-2-0.8-4.1-1.2-6.5c-0.5-2.3-0.9-4.9-1.2-7.7
	c-0.3-2.8-0.5-6.2-0.5-10.2H412c0,0.1-0.1,0.2-0.1,0.2c0-0.1,0-0.1,0-0.2h-0.3c-1.8,4.9-3.1,9.5-3.8,13.7
	c-0.7,4.2-1.5,10.2-2.4,17.8c-0.5,4.4-0.8,8.2-1.2,11.4c-0.3,3.1-0.7,6-1.2,8.6c-0.5,2.6-1.1,4.9-1.9,7c-0.7,1.8-1.5,3.7-2.4,5.7
	c-0.2,0.3-0.4,0.6-0.5,1l0.1-0.1c0,0,0,0.1-0.1,0.1l8.7-5.8l17.5-11.4c2.1-1.4,4.4-3.4,6.8-6.1c2.4-2.7,4.7-5.8,6.6-9.3
	c1.2-2.2,2.3-4.4,3.3-6.8c0.6-1.5,1.2-3,1.8-4.5c1.4-4.1,2.1-8.1,2.1-12.1c0,0,0,0,0,0c0,0,0,0,0,0
	C445.1,254.9,445.1,254.7,445.1,254.5z M343.2,151.5c0.6,0.2,1.2,0.6,1.9,1c0.4,0.5,0.8,0.9,1.2,1.4c0.3,0.5,0.7,0.7,1.2,0.7
	c0.7,0,1-0.2,1-0.7c0-0.5-0.1-0.6-0.2-0.5c-0.1,0.1-0.2-0.1-0.2-0.5c0-0.9-0.2-1.6-0.7-2.1c-0.9-0.9-1.9-1.2-3.1-0.7
	c-0.2-0.2-0.5-0.3-0.7-0.3h-0.3c-0.7,0-1,0.2-1,0.7C342.4,150.9,342.7,151.2,343.2,151.5z M306.1,143.1h0.7c1.9-0.6,3.3-0.9,4.2-0.9
	h4.9c0.9,0,1.6-0.3,2.1-0.9c0.5-0.6,0.8-1.1,1.1-1.6c-1.2-1.4-2.6-2.3-4.2-2.5c-1.6-0.2-2.8-0.4-3.5-0.4c-0.5,0-1.9,0.4-4.2,1.3
	c-2.3,0.9-3.8,1.4-4.2,1.6c-1.2-0.2-1.9,0-2.1,0.7c0.5,0.5,1.1,1,1.9,1.6C303.6,142.8,304.7,143.1,306.1,143.1z M295.6,334.8
	c58.2,0,105.6-47.4,105.6-105.6c0-58.2-47.4-105.6-105.6-105.6C237.3,123.7,190,171,190,229.2C190,287.5,237.3,334.8,295.6,334.8z
	 M195.4,231.9h16.1c0.2,7.2,1.4,14.2,3.3,20.8c-0.5-0.1-0.9-0.3-1.2-0.9l-0.5-0.5l-1.8-2.5l-2.9,1.1c0,1.6-0.6,2.2-1.8,1.8
	c-0.5-0.5-0.9-0.7-1.4-0.7c-1.9,0-3,1-3.3,3c-0.4,2-0.5,3.3-0.5,4l2.5,6.3c0.5,0.7,1.2,0.8,2.1,0.3c0.9,1.2,1.6,2,2.1,2.5
	c0.5,0.5,1.1,0.7,1.8,0.7c0.7,0,1.1-0.3,1.1-1.1h0.4c0.5,0.5,1,1,1.5,1.6c0.5,0.6,1.1,1.1,1.8,1.6v-0.3c0.9,0.8,1.9,1.3,3,1.3
	c0.5,1.7,1.2,3,2.1,3.9c0.9,1,1.9,1.4,2.8,1.4c0.5,0,0.9-0.2,1.4-0.7c0.7,1.9,1.3,3.1,1.8,3.6c0.5,0.2,1,0.6,1.8,1.1
	c0.7,0.5,1.2,0.8,1.4,1.1h0.7c0,0,0,0,0,0c0.2,0.9,0.8,1.9,1.7,2.8c0.7,0.7,1.4,1.3,2.1,1.8c-0.1,0-0.1,0.1-0.2,0.1
	c0.1,0,0.1,0.1,0.2,0.1c0.1,0,0.2,0,0.3,0c0.2,0.3,0.5,0.5,0.7,0.8l-11.4,11.4C206.4,280.8,196,257.5,195.4,231.9z M272.8,202.3
	c-0.3-0.2-0.6-0.4-0.9-0.6l-1.1-1.1c6-5.2,13.7-8.6,22.1-9.2v11.2c-0.2-0.1-0.3-0.2-0.5-0.3c-0.1-0.1-0.2-0.2-0.3-0.4
	c0,0-0.1,0-0.1,0c-0.1-0.1-0.4-0.2-0.8-0.2c-0.2,0-0.3,0-0.4,0.1c0,0-0.1,0-0.1-0.1c-0.3,0-0.5,0-0.8,0.1c-0.3,0.1-0.6,0.2-0.8,0.2
	c-0.2,0-0.3,0-0.4-0.1c-0.3-0.2-0.5-0.8-0.5-1.6c0,0,0,0-0.1,0c0,0,0,0,0-0.1c-1,0.5-1.5,0.9-1.6,1.4c-0.1,0.5-0.3,1.3-0.5,2.5
	c-0.2,0.9-0.8,1.6-1.8,1.9c-1,0.4-1.7,0.8-2.1,1.2l-1.1-0.7h-1.8c-0.5-0.5-0.8-0.8-1.1-0.9c-0.2-0.1-0.5-0.3-0.7-0.5
	c-0.2-0.2-0.3-0.2-0.3,0c-0.5,0-0.8,0.3-0.9,0.8l-1-1l0.3-0.1v-0.7C274.9,203.8,274,203.1,272.8,202.3z M267,196.9l-10.8-10.8
	c9.8-8.9,22.6-14.6,36.7-15.2v15.3C283,186.7,274,190.7,267,196.9z M273,247.7c0.6-0.6,0.3-1.6,0.5-2.3l-1.2,1.1
	c1.2-1.2,1.9-2,2.1-2.6c0.2-0.6,0.6-1.2,1.1-1.9c0,0,0,0,0.1,0c0.4,0.8,0.8,1.5,1.3,2.2L267,254c-3.9-4.5-6.7-9.9-8.2-15.9
	c0.8,0.1,1.7,0.3,2.5,0.7c0.4,0.2,2.2,2,2.2,2c0.5,0,0.9-0.1,1.4-0.3l1.4,1.1c0,0.9,0.1,1.5,0.4,1.8c0,0.2,0.4,0.5,1.1,0.9
	c0.7,0.4,1.2,0.8,1.4,1.2l0.7-0.3c0-0.2-0.1-0.7-0.2-1.4c-0.1-0.7-0.1-1.1,0.2-1.1l0.7,2.5l0.7,2.8l0,0
	C272,248.1,272.6,248.1,273,247.7z M294,258.9c0.6,0.6,0.9,1,0.9,1.2c0,0.7-0.9,1.1-2.8,1.1c-0.7,0-1.2,0.7-1.4,2
	c-0.2,1.3-0.5,2.5-0.7,3.3c-0.2,0-0.4-0.1-0.6-0.1c0,0,0,0.1,0.1,0.1c-7.1-1.1-13.5-4.2-18.7-8.7l9.5-9.5c3.5,3.4,8.1,5.6,13.3,6.1
	c0,0.8,0.1,1.3,0.3,1.5c-0.5,0.5-0.7,1.1-0.7,1.8C293.2,257.9,293.5,258.3,294,258.9z M247.2,259.6c-0.2-3-0.5-5-0.7-6
	c-0.2-0.9-0.6-2-1.1-3.2c-0.3-2.1-0.6-3.7-1.1-4.7c-0.5-1.1-1.6-2.5-3.3-4.4v-2c0-0.2-0.2-0.9-0.7-2.1v-0.4c0-0.5,0.2-0.8,0.5-0.9
	c0.4-0.1,1.6-0.5,3.7-1.3c0-1.7,0.1-2.8,0.4-3.2l2.5,0.4c0.7,0,1.1-0.5,1.1-1.5c0-0.2-0.2-1-0.7-2.2c-0.5-1.2-0.7-2.1-0.7-2.5
	c0-0.5,0.3-0.9,1-1.3c0.7-0.4,1.4-0.5,2.1-0.5c1.2,0,2,0.4,2.4,1.2c0.5,0.8,0.7,1.7,0.7,2.6c0,0.7-0.1,1.3-0.2,1.9
	c-0.1,0.6-0.2,1.1-0.2,1.6l0.7,0.3c-0.5,2.3-1.4,3.5-2.8,3.5c-0.7,0-1.2-0.3-1.6-0.9c-0.3-0.6-0.8-0.9-1.2-0.9
	c-0.2,0-0.4,0.1-0.4,0.4c0,0.5,0.1,1,0.3,1.4c0.2,0.5,0.4,1.1,0.4,1.8c0,1.7-0.7,2.2-2.2,1.8c-0.5,0.9,0,1.3,1.5,1.3
	c0.5,1.4,1,2,1.5,1.8c0.2-0.2,0.5-1,0.7-2.4c0.2-1.4,0.5-2.3,0.7-2.8l0.4,0.4l1.5-0.4c0,0.2,0.1,0.4,0.1,0.5c0.1,0,0.3,0,0.4,0
	c1.4,7.9,5,15,10.1,20.8l-14.9,14.9c-0.6-0.7-1-1.5-0.8-2.3c0.3-1.4,1.8-2.3,1.9-3.8c0-0.1,0.3-2.8,0.3-2.8
	C248.1,261.4,247.2,260,247.2,259.6z M238.7,237.6c0.2,0.5,0.3,0.9,0.3,1.4c0,0.7-0.2,1-0.7,0.9c-0.1,0-0.2,0-0.3,0
	c-0.5-2.6-0.8-5.3-0.9-8h2.9c0,0.6-0.2,1.1-0.3,1.4c-0.2,0.5-0.5,0.9-0.9,1.4c-0.4,0.5-0.5,0.9-0.5,1.4
	C238.4,236.6,238.5,237.1,238.7,237.6z M237.2,226.6c0.6-14.1,6.3-26.9,15.2-36.7l10.8,10.8c-0.1,0.1-0.2,0.2-0.3,0.4
	c-0.6,0.1-1.3,0.4-1.9,0.7c-0.5,0.6-1,1.2-1.6,2.1c-1.6,0.7-2.8,1.3-3.3,1.8c-0.6,0.5-1.5,1.4-2.6,2.8c-1.4,0.7-2.3,1.1-2.6,1.2
	c-0.4,0.1-0.8,0.4-1.2,0.9c0.5,1.2,0.5,1.8,0,1.9c-0.5,0.1-1.6,0.4-3.5,0.9c-0.2,0-0.5,0.1-0.7,0.3l-1.1,1.1
	c-0.2,0.5-0.4,0.9-0.4,1.2c0,0.4-0.1,0.8-0.4,1.2c-0.7,0.5-1.3,1.1-1.8,1.8c-0.4,0.9-0.4,2,0,3.2l0.4,3.5c0,0-0.1,0-0.1,0
	c0.1,0.3,0.2,0.7,0.3,1.1H237.2z M267,261.6c5.3,4.6,11.7,8,18.7,9.7c-0.5,0.2-1,0.4-1.5,0.5c-1.2,0.4-1.9,1.1-2.1,2.3
	c-0.2,1.4-0.8,2.3-1.6,2.7c-0.8,0.4-1.1,0.9-0.9,1.6c1.2,1.2,2,2.6,2.5,4.2c0.5,1.7,1.6,2.7,3.5,3.2l2.1,0.7c0.6,0,1.3,0.3,2.1,0.8
	c0.6,0.1,1.2,0.2,1.8,0.3c-13.6-0.9-25.9-6.5-35.4-15.2L267,261.6z M252.4,182.3l-10.7-10.7c13.5-12.6,31.4-20.6,51.2-21.2v15.1
	C277.3,166.2,263.2,172.4,252.4,182.3z M248.7,186.1c-9.9,10.8-16.2,24.9-16.8,40.5h-15.1c0.7-19.7,8.6-37.7,21.2-51.2L248.7,186.1z
	 M231.9,231.9c0.1,2.6,0.4,5.2,0.8,7.8c-0.2-0.3-0.4-0.7-0.6-1c-0.8-1.1-1.5-1.7-2.1-1.7c-0.7,0-1.2,0.3-1.4,0.9
	c-0.2,0.6-0.6,1.1-1.1,1.6c-1.9,1.2-3.2,1.8-3.9,1.8c-1,0.9-1.7,2.3-2.1,4.2c-0.2,0.5-0.2,0.9,0.2,1.4c0.4,0.5,0.2,0.9-0.5,1.4
	c0.5,0.9,0.6,1.5,0.4,1.8c0.2,0.5,0.2,0.7-0.2,0.5c-0.4-0.1-0.7-0.1-0.9,0.2c-0.2,0.2-0.4,0.5-0.5,0.8c-1.8-6.2-2.9-12.8-3.2-19.6
	H231.9z M292.9,329.4c-25.6-0.7-48.9-11-66.3-27.5l11.3-11.4c14.5,13.6,33.7,22.1,54.9,22.8V329.4z M292.9,308.1
	c-19.6-0.7-37.5-8.5-50.9-21c1.1,0.5,2,0.8,2.9,0.8c0.7,0,1.6-0.2,2.8-0.7c1.2-0.5,2.2-1,3.2-1.5c1.4,0,2.5-0.2,3.2-0.7
	c0.9,0.2,1.8,0.2,2.6,0c0.8-0.2,1.2-0.8,1.2-1.8c0-0.7-0.4-1.3-1.2-1.9c-0.8-0.6-1.3-1.1-1.3-1.6c0-0.2-0.2-0.5-0.7-0.9
	c-0.4-0.3-1.1-1.1-2.3-2.5l0,0c10.8,9.9,24.9,16.1,40.5,16.8V308.1z M295.7,268.9v-0.1c-1.7,0-2.9-0.2-3.5-0.6
	c-0.1-0.3-0.2-0.6-0.3-0.9c0.3-0.2,0.8-0.6,1.6-1.1c1-0.6,1.7-0.9,2.2-0.9l0-0.9l2.6-1.9c0.5-0.2,0.8-0.3,0.9-0.3
	c0.1,0,0.8-0.2,2-0.7c0.2,0,1.1,0.4,2.7,1.2c1.6,0.8,2.5,1.2,2.7,1.2l0.4-1.4c0.5,0,1.2,0.5,2.1,1.4c0.5,0,1.1-0.2,1.8-0.7
	c0.2-0.7,0.2-1.3,0-1.8c0.2,0,0.6,0.1,1.1,0.3c0.2,0,0.4,0.1,0.5,0.2c0.1,0.1,0.3,0.2,0.5,0.2h0.4c0.5,0,1.1-0.3,1.9-0.9
	c0.8-0.6,1.5-1,1.9-1.2c0.2-0.2,0.5-0.2,0.7,0c0.2,0.2,0.4,0.7,0.4,1.4c0,1.9-1,3.3-3,4.2c-2,0.9-3.7,1.6-5.1,2.1
	c-0.2,0.2-0.5,0.8-0.9,1.6c-0.3,0.8-0.8,1.2-1.2,1.2c-0.9,0-2.4-0.2-4.3-0.7c-0.2-0.2-0.6-0.9-1.1-2.1c-0.7,0-1.6,0.1-2.5,0.4
	l-2.9,0.7C296.7,268.9,296.2,268.9,295.7,268.9z M311,257.3c0.2-1.2,0.8-1.9,1.8-2.3c0.9-0.3,1.9-0.5,2.8-0.5c0,0.7-0.6,1.4-1.9,2.1
	c-1.3,0.7-2.1,1.1-2.3,1.1L311,257.3z M321.9,248.7c0.9,0.6,1.4,1.5,1.4,2.6c0,0.9-0.5,1.4-1.4,1.4c-0.7,0-1.3-0.8-1.8-2.5
	c-1.6-0.5-2.6-1.2-2.8-2.3c-0.2-1-0.1-1.7,0.4-1.9c0.5-0.2,0.9-0.4,1.4-0.5c0.5-0.1,0.6,0.4,0.3,1.6
	C320.1,247.5,320.9,248.1,321.9,248.7z M355.7,189.7c0.2,0,0.5,0.1,0.7,0.4c0.9,0,1.8,0.2,2.5,0.7c0.7,0.5,2.1,2.2,4.2,5.3
	c0.2,0,0.5,0.4,0.9,1.1c0.4,0.7,0.8,1.1,1.2,1.1c0.4,0,1-0.2,1.8-0.6c0.1-0.3,0.1-0.6,0.2-1c4.2,9.2,6.7,19.3,7.1,30h-14.9
	c0-0.1,0-0.2,0.1-0.3c0.2-1.3-0.3-2.7-0.8-3.9c-0.7-1.9-1-3.2-0.5-5.2c0.4-1.5,0.4-2.5,0.2-3c-0.7,0-1.2,0.1-1.4,0.3
	c-0.2,0.2-0.5,0.8-0.9,1.6c-0.4,0.8-0.6,1.5-0.9,1.9v0.2c-0.2,0.3-0.3,0.6-0.3,0.7c0,0.1-0.1,0.4-0.4,0.9c-0.2,0.9-0.5,1.9-0.7,2.8
	c-0.2,0.8-0.2,1.8,0,2.8c0,0,0,0,0,0.1c0,0.4,0.1,0.7,0.1,1.1h-7.6c0.5-0.5,1-0.8,1.6-1.1h-0.2l2.1-1c-0.5-0.2-0.7-0.6-0.7-1
	c0-0.7,0.1-1.1,0.3-1.2c0.2-0.1,0.9-0.4,2-0.9c0.4-0.5,1.1-1.6,1.9-3.3c0.9-2,2.7-4.8,2.7-7c0-0.5-0.7-1.2-0.8-1.8
	c-0.1-0.5,0.2-1,0.2-1.5c0.1-2.5,1.1-6.7-2-7.5c-0.2,0-0.4-0.3-0.4-1c0.7-0.5,1-1.4,0.7-2.7h-2.2c0-0.2,0.2-0.6,0.5-1.2
	c0.4-0.6,0.5-1.1,0.5-1.6c0-0.7-0.4-1.1-1.1-1.1c-0.7,0-1.3,0.1-1.8,0.4c-0.5,0.2-0.9,0.4-1.1,0.4c-0.2,0-0.4,0-0.6-0.1
	c-0.2-0.3-0.4-0.5-0.5-0.7c0-1.1-0.5-2.3-1.5-3.4c-1-1.1-1.9-1.8-2.8-2.1c0,0-0.1-0.1-0.1-0.1c0.2-0.5,0.2-1,0-1.5l3-3l4.3,1.5
	c0,1.2,0.4,2,1.1,2.5c0.2,0.2,0.7,0.6,1.5,1.1c0.7,0.4,1.2,0.8,1.7,1.3v0.2C355.1,189.4,355.5,189.7,355.7,189.7z M341.3,291.9
	c-0.2-0.2-0.5-0.3-0.9-0.3c-0.4,0-0.5-0.2-0.5-0.7c0-0.5,0.4-0.9,1.1-1.4c0.7-0.5,1.3-1.3,1.8-2.5c0.5-0.9,0.7-1.6,0.7-2.1
	c0-0.5-0.2-0.8-0.5-0.9c-0.4-0.1-0.8-0.4-1.2-0.9c-0.5-0.2-1-0.5-1.6-0.7c-0.6-0.2-1.2-0.6-1.9-1.1c-0.7-0.5-1.1-1-1.1-1.8
	c0-0.2,0.2-0.8,0.5-1.8c0.1-0.3,0.3-0.6,0.4-0.9c0.3-0.2,0.5-0.5,0.8-0.7l8.1,8.1c0,0.9,0.6,1.5,1.6,1.7l0.9,0.9
	c-2.8,2.7-5.9,5.1-9.1,7.3c0.1-0.3,0.3-0.6,0.6-0.9c0.1-0.1,0.3-0.2,0.4-0.3C341.4,292.5,341.4,292.1,341.3,291.9z M336.3,253.2
	c-0.7-0.2-1.4-0.1-2.1,0.3c-0.9,0.2-1.7,0.9-2.1,2.1c0,0.2-0.1,0.4-0.4,0.4c-0.5,0-0.9,0.1-1.4,0.4c-0.7,0.2-1.3,0.5-1.8,0.7
	c-0.7,0-1.1-0.2-1.1-0.7c0-0.7,1-1.2,3.2-1.4c0.9-1.1,1.5-1.8,1.7-2.1c0.2-0.2,0.8-0.5,1.6-0.7c0.9-0.5,1.7-1.3,2.6-2.6
	c0.9-1.3,1.3-2,1.3-2.2h0.3c0,1.2,0.5,1.7,1.5,1.7c0.7,0,1.3-0.8,1.8-2.4c1.5,0.5,2.5,0.7,2.9,0.7c1.2,0,2.1-0.4,2.6-1.3h4.4
	c0,0.1-0.1,0.2-0.1,0.3c0,0.1-0.1,0.2-0.1,0.3c0,0,0,0,0,0c-2.4,7.8-6.5,15-11.8,21c0-0.4-0.1-0.7-0.1-1.1c-0.1,0.1-1-3.2-1.3-3.2
	c-0.4,0-1,0.8-1.7,2.5c-0.7,1.6-1.1,2.7-1.3,3.2l-3.5,0.7c-0.9,0.2-2,0.4-3.2,0.4c-0.5,0-1.5-0.4-3-1.2c-1.5-0.8-2.5-1.2-3-1.2
	c-0.7-0.2-1.7-0.5-3-0.7c-1.3-0.2-1.9-0.6-1.9-1c0-0.7,0.5-1.1,1.4-1.1c0.5,0,1.4,0.2,2.8,0.5c1.4,0.4,2.8,0.7,4.2,1.1
	c1.4,0.4,2.7,0.7,3.9,1.1c1.2,0.3,1.9,0.5,2.1,0.5l2.1-0.7c0-0.5,0.2-1.1,0.7-1.9c0.5-0.8,0.7-1.5,0.7-1.9c0.5-0.9,0.9-2.2,1.3-3.9
	c0.4-1.6,0.6-3,0.6-4.2C337.4,254.1,337.1,253.5,336.3,253.2z M345.7,231.9h8.3c-0.2,3.5-0.6,7-1.4,10.3c-0.7-1.6-1.3-2.7-1.8-3.1
	c-0.5-0.5-1.4-1.4-2.9-2.8c-0.2-1.2-0.4-2-0.5-2.5c-0.1-0.2-0.2-0.5-0.5-0.8C346.4,232.6,346,232.3,345.7,231.9z M349.1,274.9
	c-0.7,0-1.1,0.2-1.1,0.5c0,0.3-0.1,1.1-0.3,2.2l-5.2-5.2c7-7.6,12.2-17,14.8-27.3c0.1-0.1,0.2-0.1,0.3-0.2c1.2,0.5,2,0.5,2.3,0
	c0.3-0.5,0.5-0.8,0.5-1c0-0.7-0.6-1.6-1.8-2.8h-0.4c0.6-3,0.9-6,1.1-9.1h15.1c-0.7,19.7-8.6,37.7-21.2,51.2l-0.6-0.6
	c0,0,0-0.1,0-0.1c-0.2-1.6-0.5-3.2-0.8-4.7C351.4,275.8,350.5,274.9,349.1,274.9z M345.4,198.7C345.4,198.7,345.4,198.8,345.4,198.7
	c0,0.6-0.1,1.1-0.3,1.8c-0.2,0.7-0.5,1.3-0.7,1.8c0.2,0.5,1.2,1.3,2.8,2.5c1.6,1.2,2.7,2,3.2,2.5c0.5,0.7,1,2.1,1.6,4.1
	c0.6,2,0.9,3.2,0.9,3.7c-0.2,1-0.6,1.8-1,2.5c-0.9,1.4-2.1,2.1-3.5,2.1l-0.4-0.4c0-0.5,0.2-1.2,0.7-2.1c0.5-0.9,0.7-1.6,0.7-2.1
	c0.9-0.7,1.4-1.4,1.4-2.1c-0.5-0.2-0.8-0.4-1.1-0.5c-0.2-0.1-0.8-0.6-1.8-1.6c0-0.7-0.7-1-2.1-1c-0.7,0-1.3,0.2-1.8,0.5
	c-0.5,0.3-1,0.8-1.8,1.2l-0.7-1.4c0.2-0.5,0.3-1,0.3-1.5l-2.8-4.7c-0.7-0.5-2-0.9-3.9-1.2c-1.1-0.2-1.8-0.1-2.8,0.1
	c-1.1,0.2-1.6,0-2.7-0.2c-1.1-0.1-1.9,0.2-2.8,0.9c-0.9,0.7-1.6,1.4-2.3,2.3c-0.4,0.4,0.1,1-0.9,0.8c-0.1,0-0.5-0.5-0.9-0.9l16-16
	c0.1,0.2,0.3,0.4,0.4,0.5c0.2,0.2,0.7,0.8,1.4,1.6c0.5,0.6,1,1.2,1.5,1.9C343.2,195.4,344.3,197,345.4,198.7z M307.1,304.1
	c1.3,1.1,2.9,1.8,4.5,2.3c-4.3,0.9-8.8,1.5-13.3,1.6V293c0,0,0,0,0,0c0.8,1.2,1.6,2,2.2,2.4c0.5,0.2,1.5,0.4,3.1,0.5
	c1.6,0.1,2.4,0.4,2.4,0.9c0,0.5-0.2,1-0.5,1.6c-0.4,0.6-0.5,1.1-0.5,1.6C304.9,301.5,305.6,303,307.1,304.1z M298.2,329.4v-16.1
	c6-0.2,11.8-1,17.4-2.4c0.1,0.1,0.1,0.2,0.1,0.3c0,0.1,0.1,0.3,0.1,0.4c1.9,1.4,3.1,2.5,3.5,3.3c0.5,0.9,1.8,1.4,3.9,1.4
	c1.2,0,1.9-0.2,2.3-0.7c0.3-0.5,0.8-0.9,1.2-1.4c0.5-0.5,1.1-0.8,1.8-1.1c0.7-0.2,1.2-0.6,1.4-1.1c1.2-0.5,2-1.2,2.5-2.1
	c0.9-0.7,1.6-1.6,2.1-2.8c0.5,0,0.9-0.3,1.4-0.9c0.5-0.6,0.9-1.8,1.4-3.7c0.2-0.1,0.4-0.2,0.6-0.4c0-0.2,0.1-0.4,0.1-0.5
	c5.5-3.2,10.5-7,15.1-11.3l11.4,11.3C347.1,318.4,323.9,328.8,298.2,329.4z M368.3,298.2l-11.3-11.4c13.6-14.5,22.1-33.7,22.8-54.9
	h16.1C395.1,257.5,384.8,280.8,368.3,298.2z M395.8,226.6h-16.1c-0.5-17.5-6.5-33.7-16.2-47c-0.2-0.5-0.4-1-0.8-1.5
	c-0.3-0.3-0.6-0.6-0.9-0.8c-1.3-1.7-2.7-3.3-4.1-4.8c-0.2-0.4-0.3-0.8-0.4-1.1l11-11C384.8,177.7,395.1,200.9,395.8,226.6z
	 M298.2,129c25.6,0.7,48.9,11,66.3,27.5l-9.8,9.8c-0.2-0.5-0.4-1-0.5-1.5c-0.8-0.7-1.3-1.1-1.5-1.1c-0.9-0.5-1.5-1.2-1.6-2.3
	c-0.1-1-0.4-1.8-0.9-2.2c-1.4-0.5-2.6-1.5-3.5-3.1c-0.9-1.6-1.9-2.4-2.8-2.4c-0.5,0.2-1.2,0.1-2.3-0.3c-1.1-0.4-1.8-0.6-2.3-0.6
	c-0.9,0-1.8,0.1-2.5,0.4c-0.7,0.2-1.6,0.5-2.8,0.7c-0.1,0.1-0.2,0.2-0.4,0.4c-10.4-5.3-22-8.5-34.3-9.1c0.9-1.5,1-2.4,0.3-2.9
	c-0.2-0.2-0.7,0.1-1.5,0.9V129z M298.2,150.4c11.7,0.4,22.8,3.4,32.7,8.4c0,0.1,0,0.2,0,0.2c0.4,0.4,0.9,0.9,1.4,1.5
	c0.6,0.7,1,1.2,1.2,1.4c0.5,1.6,0.8,2.7,1.1,3.1c0.2,0.5,0.6,1,1.1,1.7c-0.2,0.9-0.1,1.9,0.5,3c0.6,1,1.2,2,1.9,3
	c0.2,0,0.7-0.1,1.4-0.2c0.7-0.1,1.3-0.2,1.8-0.2c0.5,0,1,0.4,1.6,1.1c0.6,0.7,1,1.4,1.2,2.1c0.1,0.2,0.2,0.6,0.3,1.2l-4.3,4.3
	c0,0,0,0,0,0c-0.9-3.3-1.6-5.2-2.1-5.8c-0.5-0.6-1.4-0.9-2.8-0.9c-0.2-0.2-1.1-1.2-2.4-3c-1.4-1.8-2.2-2.7-2.4-2.7
	c-0.5,0-0.8,0.1-1.1,0.4c0.2,0.5,0.5,0.9,0.7,1.2c0.2,0.4,0.7,1.1,1.4,2.3c0,0.5-0.2,0.7-0.7,0.7c0.2,0.9,0.8,1.5,1.8,1.8l-0.3,0.7
	l1,2.1c-9.9-7.2-21.9-11.7-34.8-12.2V150.4z M298.2,170.9c14.1,0.6,26.9,6.3,36.7,15.2l-10.8,10.8c-7-6.2-16-10.2-25.9-10.8V170.9z
	 M298.2,191.5c7.9,0.6,15.1,3.5,20.9,8.2c-0.3,0.1-0.6,0.2-0.7,0.4c-0.2,0.2-0.5,0.4-0.7,0.5c-0.2,0.1-0.3,0.4-0.3,0.8
	c0,0.6,0.8,0.8,1.3,0.9l-4.1,4.1v0c-0.7,0.4-1.2,0.8-1.6,1.1c-1,0.5-1.5,0.9-1.6,1.3c-0.1,0.3-0.2,0.7-0.3,1.2l-1.4,1.4
	c-0.2,0.1-0.4,0.1-0.6,0.1c-0.5,0-1.2-0.5-2.2-1.4c-1-0.9-1.7-1.4-2.1-1.4c-0.7,0-1.3,0.2-1.6,0.5c-0.4,0.4-0.8,0.4-1.3,0.2
	c-0.5-0.5,0.1-1,1.6-1.6c1.6-0.6,2.6-1,3.1-1.3c1.9-1.4,2.9-3.3,2.9-5.6c0-1.2-0.5-1.8-1.4-1.8l-1.1,1c-1,0.5-1.8,1-2.5,1.7
	c-0.7,0.7-1.3,1.2-1.8,1.7c-0.5-0.2-1.2-0.4-2.2-0.4h-2.1c0,0-0.1,0.1-0.1,0.1V191.5z M295.1,215.7c0.2,0.4,0.4,0.5,0.6,0.5
	c0.7,0,1.2,0.2,1.7,0.5c0.4,0.3,1,0.4,1.8,0.2c0.1,0.3,0.2,0.5,0.4,0.7c0.2,0.5,0.7,0.7,1.4,0.7c0.2,0.2,0.3,0.3,0.4,0.5
	c0.1,0.1,0.2,0.3,0.2,0.4c0.1,0.4,0.3,0.8,0.6,1.3c0.1,0,0.1,0,0.2,0.1c0.1,0.1,0.1,0.2,0.1,0.3c0.5,0.2,0.9,0.3,1.1,0.2
	c0.2-0.1,0.5,0,0.9,0.1c0,0.3,0,0.5,0.1,0.8h0.2c0,0.3,0.1,0.6,0.1,0.9c0.1,0.6,0.2,1.1,0.2,1.6v0.7c0,0.2-0.1,0.3-0.4,0.3
	c-0.8,0.7-1.1,1.4-1.1,2.1c0,0.5,0.3,0.6,0.9,0.5c0.6-0.1,1.1,0.1,1.3,0.5c0.5,0.5,0.7,1.2,0.7,2.1v3.1c0,0.5,0.2,0.8,0.5,1
	c0.3,0.2,0.5,0.5,0.5,0.7c0,0.7-0.1,1.6-0.4,2.6c-0.2,1-0.6,1.8-1.1,2.3c-0.2,0.2-0.9,0.2-1.8,0c-1-0.2-1.8-0.4-2.5-0.4
	c-0.5,0-1,0.7-1.5,2.1c-0.5,1.2-0.9,2.2-1.1,3.2c-0.2,0.9-0.7,1.4-1.4,1.4c-0.5,0-1,0.1-1.4,0.2c-0.1,0-0.2,0-0.3,0l-1.2,1.9
	l-0.4,0.5c-4.1-0.3-7.8-2-10.7-4.6l1.9-1.9c1.2-0.1,2.4-0.4,3.4-0.8c0.2-0.1,0.4-0.2,0.6-0.2c1.9-0.8,1.7-2.3,2.7-4
	c0.6-1.1,2.4-2.3,1-3.5c1.6-2.8-5.7-2.8-7-2.2c-1.5,0.7-0.5,2.3-1.3,3.6c-0.4,0.6-1.1,0.7-1.7,1.1c-0.7,0.6-2.3,2.3-2.7,3.7l0,0
	c-0.5-0.8-0.9-1.7-1.2-2.7c0.1,0,0.2,0,0.3,0.1c-0.1-0.3-0.2-0.5-0.1-0.6h0.4v0.4c0.9,0.2,1.5,0.2,1.8,0c0.2-0.7,0.4-1.3,0.5-1.9
	c0.1-0.6,0.8-2,1.9-4.1c-0.4-0.2-0.7-0.6-0.8-1.1c-0.1-0.5-0.4-0.6-0.8-0.4c-0.4,0.2-0.7,0.6-0.7,1.1c0,0.5-0.2,0.9-0.7,1.4
	c-0.5,0.5-0.9,0.7-1.4,0.7c0-0.7-0.4-1.1-1.1-1.1c-0.5,0-0.9,0.2-1.4,0.7c-0.5,0-1.6,0.1-3.3,0.4c-1.8,0.2-2.9,0.2-3.3,0
	c-0.5-0.5,0.1-0.9,1.8-1.4c-0.2-1.4,0.3-2.8,1.8-4.2c0.9,0.5,1.6,0.7,2.1,0.7l0.7-0.7h0.4c0.7,0,1.1,0.6,1.2,1.8
	c0.1,1.2,0.4,1.8,0.9,1.8c0.5,0,0.9-0.2,1.4-0.7v-1.8c0.5-1.9,0.8-3.2,1-3.9v-1.1c0.3-0.7,0.7-1.3,1.1-1.7h0.4
	c0.5-0.4,1-0.6,1.6-0.8c0.5-1,0.7-1.7,0.7-2.2c0.7-0.2,1.9-0.7,3.7-1.4c1.8-0.7,2.6-1.4,2.6-2.2c0-0.1,0-0.1,0-0.2
	c0.8-0.2,1.6-0.3,2.4-0.3C294.7,215.3,294.9,215.5,295.1,215.7z M292.9,129v16.1c-21.2,0.7-40.5,9.2-54.9,22.8l-11.3-11.4
	C244,140,267.3,129.7,292.9,129z M222.9,160.3l11.4,11.4c-13.6,14.5-22.1,33.7-22.8,54.9h-16.1C196,200.9,206.4,177.7,222.9,160.3z"
	/>
<g>
	<path class="st2" d="M977.6,253.8c0.3,0.4,0.5,0.8,0.8,1.2c-0.2-0.2-0.4-0.4-0.6-0.5C977.8,254.3,977.7,254,977.6,253.8 M979.3,272
		c-8.4-2.4-17-4.7-25.7-6.8c-3.4-5.3-7.5-10.1-12.4-14.4c2-1.8,3.3-4.4,3.5-7.7c0,0,0-0.1,0-0.1c0,0,0-0.1,0-0.1
		c-0.8-14.6-23.2-13.8-23.2,0.5c0,10.4,11.2,13,18.1,8.6c4.1,3.7,7.8,7.9,10.8,12.3c-12-2.8-24.3-5.3-36.6-7
		c-1.1-1.4-2.3-2.8-3.6-4.1c-25.4-27.9-61-44.3-97.4-54.2c28.5-2.8,59.4,4.6,85.2,14c26.3,9.6,56.1,22.7,77.6,42
		C977,260.6,978.3,266.3,979.3,272 M954.8,267.3c1,0.2,2,0.5,3,0.7c-0.9-0.1-1.8-0.2-2.7-0.3C955,267.5,954.9,267.4,954.8,267.3
		 M957,277.2c-10.2-0.7-20.5-0.6-30.7,0.2c-1.4-3.1-3.1-6.2-4.9-9.3c10.6-0.7,21.2-0.4,31.8,0.9C954.6,271.6,955.9,274.3,957,277.2
		 M927.2,286.9c-2.4-1.5-4.8-2.9-7.3-4c0.5-0.8,0.8-1.8,0.8-2.8c0,0,0-0.1,0-0.1c0,0,0-0.1,0-0.1c0-0.1,0-0.1,0-0.2
		c1.2-0.1,2.5-0.2,3.7-0.3C925.5,281.8,926.4,284.3,927.2,286.9 M888.3,282.9c-1.6-2.9-3.4-5.6-5.2-8.3c11.6-3.3,23.5-5.4,35.5-6.3
		c1.9,3.1,3.6,6.2,5,9.3c-1.1,0.1-2.2,0.2-3.3,0.3c-2.2-5.9-12.2-5-13.1,1.6c-3.1,0.5-6.1,1-9.2,1.5
		C894.8,281.5,891.6,282.1,888.3,282.9 M893.2,299.6c2.1,7.8,2.8,16.3,0.9,24.2c-3.2,13.3-13.8,19.3-25.5,19.1
		c17-11.6,14.8-31.9,3.6-53.9c5-1.6,10-2.9,15-4.1C889.7,289.6,891.8,294.6,893.2,299.6 M819.5,317c-8.6-14.1-15.6-28.4-21.1-43.1
		c12.3-10.4,31.3-15.1,49.1-16.8c0.1,0,0.3,0,0.4,0c6,7.5,11.6,15.2,16.3,22.8c-1.2,0.5-2.4,1-3.7,1.5c-3.4-7.3-16.7-5.6-16.7,3.7
		c-0.1,10.9,16.9,9.8,17.5-0.4c0,0,0,0,0-0.1c0,0,0-0.1,0-0.1c0-0.7-0.2-1.4-0.3-2c1.3-0.6,2.6-1.1,3.9-1.6c1.5,2.5,2.9,5,4.2,7.4
		C850.7,294.4,832.8,303.6,819.5,317 M783.3,206.3c3.4-1.4,6.8-2.7,10.4-3.7c15,12,35.8,31.7,53,52.9c-4.5,0.5-8.9,1.2-13.3,2
		c-13.6,2.5-26.4,7.1-35.7,14.6C790,251.2,785.3,229.5,783.3,206.3 M775.8,208.9c1.3-3.6,2.9-7.1,4.6-10.6c0.2,2.7,0.3,5.4,0.6,8.1
		C779.2,207.2,777.5,208.1,775.8,208.9 M769.9,262.6c-1.5,0.9-2.5,2.4-2.7,4.6c-4.5-18.7-3-37.1,4.2-54.5c0.3-0.2,0.7-0.4,1-0.6
		C766.9,228.3,765.7,245.6,769.9,262.6 M775.7,203.5c-1,2.3-1.9,4.6-2.8,7c-0.3,0.2-0.6,0.3-0.9,0.5
		C773.2,208.5,774.4,206,775.7,203.5 M780.6,182.1c-0.3,1.1-0.5,2.1-0.8,3.2c-0.2-0.9-0.5-1.9-0.6-2.8
		C779.6,182.3,780.1,182.2,780.6,182.1 M779.5,158.3c4.3-1.2,8.6-2.2,13-3.1c-5,7.9-8.9,16.3-11.5,25.5c-0.7,0.2-1.4,0.4-2,0.6
		C777.3,173.2,777.1,165.8,779.5,158.3 M812.2,152.6c-9.6,7.5-18,16.3-24.7,26.4c-1.4,0.3-2.7,0.7-4.1,1.1
		c2.6-9.2,6.6-17.5,11.6-25.3C800.8,153.7,806.5,153,812.2,152.6 M833.4,141.1c2.4,0.2,4.8,0.4,7.2,0.6c-0.7,0.3-1.3,0.5-2,0.8
		c-5.9,2.5-11.5,5.4-16.8,8.7c-1.6,0-3.3,0.1-4.9,0.2C822.1,147.6,827.6,144.1,833.4,141.1 M882.9,152.7c-1.3,0.2-2.5,0.3-3.7,0.5
		c-4.6,0.6-9.3,1.4-13.9,2.4c-13.1-3.1-26.5-4.6-40-4.5c3.6-2.1,7.3-4,11.1-5.8c2.5-1.2,5.1-2.2,7.7-3.2
		C857.5,144,870.5,147.6,882.9,152.7 M943,155.3c25.4,27.1,38,61.4,39.2,99c-4.1-9.5-9.3-18.7-15.4-27.4
		c-16.7-32.6-44.7-58.7-78-73.7C906.3,151.4,925.6,151.3,943,155.3 M973.9,242.6c1.2,2.2,2.4,4.5,3.5,6.7c-0.7-0.9-1.4-1.9-2-2.8
		C974.9,245.2,974.4,243.9,973.9,242.6 M867.5,156.1c5-1,10-1.8,15-2.4c0.7-0.1,1.5-0.2,2.2-0.2c28.5,12.3,53.2,32.7,70.5,58.5
		c-10.3-12-22.1-22.6-34.4-31.3C904.5,169,886.4,160.9,867.5,156.1 M812.4,174.7c16.3-8.2,34-14.2,51.7-17.9
		c23.5,5.8,45.8,16.7,65.1,32.8c12.9,10.8,25.2,23.7,35.3,38.1c2.1,4.1,4,8.2,5.7,12.5C932.1,193.8,871.6,169,812.4,174.7
		 M784.2,192.6c-0.1,0-0.4,0-0.6,0.1c0,0-0.1,0-0.1-0.1c8.1-6.1,16.8-11.6,26-16.4c61.9-6.9,125.6,20.8,163.5,71.1
		c0.5,1.4,1,2.9,1.4,4.3c-9.7-7.8-20.9-14.2-31.6-20c-20.4-11.1-42.2-20.2-64.6-26.3c-21.4-5.8-45.1-9.3-67.4-6.7
		C801.8,196.2,792.9,194.2,784.2,192.6 M799.8,200.3c-3-1.8-6-3.4-9.1-4.9c5.3,1.1,10.6,2.3,15.9,3.7
		C804.3,199.4,802,199.9,799.8,200.3 M866.8,254.2c-11.7-12.8-25-24.2-38.7-34.5c-8.7-6.6-17.8-13.2-27.4-18.8
		c2.5-0.5,5.1-1,7.7-1.3c36.3,9.5,72,25.5,97.8,52.8c1.4,1.5,2.8,3,4.1,4.6C895.8,254.9,881.2,253.9,866.8,254.2 M798.1,201.5
		c24,13.3,46.5,32.6,64.8,51.9c0.3,0.3,0.6,0.6,0.9,1c-4.7,0.2-9.4,0.5-14.1,0.9c-17.1-21.3-37.8-41-53.2-53.4
		C796.9,201.7,797.5,201.6,798.1,201.5 M790.9,197.7c2.1,1,4.1,2.1,6.2,3.2c-0.5,0.1-1,0.3-1.5,0.4C794,200,792.4,198.8,790.9,197.7
		 M782.5,194.4c2.9,1.9,6.5,4.5,10.4,7.6c-3.3,1-6.5,2.1-9.7,3.4C783,201.8,782.7,198.1,782.5,194.4 M783.8,184.9
		c-0.6,0.7-1.2,1.4-1.7,2.1c-0.4,0.5-0.2,0.8,0.1,1c-0.3,0.6-0.6,1.2-0.9,1.7c0.5-2.9,1.1-5.7,1.8-8.4c1.2-0.3,2.3-0.6,3.5-0.9
		C785.6,181.9,784.7,183.4,783.8,184.9 M793.1,174.6c6.3-8.4,13.9-15.8,22.4-22.2c1.6-0.1,3.1-0.2,4.7-0.2
		C810.3,158.5,801.4,166.1,793.1,174.6 M782.8,191.5c1-2.1,2.1-4.2,3.2-6.2c1.8-2.1,3.6-4.1,5.4-6.2c5-1.1,10-2,15.1-2.7
		C798.1,181,790.2,186,782.8,191.5 M862,156.3c-18,4-35.9,10.2-52.5,18.7c-5.6,0.6-11.2,1.6-16.7,2.7c9.2-9.9,19.4-18.6,30.9-25.6
		C836.6,152,849.4,153.4,862,156.3 M881.1,275.2c1.9,2.7,3.6,5.4,5.2,8.2c-5,1.2-10,2.6-14.9,4.1c-1.3-2.5-2.7-5-4.3-7.6
		C871.7,278.2,876.4,276.6,881.1,275.2 M866.4,278.9c-4.5-7.4-9.9-14.8-15.6-22.1c4.8-0.4,9.6-0.7,14.5-0.8
		c5.2,5.6,10.4,11.6,15.1,18.1C875.7,275.5,871,277.1,866.4,278.9 M915.3,259.4c12.2,1.8,24.4,4.3,36.4,7.1c0.2,0.3,0.3,0.5,0.5,0.8
		c-10.5-1.1-21.1-1.3-31.6-0.5C918.9,264.3,917.2,261.8,915.3,259.4 M917.8,267c-12,1-23.9,3.2-35.4,6.5c-0.3-0.4-0.5-0.8-0.8-1.1
		c-4.1-5.7-8.5-11.2-13.2-16.4c14.5-0.1,29.1,1,43.6,3C914.1,261.6,916,264.3,917.8,267 M971.2,166.9c1.2-0.8,2-2,2.1-3.6
		c0,0,0,0,0-0.1c0,0,0-0.1,0-0.1c-0.3-6.1-10.2-5.2-10.2,0.6c0,3.5,3.1,4.7,5.9,4.1c13.1,25,19.5,54.1,15.5,82.3
		c-1.8-35.5-14-68-37.6-93.9c3.1,0.8,6.1,1.8,9,2.9c0.6,0.2,2.7-0.7,1.9-1c-4.1-1.6-8.4-2.8-12.7-3.8c-2.8-3-5.8-5.9-8.9-8.7
		c0.5-0.7,0.8-1.5,0.8-2.4c-0.3-6.3-10.2-6-10.3,0.2c-0.1,4.5,4.9,5.6,7.9,3.7c2.3,2.1,4.5,4.3,6.7,6.5c-17.7-3.5-36.8-3.1-54.4-1.2
		c-12.4-5.4-25.5-9.3-39.1-11.4c21.9-7.4,45.6-8.9,68.7-6.7c1.1,7.9,14,7.1,14.4-1.4c-0.5-8.9-13.7-8.8-14.5-0.4
		c-24.3-2.2-49.3-0.4-72.2,8c-2.5-0.3-5.1-0.6-7.7-0.8c22.7-11.3,48.8-16.5,73.2-15c1.2,0.1,2.4-1.6,0.8-1.7
		c-25.9-1.6-53.6,4.2-77.4,16.5c-4.8-0.3-9.7-0.4-14.6-0.2c-1.4,0-1.8,1.9-0.2,1.8c3.9-0.1,7.8-0.1,11.7,0.1
		c-5.8,3.2-11.3,6.8-16.5,10.7c-6,0.4-11.9,1.2-17.8,2.2c4.3-6.6,9.4-12.9,14.9-18.9c3,1.5,7.8-0.1,8-4.2
		c-0.3-6.3-10.2-5.9-10.3,0.2c0,1.2,0.3,2.2,0.9,2.9c-6,6.5-11.5,13.3-16.2,20.5c-4.4,0.9-8.9,1.9-13.2,3.1c1-2.8,2.3-5.6,4.1-8.5
		c2.9,1.4,7.9-0.4,8.1-4.2c-0.3-6-10.2-4.9-10.2,0.6c0,1,0.3,1.7,0.7,2.3c-2.3,3.5-4,7-5.1,10.4c-2,0.6-3.9,1.2-5.9,1.8
		c-1.6,0.5-0.1,0.9,0.8,0.6c1.6-0.5,3.2-1,4.8-1.5c-2.3,7.5-2.1,15-0.4,23.1c-1.4,0.5-2.8,0.9-4.2,1.4c-0.7-1.4-2.2-2.4-3.9-2.4
		c-2.4,0-4.4,2-4.4,4.4c0,2.4,2,4.4,4.4,4.4c2.4,0,4.4-2,4.4-4.4c0-0.3,0-0.6-0.1-0.8c1.3-0.5,2.7-0.9,4.1-1.4
		c0.5,2.5,1.2,5.1,2,7.7c0,0,0,0,0,0c0.1,0.5,0.3,1,0.4,1.5c0,0.1,0.1,0.2,0.2,0.2c-7,0.8-13.6,1.9-19.7,5.9
		c-10.4,6.8-15.8,19.3-15.2,31.5c0,0.4,2.4,0,2.4-0.6c-0.6-10,3-20.2,10.2-27.2c6.4-6.2,14-7.9,22.4-8.7
		c-4.3,6.3-7.9,12.9-10.6,19.6c-2.8,1.8-5.5,3.8-8.1,6.1c-3.8-2.5-10.2-0.7-10.3,5c-0.1,8.2,12.6,7.7,13-0.2c-0.1-1.7-0.7-3-1.7-4
		c2.1-1.8,4.2-3.5,6.4-5.1c-7.5,19.6-8,40.5-0.8,61.6c-1.3,0.8-2.3,2.1-2.3,4c-0.1,6.4,9.9,5.9,10.3-0.2c-0.2-3.3-3-4.8-5.6-4.6
		c-0.5-1.5-1-3-1.4-4.5c3.1,4,11.4,2.5,11.8-3.9c-0.2-4.6-4.4-6.4-7.9-5.7c-4.2-17.2-2.7-34.9,3.1-51.4c1.9-1.1,3.8-2,5.7-2.9
		c2,23.3,6.9,45.3,14.7,66.4c-9.9,8.9-15.1,21.4-11.8,38.8c0.2,0.9,2.5,0.3,2.4-0.6c-3.1-16.3,1.5-28,10.2-36.3
		c5.6,14.7,12.7,29.1,21.4,43.1c-4.4,4.6-8.2,9.8-11.4,15.4c-0.7,1.2,1.7,1.3,2.3,0.3c2.8-5.1,6.3-9.8,10.2-14.1
		c0.2,0.3,0.4,0.7,0.6,1c-1.1,0.8-1.8,2-1.8,3.5c0,6.1,9.9,4.9,10.2-0.6c-0.2-3.4-3.5-4.6-6.3-3.9c-0.4-0.6-0.7-1.2-1.1-1.8
		c13.1-13.5,30.8-22.7,49.4-28.9c11.4,22,13.6,42.1-4,53c-2.2-0.2-4.5-0.7-6.7-1.3c0.1-0.3,0.1-0.5,0.1-0.8
		c-0.3-6.3-10.2-5.9-10.3,0.2c-0.1,5.3,6.7,5.8,9.3,2.4c1.6,0.5,3.1,0.9,4.7,1.2c-4.8,2.4-10.7,4.3-18,5.5c-1.2,0.2-1.9,1.9-0.2,1.6
		c8.6-1.4,15.5-3.7,20.8-6.7c13.2,1.6,25.5-3.5,30.3-18.7c4.6-14.5,0.4-28.9-6.6-41.7c6.1-1.4,12.1-2.4,18-3.3
		c0.7,5.6,7.7,6.5,11.4,3.3c3.2,1.5,6.4,3.4,9.4,5.5c4.2,17,1.3,34.9-10,52.9c-0.6,0.9,1.8,0.7,2.2,0c10.7-17.1,14-34.3,10.8-50.7
		c10.6,8.4,17.8,20.4,11.7,34.2c-0.5,1.2,1.8,1.2,2.3,0.3c6.9-15.5-2.3-28.8-14.7-37.7c-0.8-3.3-1.9-6.6-3.3-9.8
		c10.2-0.7,20.5-0.7,30.7,0c3.2,9.3,4.3,19.4,2.7,29.8c-0.1,0.7,2.2,0.3,2.3-0.4c1.5-10.2,0.6-20.1-2.4-29.2
		c5.8,0.5,11.6,1.2,17.3,2.2c1.2,0.2,2.4-1.5,0.8-1.8c-6.2-1.1-12.5-1.9-18.8-2.4c-1-2.8-2.2-5.5-3.7-8.1c8,1.1,15.9,2.7,23.8,4.8
		c0.5,0.7,2.4,0.2,2.2-0.9c-0.8-5-1.8-10-3.1-14.9c0.9,0.9,1.9,1.8,2.8,2.8c0.2,0.2,0.5,0.1,1,0c0.5,0.4,2,0.1,2.2-0.7
		C992.5,228.8,986,195.2,971.2,166.9"/>
</g>
<g>
	<path class="st2" d="M568,397.3c0,0.8,0.1,1.5,0.2,2.1c0.1,0.6,0.4,1.2,0.7,1.6c0.3,0.4,0.8,0.8,1.4,1c0.6,0.2,1.3,0.4,2.1,0.4
		c1,0,1.9-0.3,2.7-1c0.8-0.7,1.2-1.7,1.2-3.1c0-0.7-0.1-1.4-0.3-1.9c-0.2-0.5-0.5-1-1-1.5s-1.1-0.8-1.8-1.2
		c-0.8-0.4-1.7-0.7-2.8-1.1c-1.5-0.5-2.8-1-3.8-1.6c-1.1-0.6-2-1.3-2.7-2.1c-0.7-0.8-1.3-1.7-1.6-2.7c-0.3-1-0.5-2.2-0.5-3.6
		c0-3.3,0.9-5.7,2.7-7.3c1.8-1.6,4.3-2.4,7.5-2.4c1.5,0,2.8,0.2,4.1,0.5c1.2,0.3,2.3,0.8,3.2,1.6c0.9,0.7,1.6,1.6,2.1,2.8
		c0.5,1.1,0.8,2.5,0.8,4v0.9h-6.4c0-1.6-0.3-2.8-0.8-3.6c-0.6-0.8-1.5-1.3-2.8-1.3c-0.7,0-1.4,0.1-1.8,0.3c-0.5,0.2-0.9,0.5-1.2,0.9
		c-0.3,0.4-0.5,0.8-0.6,1.2c-0.1,0.5-0.2,0.9-0.2,1.4c0,1,0.2,1.9,0.6,2.6c0.4,0.7,1.4,1.3,2.8,1.9l5.1,2.2c1.3,0.6,2.3,1.1,3.1,1.7
		c0.8,0.6,1.4,1.2,1.9,1.9c0.5,0.7,0.8,1.5,1,2.3c0.2,0.8,0.3,1.8,0.3,2.8c0,3.5-1,6-3,7.6c-2,1.6-4.8,2.4-8.4,2.4
		c-3.8,0-6.4-0.8-8.1-2.4s-2.4-4-2.4-7v-1.3h6.7V397.3z"/>
	<path class="st2" d="M587.6,410c1.2,0,2-0.3,2.5-0.9c0.5-0.6,0.8-1.4,0.9-2.4l-7-24.9h6.7l3.7,17.2h0.1l3.2-17.2h6.4l-6,23.2
		c-0.6,2.1-1.1,3.7-1.6,5s-1.1,2.3-1.8,3c-0.7,0.7-1.5,1.1-2.5,1.4c-1,0.2-2.2,0.3-3.7,0.3h-2.6v-4.8C586.5,410,587,410,587.6,410z"
		/>
	<path class="st2" d="M610.6,399.4c0,1.1,0.3,1.9,0.9,2.6c0.6,0.7,1.4,1,2.5,1c1,0,1.8-0.2,2.4-0.7c0.6-0.5,0.9-1.2,0.9-2.2
		c0-0.8-0.2-1.4-0.7-1.8s-1-0.7-1.6-1l-4.5-1.6c-1.8-0.6-3.1-1.5-4-2.6c-0.9-1.1-1.3-2.6-1.3-4.3c0-1,0.2-2,0.5-2.9
		c0.3-0.9,0.9-1.7,1.6-2.4s1.7-1.2,2.8-1.6c1.2-0.4,2.5-0.6,4.2-0.6c2.9,0,5,0.6,6.4,1.8c1.4,1.2,2.1,3,2.1,5.2v1H617
		c0-1.3-0.2-2.2-0.6-2.8c-0.4-0.6-1.1-0.9-2.2-0.9c-0.8,0-1.5,0.2-2.1,0.7c-0.6,0.4-0.9,1.1-0.9,2c0,0.6,0.2,1.2,0.6,1.7
		c0.4,0.5,1.1,0.9,2.2,1.2l3.8,1.3c2,0.7,3.4,1.6,4.3,2.7s1.2,2.6,1.2,4.5c0,1.3-0.2,2.5-0.7,3.4c-0.5,1-1.1,1.8-1.9,2.4
		c-0.8,0.6-1.8,1.1-2.9,1.4c-1.1,0.3-2.4,0.4-3.7,0.4c-1.8,0-3.3-0.2-4.5-0.5c-1.2-0.3-2.1-0.8-2.8-1.5c-0.7-0.7-1.2-1.5-1.5-2.5
		c-0.3-1-0.4-2.1-0.4-3.3v-0.9h5.7V399.4z"/>
	<path class="st2" d="M633.8,374.7v7.1h3.7v4.3h-3.7v13.4c0,1,0.1,1.7,0.4,2.1c0.3,0.4,0.9,0.6,1.8,0.6c0.2,0,0.5,0,0.7,0
		c0.2,0,0.5,0,0.7-0.1v4.4c-0.7,0-1.4,0-2.1,0.1c-0.7,0-1.4,0.1-2.1,0.1c-1.2,0-2.2-0.1-3-0.3s-1.4-0.5-1.8-1
		c-0.4-0.5-0.7-1.2-0.9-2c-0.2-0.8-0.2-1.9-0.2-3.1v-14.2h-3.2v-4.3h3.2v-7.1H633.8z"/>
	<path class="st2" d="M644.7,397.2c0,0.7,0.1,1.5,0.2,2.1c0.1,0.7,0.3,1.3,0.5,1.8c0.2,0.5,0.6,1,1,1.3s0.9,0.5,1.5,0.5
		c1.1,0,1.9-0.4,2.4-1.2c0.5-0.8,0.8-1.9,1-3.5h5.7c-0.1,2.9-0.9,5.1-2.3,6.6c-1.4,1.5-3.7,2.3-6.7,2.3c-2.3,0-4.1-0.4-5.4-1.2
		c-1.3-0.8-2.2-1.8-2.9-3c-0.6-1.3-1-2.7-1.1-4.3s-0.2-3.1-0.2-4.7c0-1.7,0.1-3.3,0.3-4.8c0.2-1.5,0.7-2.9,1.4-4.1
		c0.7-1.2,1.7-2.2,3-2.9c1.3-0.7,3-1.1,5.2-1.1c1.8,0,3.4,0.3,4.6,0.9c1.2,0.6,2.1,1.4,2.8,2.5c0.7,1.1,1.1,2.4,1.4,4
		c0.2,1.6,0.4,3.3,0.4,5.2v1.4h-12.6V397.2z M651,388.9c-0.1-0.7-0.3-1.3-0.5-1.8c-0.2-0.5-0.6-0.9-1-1.2c-0.4-0.3-0.9-0.4-1.6-0.4
		c-0.6,0-1.2,0.1-1.6,0.4c-0.4,0.3-0.7,0.7-1,1.2c-0.2,0.5-0.4,1-0.5,1.6c-0.1,0.6-0.2,1.2-0.2,1.8v1h6.5
		C651.2,390.5,651.1,389.6,651,388.9z"/>
	<path class="st2" d="M666.3,381.8v2.5h0.1c0.8-1.1,1.7-2,2.7-2.4c1-0.5,2.2-0.7,3.6-0.7c1.5,0,2.7,0.3,3.7,1c1,0.7,1.7,1.7,2,3h0.1
		c0.5-1.3,1.3-2.3,2.4-3c1.1-0.7,2.4-1,3.9-1c2.1,0,3.7,0.6,4.7,1.9c1,1.3,1.5,3.1,1.5,5.5v18.1h-6.4v-17.4c0-1-0.2-1.8-0.6-2.4
		c-0.4-0.6-1-0.8-1.9-0.8c-1,0-1.8,0.3-2.4,1c-0.6,0.7-0.9,1.8-0.9,3.2v16.4h-6.4v-17.4c0-1-0.2-1.8-0.6-2.4c-0.4-0.6-1-0.8-1.9-0.8
		c-1,0-1.8,0.3-2.4,1c-0.6,0.7-0.9,1.8-0.9,3.2v16.4h-6.4v-24.9H666.3z"/>
	<path class="st2" d="M694.7,388.8c0-1.4,0.2-2.7,0.7-3.6c0.5-1,1.1-1.8,1.9-2.4s1.7-1,2.8-1.3c1.1-0.3,2.2-0.4,3.4-0.4
		c1.9,0,3.4,0.2,4.6,0.6c1.2,0.4,2.1,0.9,2.7,1.6c0.6,0.7,1.1,1.5,1.3,2.4c0.2,0.9,0.3,2,0.3,3.1v13.1c0,1.2,0.1,2.1,0.2,2.7
		c0.1,0.6,0.3,1.3,0.6,2.1h-6.1c-0.2-0.4-0.4-0.8-0.5-1.3s-0.2-0.9-0.3-1.3h-0.1c-0.7,1.3-1.6,2.1-2.6,2.5s-2.2,0.6-3.8,0.6
		c-1.1,0-2-0.2-2.8-0.6c-0.8-0.4-1.4-0.9-1.8-1.6c-0.5-0.7-0.8-1.4-1-2.3c-0.2-0.8-0.3-1.7-0.3-2.5c0-1.2,0.1-2.2,0.4-3
		c0.2-0.8,0.6-1.6,1.1-2.2s1.2-1.1,1.9-1.5c0.8-0.4,1.7-0.8,2.8-1.1l3.6-1c1-0.2,1.6-0.6,2-1c0.4-0.4,0.6-1.1,0.6-1.9
		c0-1-0.2-1.7-0.7-2.2c-0.4-0.5-1.2-0.8-2.3-0.8c-1,0-1.7,0.3-2.2,0.9c-0.5,0.6-0.7,1.4-0.7,2.4v0.7h-5.7V388.8z M705,395
		c-0.5,0.2-0.9,0.3-1.3,0.4c-1.3,0.3-2.2,0.7-2.8,1.4c-0.6,0.6-0.8,1.5-0.8,2.6c0,1,0.2,1.8,0.6,2.4c0.4,0.7,1,1,1.8,1
		c0.4,0,0.9-0.1,1.3-0.2s0.9-0.4,1.3-0.7c0.4-0.3,0.7-0.7,0.9-1.2c0.2-0.5,0.4-1.1,0.4-1.8v-4.9C705.9,394.6,705.4,394.8,705,395z"
		/>
	<path class="st2" d="M724.3,374.7v7.1h3.7v4.3h-3.7v13.4c0,1,0.1,1.7,0.4,2.1c0.3,0.4,0.9,0.6,1.8,0.6c0.2,0,0.5,0,0.7,0
		c0.2,0,0.5,0,0.7-0.1v4.4c-0.7,0-1.4,0-2.1,0.1c-0.7,0-1.4,0.1-2.1,0.1c-1.2,0-2.2-0.1-3-0.3s-1.4-0.5-1.8-1
		c-0.4-0.5-0.7-1.2-0.9-2c-0.2-0.8-0.2-1.9-0.2-3.1v-14.2h-3.2v-4.3h3.2v-7.1H724.3z"/>
	<path class="st2" d="M736.3,373.3v5.5h-6.4v-5.5H736.3z M736.3,381.8v24.9h-6.4v-24.9H736.3z"/>
	<path class="st2" d="M752.2,389c-0.1-0.6-0.2-1.1-0.4-1.6c-0.2-0.5-0.5-0.9-0.9-1.2s-0.9-0.4-1.5-0.4c-0.8,0-1.4,0.2-1.9,0.5
		c-0.5,0.4-0.9,0.9-1.1,1.6c-0.2,0.7-0.4,1.6-0.5,2.6s-0.1,2.3-0.1,3.8c0,1.5,0,2.9,0.1,4c0.1,1.1,0.3,2,0.5,2.7
		c0.2,0.7,0.6,1.2,1,1.5c0.4,0.3,1,0.5,1.7,0.5c1.1,0,1.9-0.5,2.4-1.4c0.5-0.9,0.7-2.4,0.7-4.4h6.1c0,3.3-0.7,5.8-2.2,7.5
		c-1.5,1.7-3.9,2.6-7.3,2.6c-1.6,0-3-0.2-4.2-0.6c-1.2-0.4-2.2-1.1-3-2.1c-0.8-1-1.4-2.3-1.8-4s-0.6-3.8-0.6-6.3
		c0-2.6,0.2-4.7,0.7-6.4c0.5-1.7,1.2-3,2.1-4c0.9-1,2-1.7,3.2-2.1c1.2-0.4,2.6-0.6,4.1-0.6c3,0,5.2,0.9,6.7,2.6
		c1.5,1.7,2.2,4.1,2.2,7h-6.1C752.3,390.1,752.3,389.5,752.2,389z"/>
	<path class="st2" d="M771.7,383.3c0.2-2.1,0.7-3.9,1.5-5.4c0.8-1.5,1.9-2.7,3.4-3.5c1.5-0.8,3.5-1.3,6-1.3c2.5,0,4.5,0.4,6,1.3
		c1.5,0.8,2.6,2,3.4,3.5c0.8,1.5,1.3,3.3,1.5,5.4s0.3,4.4,0.3,6.9c0,2.5-0.1,4.8-0.3,6.9s-0.7,3.9-1.5,5.4c-0.8,1.5-1.9,2.7-3.4,3.5
		s-3.5,1.2-6,1.2c-2.5,0-4.5-0.4-6-1.2c-1.5-0.8-2.6-2-3.4-3.5c-0.8-1.5-1.3-3.3-1.5-5.4s-0.3-4.4-0.3-6.9
		C771.4,387.7,771.5,385.4,771.7,383.3z M778.2,395.8c0.1,1.6,0.3,2.8,0.6,3.8c0.3,1,0.8,1.7,1.4,2.1c0.6,0.4,1.4,0.7,2.4,0.7
		s1.8-0.2,2.4-0.7c0.6-0.4,1.1-1.2,1.4-2.1c0.3-1,0.5-2.2,0.6-3.8c0.1-1.6,0.2-3.4,0.2-5.7s-0.1-4.1-0.2-5.6s-0.3-2.8-0.6-3.8
		c-0.3-1-0.8-1.7-1.4-2.1c-0.6-0.4-1.4-0.7-2.4-0.7s-1.8,0.2-2.4,0.7c-0.6,0.4-1.1,1.2-1.4,2.1c-0.3,1-0.5,2.2-0.6,3.8
		s-0.2,3.4-0.2,5.6S778.1,394.3,778.2,395.8z"/>
	<path class="st2" d="M803.5,373.7v10.4h0.1c0.7-1,1.4-1.7,2.3-2.2c0.8-0.5,1.9-0.7,3.1-0.7c2.6,0,4.5,1,5.8,3.1
		c1.2,2,1.8,5.4,1.8,10c0,4.6-0.6,7.9-1.8,9.9c-1.2,2-3.2,3-5.8,3c-1.3,0-2.4-0.2-3.3-0.7s-1.7-1.3-2.4-2.4h-0.1v2.6h-6.1v-33H803.5
		z M804.1,400.4c0.4,1.4,1.3,2.1,2.7,2.1c1.4,0,2.3-0.7,2.7-2.1c0.4-1.4,0.6-3.4,0.6-6.1s-0.2-4.8-0.6-6.1c-0.4-1.4-1.3-2.1-2.7-2.1
		c-1.4,0-2.3,0.7-2.7,2.1c-0.4,1.4-0.6,3.4-0.6,6.1S803.7,399,804.1,400.4z"/>
	<path class="st2" d="M824.4,399.4c0,1.1,0.3,1.9,0.9,2.6c0.6,0.7,1.4,1,2.5,1c1,0,1.8-0.2,2.4-0.7c0.6-0.5,0.9-1.2,0.9-2.2
		c0-0.8-0.2-1.4-0.7-1.8s-1-0.7-1.6-1l-4.5-1.6c-1.8-0.6-3.1-1.5-4-2.6c-0.9-1.1-1.3-2.6-1.3-4.3c0-1,0.2-2,0.5-2.9
		c0.3-0.9,0.9-1.7,1.6-2.4s1.7-1.2,2.8-1.6c1.2-0.4,2.5-0.6,4.2-0.6c2.9,0,5,0.6,6.4,1.8c1.4,1.2,2.1,3,2.1,5.2v1h-5.7
		c0-1.3-0.2-2.2-0.6-2.8c-0.4-0.6-1.1-0.9-2.2-0.9c-0.8,0-1.5,0.2-2.1,0.7c-0.6,0.4-0.9,1.1-0.9,2c0,0.6,0.2,1.2,0.6,1.7
		c0.4,0.5,1.1,0.9,2.2,1.2l3.8,1.3c2,0.7,3.4,1.6,4.3,2.7s1.2,2.6,1.2,4.5c0,1.3-0.2,2.5-0.7,3.4c-0.5,1-1.1,1.8-1.9,2.4
		c-0.8,0.6-1.8,1.1-2.9,1.4c-1.1,0.3-2.4,0.4-3.7,0.4c-1.8,0-3.3-0.2-4.5-0.5c-1.2-0.3-2.1-0.8-2.8-1.5c-0.7-0.7-1.2-1.5-1.5-2.5
		c-0.3-1-0.4-2.1-0.4-3.3v-0.9h5.7V399.4z"/>
	<path class="st2" d="M845.3,397.2c0,0.7,0.1,1.5,0.2,2.1c0.1,0.7,0.3,1.3,0.5,1.8c0.2,0.5,0.6,1,1,1.3s0.9,0.5,1.5,0.5
		c1.1,0,1.9-0.4,2.4-1.2c0.5-0.8,0.8-1.9,1-3.5h5.7c-0.1,2.9-0.9,5.1-2.3,6.6c-1.4,1.5-3.7,2.3-6.7,2.3c-2.3,0-4.1-0.4-5.4-1.2
		c-1.3-0.8-2.2-1.8-2.9-3c-0.6-1.3-1-2.7-1.1-4.3s-0.2-3.1-0.2-4.7c0-1.7,0.1-3.3,0.3-4.8c0.2-1.5,0.7-2.9,1.4-4.1
		c0.7-1.2,1.7-2.2,3-2.9c1.3-0.7,3-1.1,5.2-1.1c1.8,0,3.4,0.3,4.6,0.9c1.2,0.6,2.1,1.4,2.8,2.5c0.7,1.1,1.1,2.4,1.4,4
		c0.2,1.6,0.4,3.3,0.4,5.2v1.4h-12.6V397.2z M851.6,388.9c-0.1-0.7-0.3-1.3-0.5-1.8c-0.2-0.5-0.6-0.9-1-1.2
		c-0.4-0.3-0.9-0.4-1.6-0.4c-0.6,0-1.2,0.1-1.6,0.4c-0.4,0.3-0.7,0.7-1,1.2c-0.2,0.5-0.4,1-0.5,1.6c-0.1,0.6-0.2,1.2-0.2,1.8v1h6.5
		C851.8,390.5,851.7,389.6,851.6,388.9z"/>
	<path class="st2" d="M866.9,381.8v3.3h0.1c0.6-1.2,1.4-2.2,2.4-2.9c0.9-0.7,2-1.1,3.4-1.1c0.2,0,0.4,0,0.6,0c0.2,0,0.4,0,0.6,0.1
		v6.1c-0.3,0-0.7-0.1-1-0.1s-0.7,0-1,0c-0.6,0-1.1,0.1-1.7,0.2c-0.6,0.2-1.1,0.4-1.5,0.8c-0.5,0.4-0.8,0.8-1.1,1.4
		c-0.3,0.6-0.4,1.3-0.4,2.1v14.9h-6.4v-24.9H866.9z"/>
	<path class="st2" d="M894.7,381.8l-6.2,24.9H881l-6.4-24.9h6.7l3.6,17.8h0.1l3.4-17.8H894.7z"/>
	<path class="st2" d="M896.5,388.8c0-1.4,0.2-2.7,0.7-3.6c0.5-1,1.1-1.8,1.9-2.4s1.7-1,2.8-1.3c1.1-0.3,2.2-0.4,3.4-0.4
		c1.9,0,3.4,0.2,4.6,0.6c1.2,0.4,2.1,0.9,2.7,1.6c0.6,0.7,1.1,1.5,1.3,2.4c0.2,0.9,0.3,2,0.3,3.1v13.1c0,1.2,0.1,2.1,0.2,2.7
		c0.1,0.6,0.3,1.3,0.6,2.1h-6.1c-0.2-0.4-0.4-0.8-0.5-1.3s-0.2-0.9-0.3-1.3h-0.1c-0.7,1.3-1.6,2.1-2.6,2.5s-2.2,0.6-3.8,0.6
		c-1.1,0-2-0.2-2.8-0.6c-0.8-0.4-1.4-0.9-1.8-1.6c-0.5-0.7-0.8-1.4-1-2.3c-0.2-0.8-0.3-1.7-0.3-2.5c0-1.2,0.1-2.2,0.4-3
		c0.2-0.8,0.6-1.6,1.1-2.2s1.2-1.1,1.9-1.5c0.8-0.4,1.7-0.8,2.8-1.1l3.6-1c1-0.2,1.6-0.6,2-1c0.4-0.4,0.6-1.1,0.6-1.9
		c0-1-0.2-1.7-0.7-2.2c-0.4-0.5-1.2-0.8-2.3-0.8c-1,0-1.7,0.3-2.2,0.9c-0.5,0.6-0.7,1.4-0.7,2.4v0.7h-5.7V388.8z M906.8,395
		c-0.5,0.2-0.9,0.3-1.3,0.4c-1.3,0.3-2.2,0.7-2.8,1.4c-0.6,0.6-0.8,1.5-0.8,2.6c0,1,0.2,1.8,0.6,2.4c0.4,0.7,1,1,1.8,1
		c0.4,0,0.9-0.1,1.3-0.2s0.9-0.4,1.3-0.7c0.4-0.3,0.7-0.7,0.9-1.2c0.2-0.5,0.4-1.1,0.4-1.8v-4.9C907.7,394.6,907.3,394.8,906.8,395z
		"/>
	<path class="st2" d="M926.1,374.7v7.1h3.7v4.3h-3.7v13.4c0,1,0.1,1.7,0.4,2.1c0.3,0.4,0.9,0.6,1.8,0.6c0.2,0,0.5,0,0.7,0
		c0.2,0,0.5,0,0.7-0.1v4.4c-0.7,0-1.4,0-2.1,0.1c-0.7,0-1.4,0.1-2.1,0.1c-1.2,0-2.2-0.1-3-0.3s-1.4-0.5-1.8-1
		c-0.4-0.5-0.7-1.2-0.9-2c-0.2-0.8-0.2-1.9-0.2-3.1v-14.2h-3.2v-4.3h3.2v-7.1H926.1z"/>
	<path class="st2" d="M938.1,373.3v5.5h-6.4v-5.5H938.1z M938.1,381.8v24.9h-6.4v-24.9H938.1z"/>
	<path class="st2" d="M941.8,388.6c0.3-1.6,0.9-3,1.7-4.1c0.8-1.1,1.8-1.9,3-2.5c1.2-0.6,2.8-0.9,4.6-0.9c1.9,0,3.5,0.2,4.8,0.8
		c1.3,0.5,2.3,1.4,3,2.5c0.7,1.1,1.3,2.5,1.6,4.1c0.3,1.6,0.5,3.5,0.5,5.7c0,2.1-0.2,4-0.5,5.6s-0.9,3-1.7,4.1
		c-0.8,1.1-1.8,1.9-3,2.4s-2.8,0.8-4.6,0.8c-1.9,0-3.5-0.2-4.8-0.7c-1.3-0.5-2.3-1.3-3-2.4c-0.7-1.1-1.3-2.5-1.6-4.1
		c-0.3-1.6-0.5-3.5-0.5-5.7C941.3,392.1,941.5,390.2,941.8,388.6z M947.8,397.7c0.1,1.1,0.2,2,0.4,2.8c0.2,0.8,0.6,1.4,1,1.8
		s1.1,0.6,1.8,0.6c1.3,0,2.2-0.7,2.7-2c0.5-1.4,0.7-3.6,0.7-6.7s-0.2-5.3-0.7-6.7c-0.5-1.4-1.4-2-2.7-2c-0.8,0-1.4,0.2-1.8,0.6
		s-0.8,1-1,1.8c-0.2,0.8-0.4,1.7-0.4,2.8c-0.1,1.1-0.1,2.2-0.1,3.5S947.7,396.7,947.8,397.7z"/>
	<path class="st2" d="M970,381.8v2.9h0.1c0.7-1.2,1.6-2.1,2.6-2.7c1.1-0.6,2.3-0.9,3.7-0.9c2,0,3.6,0.6,4.7,1.7
		c1.1,1.1,1.6,2.9,1.6,5.4v18.4h-6.4v-17.1c0-1.3-0.2-2.2-0.6-2.7c-0.4-0.5-1.1-0.8-2.1-0.8c-2.2,0-3.4,1.4-3.4,4.1v16.5h-6.4v-24.9
		H970z"/>
	<path class="st2" d="M991.2,399.4c0,1.1,0.3,1.9,0.9,2.6s1.4,1,2.5,1c1,0,1.8-0.2,2.4-0.7c0.6-0.5,0.9-1.2,0.9-2.2
		c0-0.8-0.2-1.4-0.7-1.8s-1-0.7-1.6-1l-4.5-1.6c-1.8-0.6-3.1-1.5-4-2.6c-0.9-1.1-1.3-2.6-1.3-4.3c0-1,0.2-2,0.5-2.9
		c0.3-0.9,0.9-1.7,1.6-2.4s1.7-1.2,2.8-1.6s2.5-0.6,4.2-0.6c2.9,0,5,0.6,6.4,1.8c1.4,1.2,2.1,3,2.1,5.2v1h-5.7
		c0-1.3-0.2-2.2-0.6-2.8c-0.4-0.6-1.1-0.9-2.2-0.9c-0.8,0-1.5,0.2-2.1,0.7c-0.6,0.4-0.9,1.1-0.9,2c0,0.6,0.2,1.2,0.6,1.7
		c0.4,0.5,1.1,0.9,2.2,1.2l3.8,1.3c2,0.7,3.4,1.6,4.3,2.7c0.8,1.1,1.2,2.6,1.2,4.5c0,1.3-0.2,2.5-0.7,3.4c-0.5,1-1.1,1.8-1.9,2.4
		c-0.8,0.6-1.8,1.1-2.9,1.4c-1.1,0.3-2.4,0.4-3.7,0.4c-1.8,0-3.3-0.2-4.5-0.5c-1.2-0.3-2.1-0.8-2.8-1.5c-0.7-0.7-1.2-1.5-1.5-2.5
		c-0.3-1-0.4-2.1-0.4-3.3v-0.9h5.7V399.4z"/>
	<path class="st2" d="M1035.8,373.7v5.5H1024v7.8h11.1v5.5H1024v14.3h-6.7v-33H1035.8z"/>
	<path class="st2" d="M1043.9,373.3v5.5h-6.4v-5.5H1043.9z M1043.9,381.8v24.9h-6.4v-24.9H1043.9z"/>
	<path class="st2" d="M1054,381.8v2.9h0.1c0.7-1.2,1.6-2.1,2.6-2.7c1.1-0.6,2.3-0.9,3.7-0.9c2,0,3.6,0.6,4.7,1.7
		c1.1,1.1,1.6,2.9,1.6,5.4v18.4h-6.4v-17.1c0-1.3-0.2-2.2-0.6-2.7c-0.4-0.5-1.1-0.8-2.1-0.8c-2.2,0-3.4,1.4-3.4,4.1v16.5h-6.4v-24.9
		H1054z"/>
	<path class="st2" d="M1070.5,388.8c0-1.4,0.2-2.7,0.7-3.6c0.5-1,1.1-1.8,1.9-2.4s1.7-1,2.8-1.3s2.2-0.4,3.4-0.4
		c1.9,0,3.5,0.2,4.6,0.6c1.2,0.4,2.1,0.9,2.7,1.6c0.6,0.7,1.1,1.5,1.3,2.4c0.2,0.9,0.3,2,0.3,3.1v13.1c0,1.2,0.1,2.1,0.2,2.7
		c0.1,0.6,0.3,1.3,0.6,2.1h-6.1c-0.2-0.4-0.4-0.8-0.5-1.3c-0.1-0.4-0.2-0.9-0.3-1.3h-0.1c-0.7,1.3-1.6,2.1-2.6,2.5
		c-1,0.4-2.2,0.6-3.8,0.6c-1.1,0-2-0.2-2.8-0.6s-1.4-0.9-1.8-1.6s-0.8-1.4-1-2.3c-0.2-0.8-0.3-1.7-0.3-2.5c0-1.2,0.1-2.2,0.4-3
		c0.2-0.8,0.6-1.6,1.1-2.2c0.5-0.6,1.2-1.1,1.9-1.5c0.8-0.4,1.7-0.8,2.8-1.1l3.6-1c1-0.2,1.6-0.6,2-1c0.4-0.4,0.6-1.1,0.6-1.9
		c0-1-0.2-1.7-0.7-2.2c-0.4-0.5-1.2-0.8-2.3-0.8c-1,0-1.7,0.3-2.2,0.9c-0.5,0.6-0.7,1.4-0.7,2.4v0.7h-5.7V388.8z M1080.8,395
		c-0.5,0.2-0.9,0.3-1.3,0.4c-1.3,0.3-2.2,0.7-2.8,1.4c-0.6,0.6-0.8,1.5-0.8,2.6c0,1,0.2,1.8,0.6,2.4c0.4,0.7,1,1,1.8,1
		c0.4,0,0.9-0.1,1.3-0.2c0.5-0.1,0.9-0.4,1.3-0.7c0.4-0.3,0.7-0.7,0.9-1.2c0.2-0.5,0.4-1.1,0.4-1.8v-4.9
		C1081.7,394.6,1081.3,394.8,1080.8,395z"/>
	<path class="st2" d="M1098.4,381.8v2.9h0.1c0.7-1.2,1.6-2.1,2.6-2.7c1.1-0.6,2.3-0.9,3.7-0.9c2,0,3.6,0.6,4.7,1.7
		c1.1,1.1,1.6,2.9,1.6,5.4v18.4h-6.4v-17.1c0-1.3-0.2-2.2-0.6-2.7c-0.4-0.5-1.1-0.8-2.1-0.8c-2.2,0-3.4,1.4-3.4,4.1v16.5h-6.4v-24.9
		H1098.4z"/>
	<path class="st2" d="M1126.8,389c-0.1-0.6-0.2-1.1-0.4-1.6c-0.2-0.5-0.5-0.9-0.9-1.2c-0.4-0.3-0.9-0.4-1.5-0.4
		c-0.8,0-1.4,0.2-1.9,0.5c-0.5,0.4-0.9,0.9-1.1,1.6c-0.2,0.7-0.4,1.6-0.5,2.6c-0.1,1.1-0.1,2.3-0.1,3.8c0,1.5,0,2.9,0.1,4
		c0.1,1.1,0.3,2,0.5,2.7c0.2,0.7,0.6,1.2,1,1.5s1,0.5,1.7,0.5c1.1,0,1.9-0.5,2.4-1.4c0.5-0.9,0.7-2.4,0.7-4.4h6.1
		c0,3.3-0.7,5.8-2.2,7.5c-1.5,1.7-3.9,2.6-7.3,2.6c-1.6,0-3-0.2-4.2-0.6c-1.2-0.4-2.2-1.1-3-2.1c-0.8-1-1.4-2.3-1.8-4
		s-0.6-3.8-0.6-6.3c0-2.6,0.2-4.7,0.7-6.4c0.5-1.7,1.2-3,2.1-4s2-1.7,3.2-2.1c1.2-0.4,2.6-0.6,4.1-0.6c3,0,5.2,0.9,6.7,2.6
		c1.5,1.7,2.2,4.1,2.2,7h-6.1C1126.9,390.1,1126.9,389.5,1126.8,389z"/>
	<path class="st2" d="M1142.5,373.3v5.5h-6.4v-5.5H1142.5z M1142.5,381.8v24.9h-6.4v-24.9H1142.5z"/>
	<path class="st2" d="M1152.6,381.8v2.9h0.1c0.7-1.2,1.6-2.1,2.6-2.7c1.1-0.6,2.3-0.9,3.7-0.9c2,0,3.6,0.6,4.7,1.7
		c1.1,1.1,1.6,2.9,1.6,5.4v18.4h-6.4v-17.1c0-1.3-0.2-2.2-0.6-2.7c-0.4-0.5-1.1-0.8-2.1-0.8c-2.2,0-3.4,1.4-3.4,4.1v16.5h-6.4v-24.9
		H1152.6z"/>
	<path class="st2" d="M1187.8,405.4c0,3.2-0.8,5.6-2.4,7.2c-1.6,1.6-4.2,2.4-8,2.4c-2.7,0-4.8-0.6-6.3-1.7c-1.5-1.2-2.2-2.8-2.2-4.9
		h6.1c0,0.8,0.3,1.4,1,1.9c0.3,0.2,0.6,0.4,1,0.5s0.7,0.2,1.1,0.2c1.3,0,2.2-0.4,2.7-1.2c0.5-0.8,0.8-1.9,0.8-3.1v-3.3h-0.1
		c-0.6,0.9-1.4,1.7-2.4,2.2c-0.9,0.6-1.9,0.8-2.9,0.8c-2.5,0-4.4-1-5.7-2.9c-1.3-1.9-1.9-5.2-1.9-9.7c0-1.4,0.1-2.9,0.3-4.4
		c0.2-1.5,0.5-2.9,1.1-4.1c0.5-1.2,1.3-2.2,2.4-3s2.4-1.2,4.1-1.2c0.9,0,1.8,0.2,2.8,0.7c1,0.5,1.7,1.4,2.4,2.7h0.1v-2.8h6.1V405.4z
		 M1175.1,397.5c0.1,0.8,0.2,1.5,0.5,2.1c0.2,0.6,0.6,1.1,1,1.4c0.4,0.4,1,0.5,1.6,0.5c0.7,0,1.2-0.2,1.7-0.5
		c0.4-0.4,0.8-0.8,1.1-1.5c0.3-0.6,0.4-1.4,0.6-2.2c0.1-0.9,0.2-1.8,0.2-2.9c0-3-0.2-5.2-0.7-6.4c-0.5-1.3-1.3-1.9-2.6-1.9
		c-0.7,0-1.3,0.2-1.7,0.5c-0.4,0.3-0.8,0.8-1,1.5s-0.4,1.6-0.5,2.8c-0.1,1.2-0.1,2.6-0.1,4.2C1175,395.9,1175.1,396.7,1175.1,397.5z
		"/>
	<path class="st2" d="M1221.1,373.7v5.5h-11.8v7.8h11.1v5.5h-11.1v14.3h-6.7v-33H1221.1z"/>
	<path class="st2" d="M1222.4,388.8c0-1.4,0.2-2.7,0.7-3.6c0.5-1,1.1-1.8,1.9-2.4s1.7-1,2.8-1.3s2.2-0.4,3.4-0.4
		c1.9,0,3.5,0.2,4.6,0.6c1.2,0.4,2.1,0.9,2.7,1.6c0.6,0.7,1.1,1.5,1.3,2.4c0.2,0.9,0.3,2,0.3,3.1v13.1c0,1.2,0.1,2.1,0.2,2.7
		c0.1,0.6,0.3,1.3,0.6,2.1h-6.1c-0.2-0.4-0.4-0.8-0.5-1.3c-0.1-0.4-0.2-0.9-0.3-1.3h-0.1c-0.7,1.3-1.6,2.1-2.6,2.5
		c-1,0.4-2.2,0.6-3.8,0.6c-1.1,0-2-0.2-2.8-0.6s-1.4-0.9-1.8-1.6s-0.8-1.4-1-2.3c-0.2-0.8-0.3-1.7-0.3-2.5c0-1.2,0.1-2.2,0.4-3
		c0.2-0.8,0.6-1.6,1.1-2.2c0.5-0.6,1.2-1.1,1.9-1.5c0.8-0.4,1.7-0.8,2.8-1.1l3.6-1c1-0.2,1.6-0.6,2-1c0.4-0.4,0.6-1.1,0.6-1.9
		c0-1-0.2-1.7-0.7-2.2c-0.4-0.5-1.2-0.8-2.3-0.8c-1,0-1.7,0.3-2.2,0.9c-0.5,0.6-0.7,1.4-0.7,2.4v0.7h-5.7V388.8z M1232.6,395
		c-0.5,0.2-0.9,0.3-1.3,0.4c-1.3,0.3-2.2,0.7-2.8,1.4c-0.6,0.6-0.8,1.5-0.8,2.6c0,1,0.2,1.8,0.6,2.4c0.4,0.7,1,1,1.8,1
		c0.4,0,0.9-0.1,1.3-0.2c0.5-0.1,0.9-0.4,1.3-0.7c0.4-0.3,0.7-0.7,0.9-1.2c0.2-0.5,0.4-1.1,0.4-1.8v-4.9
		C1233.6,394.6,1233.1,394.8,1232.6,395z"/>
	<path class="st2" d="M1256,389c-0.1-0.6-0.2-1.1-0.4-1.6c-0.2-0.5-0.5-0.9-0.9-1.2c-0.4-0.3-0.9-0.4-1.5-0.4
		c-0.8,0-1.4,0.2-1.9,0.5c-0.5,0.4-0.9,0.9-1.1,1.6c-0.2,0.7-0.4,1.6-0.5,2.6c-0.1,1.1-0.1,2.3-0.1,3.8c0,1.5,0,2.9,0.1,4
		c0.1,1.1,0.3,2,0.5,2.7c0.2,0.7,0.6,1.2,1,1.5s1,0.5,1.7,0.5c1.1,0,1.9-0.5,2.4-1.4c0.5-0.9,0.7-2.4,0.7-4.4h6.1
		c0,3.3-0.7,5.8-2.2,7.5c-1.5,1.7-3.9,2.6-7.3,2.6c-1.6,0-3-0.2-4.2-0.6c-1.2-0.4-2.2-1.1-3-2.1c-0.8-1-1.4-2.3-1.8-4
		s-0.6-3.8-0.6-6.3c0-2.6,0.2-4.7,0.7-6.4c0.5-1.7,1.2-3,2.1-4s2-1.7,3.2-2.1c1.2-0.4,2.6-0.6,4.1-0.6c3,0,5.2,0.9,6.7,2.6
		c1.5,1.7,2.2,4.1,2.2,7h-6.1C1256.2,390.1,1256.1,389.5,1256,389z"/>
	<path class="st2" d="M1271.7,373.3v5.5h-6.4v-5.5H1271.7z M1271.7,381.8v24.9h-6.4v-24.9H1271.7z"/>
	<path class="st2" d="M1282.4,373.7v33h-6.4v-33H1282.4z"/>
	<path class="st2" d="M1293,373.3v5.5h-6.4v-5.5H1293z M1293,381.8v24.9h-6.4v-24.9H1293z"/>
	<path class="st2" d="M1304.8,374.7v7.1h3.7v4.3h-3.7v13.4c0,1,0.1,1.7,0.4,2.1c0.3,0.4,0.9,0.6,1.8,0.6c0.2,0,0.5,0,0.7,0
		c0.2,0,0.5,0,0.7-0.1v4.4c-0.7,0-1.4,0-2.1,0.1c-0.7,0-1.4,0.1-2.1,0.1c-1.2,0-2.2-0.1-3-0.3s-1.4-0.5-1.8-1
		c-0.4-0.5-0.7-1.2-0.9-2c-0.2-0.8-0.2-1.9-0.2-3.1v-14.2h-3.2v-4.3h3.2v-7.1H1304.8z"/>
	<path class="st2" d="M1311.9,410c1.2,0,2-0.3,2.5-0.9c0.5-0.6,0.8-1.4,0.9-2.4l-7-24.9h6.7l3.7,17.2h0.1l3.2-17.2h6.4l-6,23.2
		c-0.6,2.1-1.1,3.7-1.6,5c-0.5,1.3-1.1,2.3-1.8,3c-0.7,0.7-1.5,1.1-2.5,1.4c-1,0.2-2.2,0.3-3.7,0.3h-2.6v-4.8
		C1310.8,410,1311.3,410,1311.9,410z"/>
</g>
<g>
	<rect x="494.1" y="154.3" class="st2" width="5" height="165.7"/>
</g>
<path class="st2" d="M680.6,156.9c-9.5-6.9-21.7-10.4-36.5-10.4c-6,0-11.9,0.6-17.7,1.8c-5.8,1.2-11,3.2-15.5,6
	c-4.5,2.8-8.1,6.6-10.8,11.3c-2.7,4.7-4.1,10.6-4.1,17.6c0,6.6,2,12,5.9,16.1c3.9,4.1,9.1,7.5,15.6,10.1c6.5,2.6,13.9,4.8,22.1,6.5
	c8.2,1.7,16.6,3.6,25.1,5.6c8.5,2,16.9,4.4,25.1,7.1c8.2,2.7,15.6,6.4,22.1,11c6.5,4.6,11.7,10.4,15.6,17.4c3.9,7,5.9,15.8,5.9,26.4
	c0,11.4-2.6,21.2-7.7,29.3c-5.1,8.1-11.7,14.7-19.7,19.8c-8,5.1-17,8.8-26.9,11.1c-9.9,2.3-19.8,3.5-29.6,3.5
	c-12,0-23.4-1.5-34.1-4.5c-10.7-3-20.1-7.6-28.3-13.7c-8.1-6.1-14.5-13.9-19.2-23.4c-4.7-9.5-7.1-20.8-7.1-33.8h27
	c0,9,1.8,16.8,5.3,23.3c3.5,6.5,8.1,11.9,13.8,16.1c5.7,4.2,12.4,7.3,20,9.3c7.6,2,15.4,3,23.4,3c6.4,0,12.9-0.6,19.4-1.8
	c6.5-1.2,12.4-3.3,17.6-6.2c5.2-2.9,9.4-6.9,12.6-11.9c3.2-5,4.8-11.4,4.8-19.2c0-7.4-2-13.4-5.9-18c-3.9-4.6-9.1-8.4-15.6-11.3
	c-6.5-2.9-13.9-5.3-22.1-7.1c-8.2-1.8-16.6-3.7-25.1-5.6c-8.5-1.9-16.9-4.1-25.1-6.6c-8.2-2.5-15.6-5.8-22.1-9.9
	c-6.5-4.1-11.7-9.4-15.6-15.9c-3.9-6.5-5.9-14.7-5.9-24.5c0-10.8,2.2-20.2,6.6-28.1c4.4-7.9,10.3-14.4,17.6-19.5
	c7.3-5.1,15.6-8.9,24.9-11.4c9.3-2.5,18.9-3.8,28.7-3.8c11,0,21.2,1.3,30.7,3.9c9.4,2.6,17.7,6.7,24.8,12.3
	c7.1,5.6,12.7,12.7,16.8,21.2c4.1,8.5,6.4,18.7,6.8,30.5h-27C695.7,174.9,690.1,163.8,680.6,156.9"/>
<polygon class="st2" points="1158.2,127.6 1158.2,151.6 1045.8,151.6 1045.8,219.8 1144.4,219.8 1144.4,243.9 1045.8,243.9 
	1045.8,342.1 1017.3,342.1 1017.3,127.6 "/>
<polygon class="st2" points="1344.8,127.6 1344.8,151.6 1232.4,151.6 1232.4,219.8 1330.9,219.8 1330.9,243.9 1232.4,243.9 
	1232.4,342.1 1203.8,342.1 1203.8,127.6 "/>
</svg>
