<?xml version="1.0" encoding="utf-8"?>
<!-- Generator: Adobe Illustrator 26.5.0, SVG Export Plug-In . SVG Version: 6.00 Build 0)  -->
<svg version="1.1" id="Ebene_1" xmlns="http://www.w3.org/2000/svg" xmlns:xlink="http://www.w3.org/1999/xlink" x="0px" y="0px"
	 viewBox="0 0 1836.2 533.3" style="enable-background:new 0 0 1836.2 533.3;" xml:space="preserve">
<style type="text/css">
	.st0{fill:#049AD7;}
	.st1{fill:#333333;stroke:#333333;stroke-width:1.0045;stroke-miterlimit:10;}
	.st2{fill:#333333;}
	.st3{fill:#333333;stroke:#333333;stroke-width:5.0223;stroke-miterlimit:10;}
	.st4{fill:#333333;stroke:#333333;stroke-width:3.6868;stroke-miterlimit:10;}
	.st5{fill:#FFFFFF;}
	.st6{fill:#049AD7;stroke:#049AD7;stroke-miterlimit:10;}
</style>
<g>
	<path id="XMLID_00000148663257476960227550000009919741610257045938_" class="st0" d="M184.2,192.5c3.8-3,8.2-6.8,13.4-11.2
		c1.9-1.6,3.4-3,4.6-4.2c1.2-1.2,2.2-2.6,3-4.2c0.8-1.6,1.6-3.7,2.5-6.1c0.8-2.4,1.9-5.8,3.3-10h-0.4c-1.6,3.7-3.7,6.6-6.2,8.7
		c-2.5,2.1-5.2,4.1-8.1,6.1c-2.9,2-5.9,4.3-8.8,7c-2.9,2.7-5.6,6.4-7.9,11v-0.4c2.1-6.1,3.7-11.2,4.7-15.4c1.1-4.2,2-7.9,2.8-11
		c0.8-3.2,1.9-5.9,3.2-8.2c1.3-2.3,3.3-4.5,6.1-6.6v-0.4c-6.3,1.6-11.4,5.4-15.4,11.2c-4,5.8-6,12.4-6,19.6V203
		C177.4,199,180.4,195.5,184.2,192.5z M200.7,162.5c3.3-3.4,6.2-6.8,8.9-10.3c2.7-3.5,5.2-6.8,7.7-10c2.5-3.1,5.2-6,8.2-8.6
		l-0.3-0.4c-2.1,1.9-4.7,3.3-7.9,4.2c-3.1,0.9-6.5,2.5-10,4.6c-3.5,2.1-6.9,5.4-10.2,10c-3.3,4.6-6.1,11.3-8.4,20.1
		C193.5,169.1,197.5,165.9,200.7,162.5z M161.5,254.1c2.3,3.5,4.9,6.9,7.8,10.3c2.9,3.4,5.8,7.5,8.5,12.4h0.3
		c-0.3-1.9-0.4-3.7-0.4-5.6v-4.9c0-1.9,0.7-5,2-9.3c1.3-4.3,2.7-9.1,4.2-14.4c1.4-5.2,2.7-10.6,3.8-15.9c1.1-5.4,1.4-10.2,0.9-14.4
		h-0.4c-0.7,3-1.9,6-3.7,8.9c-1.8,2.9-3.6,6-5.5,9.1c-1.9,3.1-3.5,6.5-4.9,10.2c-1.4,3.6-2.1,7.5-2.1,11.7c0,1.4,0.3,3.3,0.8,5.8
		c0.6,2.5,0.8,3.9,0.8,4.4h-0.4c-0.9-5.1-2.2-10-3.9-14.7c-1.7-4.7-3.4-9-5.1-12.9c-1.7-4-3.1-7.6-4.3-10.9c-1.1-3.3-1.7-6-1.7-8.1
		c0-2.3,0.1-4.2,0.2-5.6c0.1-1.4,0.2-3.2,0.2-5.2h-0.4c-0.8,1.9-1.7,4.9-2.8,9.1c-1.1,4.2-1.7,7.9-1.7,11.2c0,7,0.7,12.7,2.1,17
		C157.3,246.7,159.1,250.6,161.5,254.1z M225.2,349c1.2,0.1,2.5,0.2,3.9,0.2c1.9,0,3.6-0.1,5.2-0.3c1.6-0.2,3.7-0.6,6.3-1.1
		c2.6-0.5,5.9-1.2,10-2.3c4.1-1,9.5-2.4,16.3-4c-4.4-1.2-8.3-2.3-11.5-3.3c-3.3-1-6.5-3.1-9.8-6.1c-4-3.5-7.9-7.1-11.9-10.8
		c-3.1-2.9-6.3-5.6-9.5-8.4c-0.9-0.8-5.5-4.9-6.8-6.2l-0.4,0.4c0.5,0.8,4.8,9.5,4.8,9.5s0.7,0.9,1,1.4c1.2,2.1,2.3,4.2,3.4,6.3
		c0.4,0.8,0.9,1.7,1.3,2.5c1.4,2.7,3.3,4.9,5.8,6.8c3,2.8,7.9,5.2,14.7,7.3v0.3c-3-0.5-5.5-0.9-7.5-1.2c-2.1-0.3-3.9-0.6-5.6-0.9
		c-1.7-0.2-3.4-0.4-5.1-0.5c-2.1-0.1-4.2-0.3-6.3-0.6c-1.6-0.3-3.3-0.6-4.9-0.7c-1.6-0.2-3.2-0.4-4.9-0.6c-0.8-0.1-1.7-0.2-2.5-0.3
		c-3.2-0.3-6.1-0.9-8.8-1.6c-2.7-0.7-5.3-1.8-7.9-3.3c-2.6-1.5-5.4-3.7-8.4-6.5l-0.4,0.4c1.2,2.1,2.8,4.3,4.7,6.7
		c2,2.3,4.5,4.7,7.4,7c2.9,2.4,6.4,4.4,10.4,6c4,1.7,8.6,2.9,13.7,3.6C221.9,348.6,224.1,348.8,225.2,349z M170.6,239.4h0.4
		c0.2-2.1,0.6-4,1-5.6c0.5-1.6,1.3-3.6,2.6-5.9c1.3-2.3,3.1-5.1,5.4-8.4c2.3-3.3,5.4-7.7,9.3-13.3c2.3-3.5,4.2-7.6,5.5-12.3
		c1.4-4.7,2.3-8,2.8-10.1h-0.3c-0.5,1.2-1,2.2-1.6,3c-0.6,0.8-1.3,1.7-2.2,2.8c-0.9,1.1-2.1,2.3-3.6,3.7c-1.5,1.4-3.5,3.3-6,5.6
		c-4.6,4.2-7.6,8.1-9,11.6c-1.4,3.5-2.5,7.3-3.5,11.5H171c0.1-1.9,0.3-3.7,0.3-5.4c0.1-1.7,0.1-4,0.1-6.8c0-3.5-0.2-7.6-0.7-12.2
		c-0.4-4.7-0.7-10.7-0.7-18.2c0-2.3,0.5-4.6,1.4-6.7c0.9-2.1,1.7-4.1,2.4-6h-0.4c-5,6.3-8.3,12.2-10.1,17.7
		c-1.8,5.5-2.7,10.9-2.7,16.3c0,6.1,1.2,12.2,3.6,18.4C166.9,225.1,168.9,231.9,170.6,239.4z M207.1,330l14.6,3.2l7.6,1.7
		c-2.7-2.3-7.4-9.9-7.4-9.9c-1.6-2.6-3.2-5.8-4.6-9.6c-1.4-3.8-3.4-8.9-6-15.2c-0.7-2.1-1.5-4-2.3-5.6c-0.8-1.6-1.8-3.3-2.8-5.1
		c-1.1-1.8-2.3-3.7-3.9-5.9c-1.5-2.2-3.5-5-5.8-8.2l-0.3,0.4c0.7,2.3,1.7,6.5,3,12.6c1.3,6.1,2.5,11.8,3.7,17.2
		c0.7,4,2.3,7.6,4.7,11c2.4,3.4,5.6,6.8,9.6,10.3l-0.4,0.4c-1.6-0.5-4.5-2.3-8.4-5.6c-4-3.3-8.2-5.9-12.7-8.1
		c-8.9-4.4-15.9-8.3-20.9-11.7c-5-3.4-8.9-8-11.4-13.8l-0.4,0.4c1.4,5.8,3.6,11.1,6.5,15.8c2.9,4.7,6.4,8.8,10.4,12.3
		c4,3.5,8.3,6.4,13,8.7C197.7,327.5,202.4,329.1,207.1,330z M174.3,294l25.9,17.1c-1.1-2.3-2.1-4.6-2.9-6.7c-0.8-2.1-1.4-4.4-1.9-7
		c-0.5-2.6-0.9-5.4-1.2-8.6c-0.3-3.1-0.7-6.9-1.2-11.4c-0.9-7.7-1.7-13.6-2.4-17.8c-0.7-4.2-1.9-8.8-3.8-13.7h-0.3
		c0,4-0.2,7.4-0.5,10.2c-0.4,2.8-0.8,5.4-1.4,7.7c-0.6,2.3-1.1,4.5-1.4,6.5c-0.4,2-0.5,4.3-0.5,6.8c0,2.6,0.8,5.9,2.3,10
		c1.5,4.1,2.9,7.4,4.3,10l-0.3,0.4c-4-6.3-7.9-11.5-11.7-15.6c-3.8-4.1-7.3-7.8-10.5-11.2c-3.2-3.4-5.8-6.7-8-10
		c-2.2-3.3-3.7-7.4-4.4-12.3c-0.3,1.2-0.5,2.3-0.7,3.3c-0.2,1-0.2,2.2-0.2,3.3c0,4,0.7,8,2.1,12.1c1.4,4.1,3.1,7.9,5.2,11.4
		c2.1,3.5,4.4,6.6,6.8,9.3C170,290.5,172.2,292.6,174.3,294z M387.1,142.3c2.5,3.1,5,6.5,7.7,10c2.7,3.5,5.7,6.9,8.9,10.3
		c3.3,3.4,7.2,6.6,11.9,9.6c-2.3-8.9-5.1-15.6-8.4-20.1c-3.3-4.6-6.7-7.9-10.2-10c-3.5-2.1-6.8-3.6-10-4.5c-3.1-0.9-5.8-2.3-7.9-4.2
		l-0.4,0.4C381.9,136.3,384.6,139.1,387.1,142.3z M410,331.5c-2.6,1.5-5.2,2.6-7.9,3.3c-2.7,0.7-5.6,1.2-8.8,1.6
		c-0.8,0.1-1.7,0.2-2.5,0.3c-1.6,0.2-3.2,0.4-4.9,0.6c-1.7,0.2-3.3,0.5-4.9,0.7c-2.1,0.3-4.2,0.4-6.3,0.6c-1.7,0.1-3.4,0.3-5.1,0.5
		c-1.7,0.2-3.6,0.5-5.6,0.9c-2,0.3-4.6,0.8-7.5,1.2v-0.3c6.8-2.1,11.7-4.5,14.7-7.3c2.5-1.9,4.4-4.1,5.8-6.8
		c0.4-0.8,0.9-1.7,1.3-2.5c1.1-2.1,2.3-4.2,3.4-6.3c0.3-0.5,1-1.4,1-1.4s4.3-8.7,4.8-9.5l-0.4-0.4c-1.3,1.3-5.9,5.4-6.8,6.2
		c-3.1,2.8-6.4,5.5-9.5,8.4c-4,3.7-7.9,7.3-11.9,10.8c-3.3,3-6.5,5.1-9.8,6.1c-3.3,1-7.1,2.1-11.5,3.3c6.8,1.6,12.2,3,16.3,4
		c4.1,1,7.4,1.8,10,2.3c2.6,0.5,4.7,0.8,6.3,1.1c1.6,0.2,3.4,0.4,5.2,0.4c1.4,0,2.7-0.1,3.9-0.2c1.1-0.1,3.3-0.4,3.3-0.4
		c5.2-0.7,9.7-1.9,13.7-3.6c4-1.7,7.5-3.7,10.4-6c2.9-2.4,5.4-4.7,7.4-7c2-2.3,3.6-4.6,4.8-6.6l-0.4-0.4
		C415.4,327.8,412.6,329.9,410,331.5z M429.6,301.9c-5,3.4-12,7.3-20.9,11.7c-4.5,2.1-8.7,4.8-12.7,8.1c-4,3.3-6.8,5.1-8.4,5.6
		l-0.4-0.3c4-3.5,7.2-6.9,9.6-10.3c2.4-3.4,4-7.1,4.7-11c1.2-5.4,2.4-11.1,3.7-17.1c1.3-6.1,2.3-10.3,3-12.6l-0.3-0.4
		c-2.3,3.3-4.3,6-5.8,8.2c-1.5,2.2-2.8,4.2-3.9,5.9c-1,1.8-2,3.4-2.8,5.1c-0.8,1.6-1.6,3.5-2.3,5.6c-2.6,6.3-4.6,11.4-6,15.2
		c-1.4,3.9-2.9,7.1-4.6,9.6c0,0-4.7,7.6-7.4,9.9l7.6-1.7l14.6-3.2c4.7-0.9,9.4-2.6,14.1-4.9c4.7-2.3,9-5.2,13-8.7
		c4-3.5,7.5-7.6,10.4-12.3c2.9-4.7,5.1-9.9,6.5-15.7l-0.4-0.4C438.5,293.9,434.7,298.5,429.6,301.9z M440.2,234.9
		c-1.7,4-3.4,8.3-5.1,12.9c-1.7,4.7-3,9.6-3.9,14.7h-0.3c0-0.5,0.3-1.9,0.8-4.4c0.6-2.4,0.8-4.4,0.8-5.8c0-4.2-0.7-8.1-2.1-11.7
		c-1.4-3.6-3.1-7-4.9-10.2c-1.9-3.1-3.7-6.2-5.5-9.1c-1.8-2.9-3-5.9-3.7-8.9h-0.4c-0.5,4.2-0.2,9,0.9,14.4
		c1.1,5.4,2.3,10.7,3.8,15.9c1.4,5.3,2.8,10,4.2,14.4c1.3,4.3,2,7.4,2,9.3v4.9c0,1.9-0.1,3.7-0.4,5.6h0.3c2.8-4.9,5.6-9,8.5-12.4
		c2.9-3.4,5.5-6.8,7.8-10.3c2.3-3.5,4.2-7.4,5.6-11.7c1.4-4.3,2.1-10,2.1-17c0-3.3-0.6-7-1.7-11.2c-1.1-4.2-2.1-7.2-2.8-9.1h-0.4
		c0,2.1,0.1,3.9,0.2,5.2c0.2,1.4,0.2,3.3,0.2,5.6c0,2.1-0.6,4.8-1.7,8.1C443.4,227.3,441.9,230.9,440.2,234.9z M429.6,210.4
		c-1.4-3.5-4.4-7.4-9-11.6c-2.5-2.3-4.6-4.2-6.1-5.6c-1.5-1.4-2.7-2.6-3.6-3.7c-0.9-1.1-1.7-2-2.2-2.8c-0.6-0.8-1.1-1.8-1.6-3h-0.3
		c0.5,2.1,1.4,5.5,2.8,10.2c1.4,4.7,3.2,8.8,5.5,12.3c3.9,5.6,7,10,9.3,13.3c2.3,3.3,4.1,6.1,5.4,8.4c1.3,2.3,2.1,4.3,2.6,5.9
		c0.5,1.6,0.8,3.5,1,5.6h0.4c1.7-7.5,3.7-14.3,6.1-20.5c2.4-6.2,3.6-12.3,3.6-18.4c0-5.4-0.9-10.8-2.7-16.3
		c-1.8-5.5-5.1-11.4-10.1-17.7h-0.4c0.7,1.9,1.5,3.9,2.4,6c0.9,2.1,1.4,4.3,1.4,6.6c0,7.5-0.2,13.5-0.7,18.2
		c-0.4,4.7-0.7,8.8-0.7,12.3c0,2.8,0,5.1,0.1,6.8c0.1,1.8,0.2,3.6,0.3,5.4H433C432.1,217.7,431,213.9,429.6,210.4z M414.1,154.7
		c1.3,2.3,2.3,5.1,3.2,8.2c0.8,3.1,1.7,6.8,2.8,11c1,4.2,2.6,9.3,4.7,15.4v0.4c-2.3-4.7-5-8.3-7.9-11c-2.9-2.7-5.9-5-8.8-7
		c-2.9-2-5.6-4-8.1-6.1c-2.5-2.1-4.5-5-6.2-8.7h-0.4c1.4,4.2,2.5,7.5,3.3,10c0.8,2.4,1.7,4.5,2.5,6.1c0.8,1.6,1.8,3,3,4.2
		c1.2,1.2,2.7,2.6,4.6,4.2c5.2,4.4,9.6,8.2,13.4,11.2c3.8,3,6.8,6.5,9.2,10.5v-24.5c0-7.2-2-13.8-6-19.6c-4-5.8-9.1-9.6-15.4-11.2
		v0.4C410.8,150.2,412.9,152.4,414.1,154.7z M373.6,356.1c-2.1,0-4-0.2-5.8-0.5c-1.8-0.3-3.9-0.8-6.5-1.2v0.1
		c-2.1-0.7-4.4-1.5-7-2.4c-2.7-0.9-5.9-2.1-9.7-3.5c-6.6-2.3-11.5-4.1-14.9-5.3c-3.4-1.2-6.7-1.8-10-1.8c-3.1,0-6.5,0.4-10.2,1.2
		c-3.5,0.8-6,1.4-7.7,1.8c-1.5-0.5-3.9-1.1-7.4-1.8c-3.7-0.8-7.1-1.2-10.1-1.2c-3.3,0-6.6,0.6-10,1.7c-3.4,1.2-8.3,2.9-14.9,5.2
		c-7.7,2.8-13.4,4.7-17.1,5.9c-3.7,1.2-7.6,1.7-11.5,1.7c-1.6,0-3.3-0.1-4.9-0.3c-1.6-0.2-3-0.6-4.2-1.1c0,0-3.3-1-5.1-1.7
		c-1.9-0.8-4.1-1.8-6.7-3l-0.4,0.3c3.7,4.2,12.3,9.4,12.3,9.4c6.5,3.7,12.9,5.6,19.4,5.6c2.8,0,5.3-0.2,7.5-0.5
		c2.2-0.3,4.4-1,6.6-1.9c2.2-0.9,4.7-2.1,7.3-3.5c2.7-1.4,5.9-3.3,9.6-5.6c4-2.6,7.3-4.6,10-6.1c2.7-1.5,5.8-2.3,9.3-2.3
		c1.4,0,2.8,0.2,4.2,0.7c-4.7,2.5-10,5.6-15.9,9.2c-6,3.6-11.7,8.4-17.3,14.4l6,5.2c5.1-6.1,10.8-11.6,17.1-16.8
		c6.1-5,11.5-8.3,16.1-10c4.6,1.7,10,5,16.3,10c6.4,5.1,12.2,10.7,17.3,16.8l5.9-5.2c-5.6-6-11.4-10.8-17.5-14.4
		c-6.1-3.6-11.4-6.7-16.1-9.2c1.9-0.5,3.4-0.7,4.6-0.7c3.5,0,6.6,0.8,9.3,2.3c2.7,1.5,6,3.6,10,6.1c3.5,2.1,6.6,3.9,9.1,5.4
		c2.6,1.5,5,2.7,7.2,3.5c2.2,0.8,4.4,1.5,6.5,1.9c2.1,0.5,4.4,0.7,6.9,0.7v0h1.4c4.9,0,10.2-1.2,15.9-3.5
		c5.7-2.3,10.9-6.2,15.6-11.6V350c-4.9,2.3-8.8,3.9-11.6,4.8C379.9,355.7,376.9,356.1,373.6,356.1z M451,254.5c0-0.4,0-0.7,0-1.1
		c0-0.6-0.1-1.1-0.2-1.6c-0.2-1.1-0.4-2.2-0.7-3.3c-0.7,4.9-2.2,9-4.4,12.3c-2.2,3.3-4.9,6.6-8,10c-0.2,0.2-0.4,0.4-0.6,0.6
		c-3,3.2-6.3,6.8-10,10.6c-3.8,4-7.6,9.1-11.5,15.3l-0.1-0.1c1.3-2.6,2.7-5.9,4.1-10c1.4-4.1,2.1-7.4,2.1-10c0-2.6-0.2-4.8-0.5-6.8
		c-0.4-2-0.8-4.1-1.2-6.5c-0.5-2.3-0.9-4.9-1.2-7.7c-0.3-2.8-0.5-6.2-0.5-10.2H418c0,0.1-0.1,0.2-0.1,0.2c0-0.1,0-0.1,0-0.2h-0.3
		c-1.8,4.9-3.1,9.5-3.8,13.7c-0.7,4.2-1.5,10.2-2.4,17.8c-0.5,4.4-0.8,8.2-1.2,11.4c-0.3,3.1-0.7,6-1.2,8.6c-0.5,2.6-1.1,4.9-1.9,7
		c-0.7,1.8-1.5,3.7-2.4,5.7c-0.2,0.3-0.4,0.6-0.5,1l0.1-0.1c0,0,0,0.1-0.1,0.1l8.7-5.8l17.5-11.4c2.1-1.4,4.4-3.4,6.8-6.1
		c2.4-2.7,4.7-5.8,6.6-9.3c1.2-2.2,2.3-4.4,3.3-6.8c0.6-1.5,1.2-3,1.8-4.5c1.4-4.1,2.1-8.1,2.1-12.1c0,0,0,0,0,0c0,0,0,0,0,0
		C451.1,254.9,451.1,254.7,451,254.5z M349.2,151.5c0.6,0.2,1.2,0.6,1.9,1c0.4,0.5,0.8,0.9,1.2,1.4c0.3,0.5,0.7,0.7,1.2,0.7
		c0.7,0,1-0.2,1-0.7c0-0.5-0.1-0.6-0.2-0.5c-0.1,0.1-0.2-0.1-0.2-0.5c0-0.9-0.2-1.6-0.7-2.1c-0.9-0.9-1.9-1.2-3.1-0.7
		c-0.2-0.2-0.5-0.3-0.7-0.3h-0.3c-0.7,0-1,0.2-1,0.7C348.4,150.9,348.7,151.2,349.2,151.5z M312.1,143.1h0.7
		c1.9-0.6,3.3-0.9,4.2-0.9h4.9c0.9,0,1.6-0.3,2.1-0.9c0.5-0.6,0.8-1.1,1.1-1.6c-1.2-1.4-2.6-2.3-4.2-2.5c-1.6-0.2-2.8-0.4-3.5-0.4
		c-0.5,0-1.9,0.4-4.2,1.3c-2.3,0.9-3.8,1.4-4.2,1.6c-1.2-0.2-1.9,0-2.1,0.7c0.5,0.5,1.1,1,1.9,1.6
		C309.6,142.8,310.7,143.1,312.1,143.1z M301.6,334.8c58.2,0,105.6-47.4,105.6-105.6c0-58.2-47.4-105.6-105.6-105.6
		C243.3,123.7,196,171,196,229.2C196,287.5,243.3,334.8,301.6,334.8z M201.4,231.9h16.1c0.2,7.2,1.4,14.2,3.3,20.8
		c-0.5-0.1-0.9-0.3-1.2-0.9l-0.5-0.5l-1.8-2.5l-2.9,1.1c0,1.6-0.6,2.2-1.8,1.8c-0.5-0.5-0.9-0.7-1.4-0.7c-1.9,0-3,1-3.3,3
		c-0.4,2-0.5,3.3-0.5,4l2.5,6.3c0.5,0.7,1.2,0.8,2.1,0.3c0.9,1.2,1.6,2,2.1,2.5c0.5,0.5,1.1,0.7,1.8,0.7c0.7,0,1.1-0.3,1.1-1.1h0.4
		c0.5,0.5,1,1,1.5,1.6c0.5,0.6,1.1,1.1,1.8,1.6v-0.3c0.9,0.8,1.9,1.3,3,1.3c0.5,1.7,1.2,3,2.1,3.9c0.9,1,1.9,1.4,2.8,1.4
		c0.5,0,0.9-0.2,1.4-0.7c0.7,1.9,1.3,3.1,1.8,3.6c0.5,0.2,1,0.6,1.8,1.1c0.7,0.5,1.2,0.8,1.4,1.1h0.7c0,0,0,0,0,0
		c0.2,0.9,0.8,1.9,1.7,2.8c0.7,0.7,1.4,1.3,2.1,1.8c-0.1,0-0.1,0.1-0.2,0.1c0.1,0,0.1,0.1,0.2,0.1c0.1,0,0.2,0,0.3,0
		c0.2,0.3,0.5,0.5,0.7,0.8l-11.4,11.4C212.4,280.8,202,257.5,201.4,231.9z M278.7,202.3c-0.3-0.2-0.6-0.4-0.9-0.6l-1.1-1.1
		c6-5.2,13.7-8.6,22.1-9.2v11.2c-0.2-0.1-0.3-0.2-0.5-0.3c-0.1-0.1-0.2-0.2-0.3-0.4c0,0-0.1,0-0.1,0c-0.1-0.1-0.4-0.2-0.8-0.2
		c-0.2,0-0.3,0-0.4,0.1c0,0-0.1,0-0.1-0.1c-0.3,0-0.5,0-0.8,0.1c-0.3,0.1-0.6,0.2-0.8,0.2c-0.2,0-0.3,0-0.4-0.1
		c-0.3-0.2-0.5-0.8-0.5-1.6c0,0,0,0-0.1,0c0,0,0,0,0-0.1c-1,0.5-1.5,0.9-1.6,1.4c-0.1,0.5-0.3,1.3-0.5,2.5c-0.2,0.9-0.8,1.6-1.8,1.9
		c-1,0.4-1.7,0.8-2.1,1.2l-1.1-0.7h-1.8c-0.5-0.5-0.8-0.8-1.1-0.9c-0.2-0.1-0.5-0.3-0.7-0.5c-0.2-0.2-0.3-0.2-0.3,0
		c-0.5,0-0.8,0.3-0.9,0.8l-1-1l0.3-0.1v-0.7C280.9,203.8,280,203.1,278.7,202.3z M273,196.9l-10.8-10.8c9.8-8.9,22.6-14.6,36.7-15.2
		v15.3C289,186.7,280,190.7,273,196.9z M279,247.7c0.6-0.6,0.3-1.6,0.5-2.3l-1.2,1.1c1.2-1.2,1.9-2,2.1-2.6c0.2-0.6,0.6-1.2,1.1-1.9
		c0,0,0,0,0.1,0c0.4,0.8,0.8,1.5,1.3,2.2L273,254c-3.9-4.5-6.7-9.9-8.2-15.9c0.8,0.1,1.7,0.3,2.5,0.7c0.4,0.2,2.2,2,2.2,2
		c0.5,0,0.9-0.1,1.4-0.3l1.4,1.1c0,0.9,0.1,1.5,0.4,1.8c0,0.2,0.4,0.5,1.1,0.9c0.7,0.4,1.2,0.8,1.4,1.2l0.7-0.3
		c0-0.2-0.1-0.7-0.2-1.4c-0.1-0.7-0.1-1.1,0.2-1.1l0.7,2.5l0.7,2.8l0,0C277.9,248.1,278.6,248.1,279,247.7z M300,258.9
		c0.6,0.6,0.9,1,0.9,1.2c0,0.7-0.9,1.1-2.8,1.1c-0.7,0-1.2,0.7-1.4,2c-0.2,1.3-0.5,2.5-0.7,3.3c-0.2,0-0.4-0.1-0.6-0.1
		c0,0,0,0.1,0.1,0.1c-7.1-1.1-13.5-4.2-18.7-8.7l9.5-9.5c3.5,3.4,8.1,5.6,13.3,6.1c0,0.8,0.1,1.3,0.3,1.5c-0.5,0.5-0.7,1.1-0.7,1.8
		C299.1,257.9,299.4,258.3,300,258.9z M253.2,259.6c-0.2-3-0.5-5-0.7-6c-0.2-0.9-0.6-2-1.1-3.2c-0.3-2.1-0.6-3.7-1.1-4.7
		c-0.5-1.1-1.6-2.5-3.3-4.4v-2c0-0.2-0.2-0.9-0.7-2.1v-0.4c0-0.5,0.2-0.8,0.5-0.9c0.4-0.1,1.6-0.5,3.7-1.3c0-1.7,0.1-2.8,0.4-3.2
		l2.5,0.4c0.7,0,1.1-0.5,1.1-1.5c0-0.2-0.2-1-0.7-2.2c-0.5-1.2-0.7-2.1-0.7-2.5c0-0.5,0.3-0.9,1-1.3c0.7-0.4,1.4-0.5,2.1-0.5
		c1.2,0,2,0.4,2.4,1.2c0.5,0.8,0.7,1.7,0.7,2.6c0,0.7-0.1,1.3-0.2,1.9c-0.1,0.6-0.2,1.1-0.2,1.6l0.7,0.3c-0.5,2.3-1.4,3.5-2.8,3.5
		c-0.7,0-1.2-0.3-1.6-0.9c-0.3-0.6-0.8-0.9-1.2-0.9c-0.2,0-0.4,0.1-0.4,0.4c0,0.5,0.1,1,0.3,1.4c0.2,0.5,0.4,1.1,0.4,1.8
		c0,1.7-0.7,2.2-2.2,1.8c-0.5,0.9,0,1.3,1.5,1.3c0.5,1.4,1,2,1.5,1.8c0.2-0.2,0.5-1,0.7-2.4c0.2-1.4,0.5-2.3,0.7-2.8l0.4,0.4
		l1.5-0.4c0,0.2,0.1,0.4,0.1,0.5c0.1,0,0.3,0,0.4,0c1.4,7.9,5,15,10.1,20.8l-14.9,14.9c-0.6-0.7-1-1.5-0.8-2.3
		c0.3-1.4,1.8-2.3,1.9-3.8c0-0.1,0.3-2.8,0.3-2.8C254.1,261.4,253.2,260,253.2,259.6z M244.7,237.6c0.2,0.5,0.3,0.9,0.3,1.4
		c0,0.7-0.2,1-0.7,0.9c-0.1,0-0.2,0-0.3,0c-0.5-2.6-0.8-5.3-0.9-8h2.9c0,0.6-0.2,1.1-0.3,1.4c-0.2,0.5-0.5,0.9-0.9,1.4
		c-0.4,0.5-0.5,0.9-0.5,1.4C244.4,236.6,244.5,237.1,244.7,237.6z M243.2,226.6c0.6-14.1,6.3-26.9,15.2-36.7l10.8,10.8
		c-0.1,0.1-0.2,0.2-0.3,0.4c-0.6,0.1-1.3,0.4-1.9,0.7c-0.5,0.6-1,1.2-1.6,2.1c-1.6,0.7-2.8,1.3-3.3,1.8c-0.6,0.5-1.5,1.4-2.6,2.8
		c-1.4,0.7-2.3,1.1-2.6,1.2c-0.4,0.1-0.8,0.4-1.2,0.9c0.5,1.2,0.5,1.8,0,1.9c-0.5,0.1-1.6,0.4-3.5,0.9c-0.2,0-0.5,0.1-0.7,0.3
		l-1.1,1.1c-0.2,0.5-0.4,0.9-0.4,1.2c0,0.4-0.1,0.8-0.4,1.2c-0.7,0.5-1.3,1.1-1.8,1.8c-0.4,0.9-0.4,2,0,3.2l0.4,3.5c0,0-0.1,0-0.1,0
		c0.1,0.3,0.2,0.7,0.3,1.1H243.2z M273,261.6c5.3,4.6,11.7,8,18.7,9.7c-0.5,0.2-1,0.4-1.5,0.5c-1.2,0.4-1.9,1.1-2.1,2.3
		c-0.2,1.4-0.8,2.3-1.6,2.7c-0.8,0.4-1.1,0.9-0.9,1.6c1.2,1.2,2,2.6,2.5,4.2c0.5,1.7,1.6,2.7,3.5,3.2l2.1,0.7c0.6,0,1.3,0.3,2.1,0.8
		c0.6,0.1,1.2,0.2,1.8,0.3c-13.6-0.9-25.9-6.5-35.4-15.2L273,261.6z M258.4,182.3l-10.7-10.7c13.5-12.6,31.4-20.6,51.2-21.2v15.1
		C283.3,166.2,269.2,172.4,258.4,182.3z M254.6,186.1c-9.9,10.8-16.2,24.9-16.8,40.5h-15.1c0.7-19.7,8.6-37.7,21.2-51.2L254.6,186.1
		z M237.8,231.9c0.1,2.6,0.4,5.2,0.8,7.8c-0.2-0.3-0.4-0.7-0.6-1c-0.8-1.1-1.5-1.7-2.1-1.7c-0.7,0-1.2,0.3-1.4,0.9
		c-0.2,0.6-0.6,1.1-1.1,1.6c-1.9,1.2-3.2,1.8-3.9,1.8c-1,0.9-1.7,2.3-2.1,4.2c-0.2,0.5-0.2,0.9,0.2,1.4c0.4,0.5,0.2,0.9-0.5,1.4
		c0.5,0.9,0.6,1.5,0.4,1.8c0.2,0.5,0.2,0.7-0.2,0.5c-0.4-0.1-0.7-0.1-0.9,0.2c-0.2,0.2-0.4,0.5-0.5,0.8c-1.8-6.2-2.9-12.8-3.2-19.6
		H237.8z M298.9,329.4c-25.6-0.7-48.9-11-66.3-27.5l11.3-11.4c14.5,13.6,33.7,22.1,54.9,22.8V329.4z M298.9,308.1
		c-19.6-0.7-37.5-8.5-50.9-21c1.1,0.5,2,0.8,2.9,0.8c0.7,0,1.6-0.2,2.8-0.7c1.2-0.5,2.2-1,3.2-1.5c1.4,0,2.5-0.2,3.2-0.7
		c0.9,0.2,1.8,0.2,2.6,0c0.8-0.2,1.2-0.8,1.2-1.8c0-0.7-0.4-1.3-1.2-1.9c-0.8-0.6-1.3-1.1-1.3-1.6c0-0.2-0.2-0.5-0.7-0.9
		c-0.4-0.3-1.1-1.1-2.3-2.5l0,0c10.8,9.9,24.9,16.1,40.5,16.8V308.1z M301.7,268.9v-0.1c-1.7,0-2.9-0.2-3.5-0.6
		c-0.1-0.3-0.2-0.6-0.3-0.9c0.3-0.2,0.8-0.6,1.6-1.1c1-0.6,1.7-0.9,2.2-0.9l0-0.9l2.6-1.9c0.5-0.2,0.8-0.3,0.9-0.3
		c0.1,0,0.8-0.2,2-0.7c0.2,0,1.1,0.4,2.7,1.2c1.6,0.8,2.5,1.2,2.7,1.2l0.4-1.4c0.5,0,1.2,0.5,2.1,1.4c0.5,0,1.1-0.2,1.8-0.7
		c0.2-0.7,0.2-1.3,0-1.8c0.2,0,0.6,0.1,1.1,0.3c0.2,0,0.4,0.1,0.5,0.2c0.1,0.1,0.3,0.2,0.5,0.2h0.4c0.5,0,1.1-0.3,1.9-0.9
		c0.8-0.6,1.5-1,1.9-1.2c0.2-0.2,0.5-0.2,0.7,0c0.2,0.2,0.4,0.7,0.4,1.4c0,1.9-1,3.3-3,4.2c-2,0.9-3.7,1.6-5.1,2.1
		c-0.2,0.2-0.5,0.8-0.9,1.6c-0.3,0.8-0.8,1.2-1.2,1.2c-0.9,0-2.4-0.2-4.3-0.7c-0.2-0.2-0.6-0.9-1.1-2.1c-0.7,0-1.6,0.1-2.5,0.4
		l-2.9,0.7C302.7,268.9,302.2,268.9,301.7,268.9z M317,257.3c0.2-1.2,0.8-1.9,1.8-2.3c0.9-0.3,1.9-0.5,2.8-0.5
		c0,0.7-0.6,1.4-1.9,2.1c-1.3,0.7-2.1,1.1-2.3,1.1L317,257.3z M327.8,248.7c0.9,0.6,1.4,1.5,1.4,2.6c0,0.9-0.5,1.4-1.4,1.4
		c-0.7,0-1.3-0.8-1.8-2.5c-1.6-0.5-2.6-1.2-2.8-2.3c-0.2-1-0.1-1.7,0.4-1.9c0.5-0.2,0.9-0.4,1.4-0.5c0.5-0.1,0.6,0.4,0.3,1.6
		C326.1,247.5,326.9,248.1,327.8,248.7z M361.7,189.7c0.2,0,0.5,0.1,0.7,0.4c0.9,0,1.8,0.2,2.5,0.7c0.7,0.5,2.1,2.2,4.2,5.3
		c0.2,0,0.5,0.4,0.9,1.1c0.4,0.7,0.8,1.1,1.2,1.1c0.4,0,1-0.2,1.8-0.6c0.1-0.3,0.1-0.6,0.2-1c4.2,9.2,6.7,19.3,7.1,30h-14.9
		c0-0.1,0-0.2,0.1-0.3c0.2-1.3-0.3-2.7-0.8-3.9c-0.7-1.9-1-3.2-0.5-5.2c0.4-1.5,0.4-2.5,0.2-3c-0.7,0-1.2,0.1-1.4,0.3
		c-0.2,0.2-0.5,0.8-0.9,1.6c-0.4,0.8-0.6,1.5-0.9,1.9v0.2c-0.2,0.3-0.3,0.6-0.3,0.7c0,0.1-0.1,0.4-0.4,0.9c-0.2,0.9-0.5,1.9-0.7,2.8
		c-0.2,0.8-0.2,1.8,0,2.8c0,0,0,0,0,0.1c0,0.4,0.1,0.7,0.1,1.1h-7.6c0.5-0.5,1-0.8,1.6-1.1h-0.2l2.1-1c-0.5-0.2-0.7-0.6-0.7-1
		c0-0.7,0.1-1.1,0.3-1.2c0.2-0.1,0.9-0.4,2-0.9c0.4-0.5,1.1-1.6,1.9-3.3c0.9-2,2.7-4.8,2.7-7c0-0.5-0.7-1.2-0.8-1.8
		c-0.1-0.5,0.2-1,0.2-1.5c0.1-2.5,1.1-6.7-2-7.5c-0.2,0-0.4-0.3-0.4-1c0.7-0.5,1-1.4,0.7-2.7h-2.2c0-0.2,0.2-0.6,0.5-1.2
		c0.4-0.6,0.5-1.1,0.5-1.6c0-0.7-0.4-1.1-1.1-1.1c-0.7,0-1.3,0.1-1.8,0.4c-0.5,0.2-0.9,0.4-1.1,0.4c-0.2,0-0.4,0-0.6-0.1
		c-0.2-0.3-0.4-0.5-0.5-0.7c0-1.1-0.5-2.3-1.5-3.4c-1-1.1-1.9-1.8-2.8-2.1c0,0-0.1-0.1-0.1-0.1c0.2-0.5,0.2-1,0-1.5l3-3l4.3,1.5
		c0,1.2,0.4,2,1.1,2.5c0.2,0.2,0.7,0.6,1.5,1.1c0.7,0.4,1.2,0.8,1.7,1.3v0.2C361.1,189.4,361.5,189.7,361.7,189.7z M347.2,291.9
		c-0.2-0.2-0.5-0.3-0.9-0.3c-0.4,0-0.5-0.2-0.5-0.7c0-0.5,0.4-0.9,1.1-1.4c0.7-0.5,1.3-1.3,1.8-2.5c0.5-0.9,0.7-1.6,0.7-2.1
		c0-0.5-0.2-0.8-0.5-0.9c-0.4-0.1-0.8-0.4-1.2-0.9c-0.5-0.2-1-0.5-1.6-0.7c-0.6-0.2-1.2-0.6-1.9-1.1c-0.7-0.5-1.1-1-1.1-1.8
		c0-0.2,0.2-0.8,0.5-1.8c0.1-0.3,0.3-0.6,0.4-0.9c0.3-0.2,0.5-0.5,0.8-0.7l8.1,8.1c0,0.9,0.6,1.5,1.6,1.7l0.9,0.9
		c-2.8,2.7-5.9,5.1-9.1,7.3c0.1-0.3,0.3-0.6,0.6-0.9c0.1-0.1,0.3-0.2,0.4-0.3C347.4,292.5,347.4,292.1,347.2,291.9z M342.3,253.2
		c-0.7-0.2-1.4-0.1-2.1,0.3c-0.9,0.2-1.7,0.9-2.1,2.1c0,0.2-0.1,0.4-0.4,0.4c-0.5,0-0.9,0.1-1.4,0.4c-0.7,0.2-1.3,0.5-1.8,0.7
		c-0.7,0-1.1-0.2-1.1-0.7c0-0.7,1-1.2,3.2-1.4c0.9-1.1,1.5-1.8,1.7-2.1c0.2-0.2,0.8-0.5,1.6-0.7c0.9-0.5,1.7-1.3,2.6-2.6
		c0.9-1.3,1.3-2,1.3-2.2h0.3c0,1.2,0.5,1.7,1.5,1.7c0.7,0,1.3-0.8,1.8-2.4c1.5,0.5,2.5,0.7,2.9,0.7c1.2,0,2.1-0.4,2.6-1.3h4.4
		c0,0.1-0.1,0.2-0.1,0.3c0,0.1-0.1,0.2-0.1,0.3c0,0,0,0,0,0c-2.4,7.8-6.5,15-11.8,21c0-0.4-0.1-0.7-0.1-1.1c-0.1,0.1-1-3.2-1.3-3.2
		c-0.4,0-1,0.8-1.7,2.5c-0.7,1.6-1.1,2.7-1.3,3.2l-3.5,0.7c-0.9,0.2-2,0.4-3.2,0.4c-0.5,0-1.5-0.4-3-1.2c-1.5-0.8-2.5-1.2-3-1.2
		c-0.7-0.2-1.7-0.5-3-0.7c-1.3-0.2-1.9-0.6-1.9-1c0-0.7,0.5-1.1,1.4-1.1c0.5,0,1.4,0.2,2.8,0.5c1.4,0.4,2.8,0.7,4.2,1.1
		c1.4,0.4,2.7,0.7,3.9,1.1c1.2,0.3,1.9,0.5,2.1,0.5l2.1-0.7c0-0.5,0.2-1.1,0.7-1.9c0.5-0.8,0.7-1.5,0.7-1.9c0.5-0.9,0.9-2.2,1.3-3.9
		c0.4-1.6,0.6-3,0.6-4.2C343.4,254.1,343,253.5,342.3,253.2z M351.7,231.9h8.3c-0.2,3.5-0.6,7-1.4,10.3c-0.7-1.6-1.3-2.7-1.8-3.1
		c-0.5-0.5-1.4-1.4-2.9-2.8c-0.2-1.2-0.4-2-0.5-2.5c-0.1-0.2-0.2-0.5-0.5-0.8C352.4,232.6,352,232.3,351.7,231.9z M355.1,274.9
		c-0.7,0-1.1,0.2-1.1,0.5c0,0.3-0.1,1.1-0.3,2.2l-5.2-5.2c7-7.6,12.2-17,14.8-27.3c0.1-0.1,0.2-0.1,0.3-0.2c1.2,0.5,2,0.5,2.3,0
		c0.3-0.5,0.5-0.8,0.5-1c0-0.7-0.6-1.6-1.8-2.8h-0.4c0.6-3,0.9-6,1.1-9.1h15.1c-0.7,19.7-8.6,37.7-21.2,51.2l-0.6-0.6
		c0,0,0-0.1,0-0.1c-0.2-1.6-0.5-3.2-0.8-4.7C357.4,275.8,356.5,274.9,355.1,274.9z M351.4,198.7
		C351.4,198.7,351.4,198.8,351.4,198.7c0,0.6-0.1,1.1-0.3,1.8c-0.2,0.7-0.5,1.3-0.7,1.8c0.2,0.5,1.2,1.3,2.8,2.5
		c1.6,1.2,2.7,2,3.2,2.5c0.5,0.7,1,2.1,1.6,4.1c0.6,2,0.9,3.2,0.9,3.7c-0.2,1-0.6,1.8-1,2.5c-0.9,1.4-2.1,2.1-3.5,2.1l-0.4-0.4
		c0-0.5,0.2-1.2,0.7-2.1c0.5-0.9,0.7-1.6,0.7-2.1c0.9-0.7,1.4-1.4,1.4-2.1c-0.5-0.2-0.8-0.4-1.1-0.5c-0.2-0.1-0.8-0.6-1.8-1.6
		c0-0.7-0.7-1-2.1-1c-0.7,0-1.3,0.2-1.8,0.5c-0.5,0.3-1,0.8-1.8,1.2l-0.7-1.4c0.2-0.5,0.3-1,0.3-1.5l-2.8-4.7
		c-0.7-0.5-2-0.9-3.9-1.2c-1.1-0.2-1.8-0.1-2.8,0.1c-1.1,0.2-1.6,0-2.7-0.2c-1.1-0.1-1.9,0.2-2.8,0.9c-0.9,0.7-1.6,1.4-2.3,2.3
		c-0.4,0.4,0.1,1-0.9,0.8c-0.1,0-0.5-0.5-0.9-0.9l16-16c0.1,0.2,0.3,0.4,0.4,0.5c0.2,0.2,0.7,0.8,1.4,1.6c0.5,0.6,1,1.2,1.5,1.9
		C349.2,195.4,350.3,197,351.4,198.7z M313.1,304.1c1.3,1.1,2.9,1.8,4.5,2.3c-4.3,0.9-8.8,1.5-13.3,1.6V293c0,0,0,0,0,0
		c0.8,1.2,1.6,2,2.2,2.4c0.5,0.2,1.5,0.4,3.1,0.5c1.6,0.1,2.4,0.4,2.4,0.9c0,0.5-0.2,1-0.5,1.6c-0.4,0.6-0.5,1.1-0.5,1.6
		C310.9,301.5,311.6,303,313.1,304.1z M304.2,329.4v-16.1c6-0.2,11.8-1,17.4-2.4c0.1,0.1,0.1,0.2,0.1,0.3c0,0.1,0.1,0.3,0.1,0.4
		c1.9,1.4,3.1,2.5,3.5,3.3c0.5,0.9,1.8,1.4,3.9,1.4c1.2,0,1.9-0.2,2.3-0.7c0.3-0.5,0.8-0.9,1.2-1.4c0.5-0.5,1.1-0.8,1.8-1.1
		c0.7-0.2,1.2-0.6,1.4-1.1c1.2-0.5,2-1.2,2.5-2.1c0.9-0.7,1.6-1.6,2.1-2.8c0.5,0,0.9-0.3,1.4-0.9c0.5-0.6,0.9-1.8,1.4-3.7
		c0.2-0.1,0.4-0.2,0.6-0.4c0-0.2,0.1-0.4,0.1-0.5c5.5-3.2,10.5-7,15.1-11.3l11.4,11.3C353.1,318.4,329.9,328.8,304.2,329.4z
		 M374.3,298.2l-11.3-11.4c13.6-14.5,22.1-33.7,22.8-54.9h16.1C401.1,257.5,390.7,280.8,374.3,298.2z M401.8,226.6h-16.1
		c-0.5-17.5-6.5-33.7-16.2-47c-0.2-0.5-0.4-1-0.8-1.5c-0.3-0.3-0.6-0.6-0.9-0.8c-1.3-1.7-2.7-3.3-4.1-4.8c-0.2-0.4-0.3-0.8-0.4-1.1
		l11-11C390.7,177.7,401.1,200.9,401.8,226.6z M304.2,129c25.6,0.7,48.9,11,66.3,27.5l-9.8,9.8c-0.2-0.5-0.4-1-0.5-1.5
		c-0.8-0.7-1.3-1.1-1.5-1.1c-0.9-0.5-1.5-1.2-1.6-2.3c-0.1-1-0.4-1.8-0.9-2.2c-1.4-0.5-2.6-1.5-3.5-3.1c-0.9-1.6-1.9-2.4-2.8-2.4
		c-0.5,0.2-1.2,0.1-2.3-0.3c-1.1-0.4-1.8-0.6-2.3-0.6c-0.9,0-1.8,0.1-2.5,0.4c-0.7,0.2-1.6,0.5-2.8,0.7c-0.1,0.1-0.2,0.2-0.4,0.4
		c-10.4-5.3-22-8.5-34.3-9.1c0.9-1.5,1-2.4,0.3-2.9c-0.2-0.2-0.7,0.1-1.5,0.9V129z M304.2,150.4c11.7,0.4,22.8,3.4,32.7,8.4
		c0,0.1,0,0.2,0,0.2c0.4,0.4,0.9,0.9,1.4,1.5c0.6,0.7,1,1.2,1.2,1.4c0.5,1.6,0.8,2.7,1.1,3.1c0.2,0.5,0.6,1,1.1,1.7
		c-0.2,0.9-0.1,1.9,0.5,3c0.6,1,1.2,2,1.9,3c0.2,0,0.7-0.1,1.4-0.2c0.7-0.1,1.3-0.2,1.8-0.2c0.5,0,1,0.4,1.6,1.1
		c0.6,0.7,1,1.4,1.2,2.1c0.1,0.2,0.2,0.6,0.3,1.2L346,181c0,0,0,0,0,0c-0.9-3.3-1.6-5.2-2.1-5.8c-0.5-0.6-1.4-0.9-2.8-0.9
		c-0.2-0.2-1.1-1.2-2.4-3c-1.4-1.8-2.2-2.7-2.4-2.7c-0.5,0-0.8,0.1-1.1,0.4c0.2,0.5,0.5,0.9,0.7,1.2c0.2,0.4,0.7,1.1,1.4,2.3
		c0,0.5-0.2,0.7-0.7,0.7c0.2,0.9,0.8,1.5,1.8,1.8l-0.3,0.7l1,2.1c-9.9-7.2-21.9-11.7-34.8-12.2V150.4z M304.2,170.9
		c14.1,0.6,26.9,6.3,36.7,15.2l-10.8,10.8c-7-6.2-16-10.2-25.9-10.8V170.9z M304.2,191.5c7.9,0.6,15.1,3.5,20.9,8.2
		c-0.3,0.1-0.6,0.2-0.7,0.4c-0.2,0.2-0.5,0.4-0.7,0.5c-0.2,0.1-0.3,0.4-0.3,0.8c0,0.6,0.8,0.8,1.3,0.9l-4.1,4.1v0
		c-0.7,0.4-1.2,0.8-1.6,1.1c-1,0.5-1.5,0.9-1.6,1.3c-0.1,0.3-0.2,0.7-0.3,1.2l-1.4,1.4c-0.2,0.1-0.4,0.1-0.6,0.1
		c-0.5,0-1.2-0.5-2.2-1.4c-1-0.9-1.7-1.4-2.1-1.4c-0.7,0-1.3,0.2-1.6,0.5c-0.4,0.4-0.8,0.4-1.3,0.2c-0.5-0.5,0.1-1,1.6-1.6
		c1.6-0.6,2.6-1,3.1-1.3c1.9-1.4,2.9-3.3,2.9-5.6c0-1.2-0.5-1.8-1.4-1.8l-1.1,1c-1,0.5-1.8,1-2.5,1.7c-0.7,0.7-1.3,1.2-1.8,1.7
		c-0.5-0.2-1.2-0.4-2.2-0.4h-2.1c0,0-0.1,0.1-0.1,0.1V191.5z M301.1,215.7c0.2,0.4,0.4,0.5,0.6,0.5c0.7,0,1.2,0.2,1.7,0.5
		c0.4,0.3,1,0.4,1.8,0.2c0.1,0.3,0.2,0.5,0.4,0.7c0.2,0.5,0.7,0.7,1.4,0.7c0.2,0.2,0.3,0.3,0.4,0.5c0.1,0.1,0.2,0.3,0.2,0.4
		c0.1,0.4,0.3,0.8,0.6,1.3c0.1,0,0.1,0,0.2,0.1c0.1,0.1,0.1,0.2,0.1,0.3c0.5,0.2,0.9,0.3,1.1,0.2c0.2-0.1,0.5,0,0.9,0.1
		c0,0.3,0,0.5,0.1,0.8h0.2c0,0.3,0.1,0.6,0.1,0.9c0.1,0.6,0.2,1.1,0.2,1.6v0.7c0,0.2-0.1,0.3-0.4,0.3c-0.8,0.7-1.1,1.4-1.1,2.1
		c0,0.5,0.3,0.6,0.9,0.5c0.6-0.1,1.1,0.1,1.3,0.5c0.5,0.5,0.7,1.2,0.7,2.1v3.1c0,0.5,0.2,0.8,0.5,1c0.3,0.2,0.5,0.5,0.5,0.7
		c0,0.7-0.1,1.6-0.4,2.6c-0.2,1-0.6,1.8-1.1,2.3c-0.2,0.2-0.9,0.2-1.8,0c-1-0.2-1.8-0.4-2.5-0.4c-0.5,0-1,0.7-1.5,2.1
		c-0.5,1.2-0.9,2.2-1.1,3.2c-0.2,0.9-0.7,1.4-1.4,1.4c-0.5,0-1,0.1-1.4,0.2c-0.1,0-0.2,0-0.3,0l-1.2,1.9l-0.4,0.5
		c-4.1-0.3-7.8-2-10.7-4.6l1.9-1.9c1.2-0.1,2.4-0.4,3.4-0.8c0.2-0.1,0.4-0.2,0.6-0.2c1.9-0.8,1.7-2.3,2.7-4c0.6-1.1,2.4-2.3,1-3.5
		c1.6-2.8-5.7-2.8-7-2.2c-1.5,0.7-0.5,2.3-1.3,3.6c-0.4,0.6-1.1,0.7-1.7,1.1c-0.7,0.6-2.3,2.3-2.7,3.7l0,0c-0.5-0.8-0.9-1.7-1.2-2.7
		c0.1,0,0.2,0,0.3,0.1c-0.1-0.3-0.2-0.5-0.1-0.6h0.4v0.4c0.9,0.2,1.5,0.2,1.8,0c0.2-0.7,0.4-1.3,0.5-1.9c0.1-0.6,0.8-2,1.9-4.1
		c-0.4-0.2-0.7-0.6-0.8-1.1c-0.1-0.5-0.4-0.6-0.8-0.4c-0.4,0.2-0.7,0.6-0.7,1.1c0,0.5-0.2,0.9-0.7,1.4c-0.5,0.5-0.9,0.7-1.4,0.7
		c0-0.7-0.4-1.1-1.1-1.1c-0.5,0-0.9,0.2-1.4,0.7c-0.5,0-1.6,0.1-3.3,0.4c-1.8,0.2-2.9,0.2-3.3,0c-0.5-0.5,0.1-0.9,1.8-1.4
		c-0.2-1.4,0.3-2.8,1.8-4.2c0.9,0.5,1.6,0.7,2.1,0.7l0.7-0.7h0.4c0.7,0,1.1,0.6,1.2,1.8c0.1,1.2,0.4,1.8,0.9,1.8
		c0.5,0,0.9-0.2,1.4-0.7v-1.8c0.5-1.9,0.8-3.2,1-3.9v-1.1c0.3-0.7,0.7-1.3,1.1-1.7h0.4c0.5-0.4,1-0.6,1.6-0.8c0.5-1,0.7-1.7,0.7-2.2
		c0.7-0.2,1.9-0.7,3.7-1.4c1.8-0.7,2.6-1.4,2.6-2.2c0-0.1,0-0.1,0-0.2c0.8-0.2,1.6-0.3,2.4-0.3C300.7,215.3,300.9,215.5,301.1,215.7
		z M298.9,129v16.1c-21.2,0.7-40.5,9.2-54.9,22.8l-11.3-11.4C250,140,273.3,129.7,298.9,129z M228.9,160.3l11.4,11.4
		c-13.6,14.5-22.1,33.7-22.8,54.9h-16.1C202,200.9,212.4,177.7,228.9,160.3z"/>
	<g>
		<path class="st2" d="M983.6,253.8c0.3,0.4,0.5,0.8,0.8,1.2c-0.2-0.2-0.4-0.4-0.6-0.5C983.8,254.3,983.7,254,983.6,253.8
			 M985.3,272c-8.4-2.4-17-4.7-25.7-6.8c-3.4-5.3-7.5-10.1-12.4-14.4c2-1.8,3.3-4.4,3.5-7.7c0,0,0-0.1,0-0.1c0,0,0-0.1,0-0.1
			c-0.8-14.6-23.2-13.8-23.2,0.5c0,10.4,11.2,13,18.1,8.6c4.1,3.7,7.8,7.9,10.8,12.3c-12-2.8-24.3-5.3-36.6-7
			c-1.1-1.4-2.3-2.8-3.6-4.1c-25.4-27.9-61-44.3-97.4-54.2c28.5-2.8,59.4,4.6,85.2,14c26.3,9.6,56.1,22.7,77.6,42
			C983,260.6,984.3,266.3,985.3,272 M960.8,267.3c1,0.2,2,0.5,3,0.7c-0.9-0.1-1.8-0.2-2.7-0.3C961,267.5,960.9,267.4,960.8,267.3
			 M962.9,277.2c-10.2-0.7-20.5-0.6-30.7,0.2c-1.4-3.1-3.1-6.2-4.9-9.3c10.6-0.7,21.2-0.4,31.8,0.9
			C960.6,271.6,961.8,274.3,962.9,277.2 M933.1,286.9c-2.4-1.5-4.8-2.9-7.3-4c0.5-0.8,0.8-1.8,0.8-2.8c0,0,0-0.1,0-0.1
			c0,0,0-0.1,0-0.1c0-0.1,0-0.1,0-0.2c1.2-0.1,2.5-0.2,3.7-0.3C931.5,281.8,932.4,284.3,933.1,286.9 M894.3,282.9
			c-1.6-2.9-3.4-5.6-5.2-8.3c11.6-3.3,23.5-5.4,35.5-6.3c1.9,3.1,3.6,6.2,5,9.3c-1.1,0.1-2.2,0.2-3.3,0.3c-2.2-5.9-12.2-5-13.1,1.6
			c-3.1,0.5-6.1,1-9.2,1.5C900.8,281.5,897.6,282.1,894.3,282.9 M899.2,299.6c2.1,7.8,2.8,16.3,0.9,24.2
			c-3.2,13.3-13.8,19.3-25.5,19.1c17-11.6,14.8-31.9,3.6-53.9c5-1.6,10-2.9,15-4.1C895.7,289.6,897.8,294.6,899.2,299.6 M825.5,317
			c-8.6-14.1-15.6-28.4-21.1-43.1c12.3-10.4,31.3-15.1,49.1-16.8c0.1,0,0.3,0,0.4,0c6,7.5,11.6,15.2,16.3,22.8
			c-1.2,0.5-2.4,1-3.7,1.5c-3.4-7.3-16.7-5.6-16.7,3.7c-0.1,10.9,16.9,9.8,17.5-0.4c0,0,0,0,0-0.1c0,0,0-0.1,0-0.1
			c0-0.7-0.2-1.4-0.3-2c1.3-0.6,2.6-1.1,3.9-1.6c1.5,2.5,2.9,5,4.2,7.4C856.6,294.4,838.8,303.6,825.5,317 M789.3,206.3
			c3.4-1.4,6.8-2.7,10.4-3.7c15,12,35.8,31.7,53,52.9c-4.5,0.5-8.9,1.2-13.3,2c-13.6,2.5-26.4,7.1-35.7,14.6
			C796,251.2,791.3,229.5,789.3,206.3 M781.8,208.9c1.3-3.6,2.9-7.1,4.6-10.6c0.2,2.7,0.3,5.4,0.6,8.1
			C785.2,207.2,783.4,208.1,781.8,208.9 M775.9,262.6c-1.5,0.9-2.5,2.4-2.7,4.6c-4.5-18.7-3-37.1,4.2-54.5c0.3-0.2,0.7-0.4,1-0.6
			C772.9,228.3,771.7,245.6,775.9,262.6 M781.7,203.5c-1,2.3-1.9,4.6-2.8,7c-0.3,0.2-0.6,0.3-0.9,0.5
			C779.1,208.5,780.4,206,781.7,203.5 M786.5,182.1c-0.3,1.1-0.5,2.1-0.8,3.2c-0.2-0.9-0.5-1.9-0.6-2.8
			C785.6,182.3,786.1,182.2,786.5,182.1 M785.5,158.3c4.3-1.2,8.6-2.2,13-3.1c-5,7.9-8.9,16.3-11.5,25.5c-0.7,0.2-1.4,0.4-2,0.6
			C783.3,173.2,783.1,165.8,785.5,158.3 M818.2,152.6c-9.6,7.5-18,16.3-24.7,26.4c-1.4,0.3-2.7,0.7-4.1,1.1
			c2.6-9.2,6.6-17.5,11.6-25.3C806.7,153.7,812.5,153,818.2,152.6 M839.4,141.1c2.4,0.2,4.8,0.4,7.2,0.6c-0.7,0.3-1.3,0.5-2,0.8
			c-5.9,2.5-11.5,5.4-16.8,8.7c-1.6,0-3.3,0.1-4.9,0.2C828.1,147.6,833.6,144.1,839.4,141.1 M888.9,152.7c-1.3,0.2-2.5,0.3-3.7,0.5
			c-4.6,0.6-9.3,1.4-13.9,2.4c-13.1-3.1-26.5-4.6-40-4.5c3.6-2.1,7.3-4,11.1-5.8c2.5-1.2,5.1-2.2,7.7-3.2
			C863.5,144,876.5,147.6,888.9,152.7 M949,155.3c25.4,27.1,38,61.4,39.2,99c-4.1-9.5-9.3-18.7-15.4-27.4
			c-16.7-32.6-44.7-58.7-78-73.7C912.3,151.4,931.5,151.3,949,155.3 M979.9,242.6c1.2,2.2,2.4,4.5,3.5,6.7c-0.7-0.9-1.4-1.9-2-2.8
			C980.9,245.2,980.4,243.9,979.9,242.6 M873.5,156.1c5-1,10-1.8,15-2.4c0.7-0.1,1.5-0.2,2.2-0.2c28.5,12.3,53.2,32.7,70.5,58.5
			c-10.3-12-22.1-22.6-34.4-31.3C910.5,169,892.4,160.9,873.5,156.1 M818.4,174.7c16.3-8.2,34-14.2,51.7-17.9
			c23.5,5.8,45.8,16.7,65.1,32.8c12.9,10.8,25.2,23.7,35.3,38.1c2.1,4.1,4,8.2,5.7,12.5C938.1,193.8,877.6,169,818.4,174.7
			 M790.1,192.6c-0.1,0-0.4,0-0.6,0.1c0,0-0.1,0-0.1-0.1c8.1-6.1,16.8-11.6,26-16.4c61.9-6.9,125.6,20.8,163.5,71.1
			c0.5,1.4,1,2.9,1.4,4.3c-9.7-7.8-20.9-14.2-31.6-20c-20.4-11.1-42.2-20.2-64.6-26.3c-21.4-5.8-45.1-9.3-67.4-6.7
			C807.8,196.2,798.9,194.2,790.1,192.6 M805.8,200.3c-3-1.8-6-3.4-9.1-4.9c5.3,1.1,10.6,2.3,15.9,3.7
			C810.3,199.4,808,199.9,805.8,200.3 M872.8,254.2c-11.7-12.8-25-24.2-38.7-34.5c-8.7-6.6-17.8-13.2-27.4-18.8
			c2.5-0.5,5.1-1,7.7-1.3c36.3,9.5,72,25.5,97.8,52.8c1.4,1.5,2.8,3,4.1,4.6C901.8,254.9,887.2,253.9,872.8,254.2 M804,201.5
			c24,13.3,46.5,32.6,64.8,51.9c0.3,0.3,0.6,0.6,0.9,1c-4.7,0.2-9.4,0.5-14.1,0.9c-17.1-21.3-37.8-41-53.2-53.4
			C802.9,201.7,803.5,201.6,804,201.5 M796.9,197.7c2.1,1,4.1,2.1,6.2,3.2c-0.5,0.1-1,0.3-1.5,0.4C800,200,798.4,198.8,796.9,197.7
			 M788.5,194.4c2.9,1.9,6.5,4.5,10.4,7.6c-3.3,1-6.5,2.1-9.7,3.4C788.9,201.8,788.7,198.1,788.5,194.4 M789.8,184.9
			c-0.6,0.7-1.2,1.4-1.7,2.1c-0.4,0.5-0.2,0.8,0.1,1c-0.3,0.6-0.6,1.2-0.9,1.7c0.5-2.9,1.1-5.7,1.8-8.4c1.2-0.3,2.3-0.6,3.5-0.9
			C791.6,181.9,790.7,183.4,789.8,184.9 M799.1,174.6c6.3-8.4,13.9-15.8,22.4-22.2c1.6-0.1,3.1-0.2,4.7-0.2
			C816.3,158.5,807.3,166.1,799.1,174.6 M788.7,191.5c1-2.1,2.1-4.2,3.2-6.2c1.8-2.1,3.6-4.1,5.4-6.2c5-1.1,10-2,15.1-2.7
			C804.1,181,796.2,186,788.7,191.5 M867.9,156.3c-18,4-35.9,10.2-52.5,18.7c-5.6,0.6-11.2,1.6-16.7,2.7
			c9.2-9.9,19.4-18.6,30.9-25.6C842.6,152,855.4,153.4,867.9,156.3 M887.1,275.2c1.9,2.7,3.6,5.4,5.2,8.2c-5,1.2-10,2.6-14.9,4.1
			c-1.3-2.5-2.7-5-4.3-7.6C877.7,278.2,882.3,276.6,887.1,275.2 M872.4,278.9c-4.5-7.4-9.9-14.8-15.6-22.1c4.8-0.4,9.6-0.7,14.5-0.8
			c5.2,5.6,10.4,11.6,15.1,18.1C881.6,275.5,877,277.1,872.4,278.9 M921.3,259.4c12.2,1.8,24.4,4.3,36.4,7.1
			c0.2,0.3,0.3,0.5,0.5,0.8c-10.5-1.1-21.1-1.3-31.6-0.5C924.9,264.3,923.2,261.8,921.3,259.4 M923.8,267c-12,1-23.9,3.2-35.4,6.5
			c-0.3-0.4-0.5-0.8-0.8-1.1c-4.1-5.7-8.5-11.2-13.2-16.4c14.5-0.1,29.1,1,43.6,3C920.1,261.6,922,264.3,923.8,267 M977.2,166.9
			c1.2-0.8,2-2,2.1-3.6c0,0,0,0,0-0.1c0,0,0-0.1,0-0.1c-0.3-6.1-10.2-5.2-10.2,0.6c0,3.5,3.1,4.7,5.9,4.1
			c13.1,25,19.5,54.1,15.5,82.3c-1.8-35.5-14-68-37.6-93.9c3.1,0.8,6.1,1.8,9,2.9c0.6,0.2,2.7-0.7,1.9-1c-4.1-1.6-8.4-2.8-12.7-3.8
			c-2.8-3-5.8-5.9-8.9-8.7c0.5-0.7,0.8-1.5,0.8-2.4c-0.3-6.3-10.2-6-10.3,0.2c-0.1,4.5,4.9,5.6,7.9,3.7c2.3,2.1,4.5,4.3,6.7,6.5
			c-17.7-3.5-36.8-3.1-54.4-1.2c-12.4-5.4-25.5-9.3-39.1-11.4c21.9-7.4,45.6-8.9,68.7-6.7c1.1,7.9,14,7.1,14.4-1.4
			c-0.5-8.9-13.7-8.8-14.5-0.4c-24.3-2.2-49.3-0.4-72.2,8c-2.5-0.3-5.1-0.6-7.7-0.8c22.7-11.3,48.8-16.5,73.2-15
			c1.2,0.1,2.4-1.6,0.8-1.7c-25.9-1.6-53.6,4.2-77.4,16.5c-4.8-0.3-9.7-0.4-14.6-0.2c-1.4,0-1.8,1.9-0.2,1.8
			c3.9-0.1,7.8-0.1,11.7,0.1c-5.8,3.2-11.3,6.8-16.5,10.7c-6,0.4-11.9,1.2-17.8,2.2c4.3-6.6,9.4-12.9,14.9-18.9c3,1.5,7.8-0.1,8-4.2
			c-0.3-6.3-10.2-5.9-10.3,0.2c0,1.2,0.3,2.2,0.9,2.9c-6,6.5-11.5,13.3-16.2,20.5c-4.4,0.9-8.9,1.9-13.2,3.1c1-2.8,2.3-5.6,4.1-8.5
			c2.9,1.4,7.9-0.4,8.1-4.2c-0.3-6-10.2-4.9-10.2,0.6c0,1,0.3,1.7,0.7,2.3c-2.3,3.5-4,7-5.1,10.4c-2,0.6-3.9,1.2-5.9,1.8
			c-1.6,0.5-0.1,0.9,0.8,0.6c1.6-0.5,3.2-1,4.8-1.5c-2.3,7.5-2.1,15-0.4,23.1c-1.4,0.5-2.8,0.9-4.2,1.4c-0.7-1.4-2.2-2.4-3.9-2.4
			c-2.4,0-4.4,2-4.4,4.4c0,2.4,2,4.4,4.4,4.4c2.4,0,4.4-2,4.4-4.4c0-0.3,0-0.6-0.1-0.8c1.3-0.5,2.7-0.9,4.1-1.4
			c0.5,2.5,1.2,5.1,2,7.7c0,0,0,0,0,0c0.1,0.5,0.3,1,0.4,1.5c0,0.1,0.1,0.2,0.2,0.2c-7,0.8-13.6,1.9-19.7,5.9
			c-10.4,6.8-15.8,19.3-15.2,31.5c0,0.4,2.4,0,2.4-0.6c-0.6-10,3-20.2,10.2-27.2c6.4-6.2,14-7.9,22.4-8.7
			c-4.3,6.3-7.9,12.9-10.6,19.6c-2.8,1.8-5.5,3.8-8.1,6.1c-3.8-2.5-10.2-0.7-10.3,5c-0.1,8.2,12.6,7.7,13-0.2c-0.1-1.7-0.7-3-1.7-4
			c2.1-1.8,4.2-3.5,6.4-5.1c-7.5,19.6-8,40.5-0.8,61.6c-1.3,0.8-2.3,2.1-2.3,4c-0.1,6.4,9.9,5.9,10.3-0.2c-0.2-3.3-3-4.8-5.6-4.6
			c-0.5-1.5-1-3-1.4-4.5c3.1,4,11.4,2.5,11.8-3.9c-0.2-4.6-4.4-6.4-7.9-5.7c-4.2-17.2-2.7-34.9,3.1-51.4c1.9-1.1,3.8-2,5.7-2.9
			c2,23.3,6.9,45.3,14.7,66.4c-9.9,8.9-15.1,21.4-11.8,38.8c0.2,0.9,2.5,0.3,2.4-0.6c-3.1-16.3,1.5-28,10.2-36.3
			c5.6,14.7,12.7,29.1,21.4,43.1c-4.4,4.6-8.2,9.8-11.4,15.4c-0.7,1.2,1.7,1.3,2.3,0.3c2.8-5.1,6.3-9.8,10.2-14.1
			c0.2,0.3,0.4,0.7,0.6,1c-1.1,0.8-1.8,2-1.8,3.5c0,6.1,9.9,4.9,10.2-0.6c-0.2-3.4-3.5-4.6-6.3-3.9c-0.4-0.6-0.7-1.2-1.1-1.8
			c13.1-13.5,30.8-22.7,49.4-28.9c11.4,22,13.6,42.1-4,53c-2.2-0.2-4.5-0.7-6.7-1.3c0.1-0.3,0.1-0.5,0.1-0.8
			c-0.3-6.3-10.2-5.9-10.3,0.2c-0.1,5.3,6.7,5.8,9.3,2.4c1.6,0.5,3.1,0.9,4.7,1.2c-4.8,2.4-10.7,4.3-18,5.5
			c-1.2,0.2-1.9,1.9-0.2,1.6c8.6-1.4,15.5-3.7,20.8-6.7c13.2,1.6,25.5-3.5,30.3-18.7c4.6-14.5,0.4-28.9-6.6-41.7
			c6.1-1.4,12.1-2.4,18-3.3c0.7,5.6,7.7,6.5,11.4,3.3c3.2,1.5,6.4,3.4,9.4,5.5c4.2,17,1.3,34.9-10,52.9c-0.6,0.9,1.8,0.7,2.2,0
			c10.7-17.1,14-34.3,10.8-50.7c10.6,8.4,17.8,20.4,11.7,34.2c-0.5,1.2,1.8,1.2,2.3,0.3c6.9-15.5-2.3-28.8-14.7-37.7
			c-0.8-3.3-1.9-6.6-3.3-9.8c10.2-0.7,20.5-0.7,30.7,0c3.2,9.3,4.3,19.4,2.7,29.8c-0.1,0.7,2.2,0.3,2.3-0.4
			c1.5-10.2,0.6-20.1-2.4-29.2c5.8,0.5,11.6,1.2,17.3,2.2c1.2,0.2,2.4-1.5,0.8-1.8c-6.2-1.1-12.5-1.9-18.8-2.4
			c-1-2.8-2.2-5.5-3.7-8.1c8,1.1,15.9,2.7,23.8,4.8c0.5,0.7,2.4,0.2,2.2-0.9c-0.8-5-1.8-10-3.1-14.9c0.9,0.9,1.9,1.8,2.8,2.8
			c0.2,0.2,0.5,0.1,1,0c0.5,0.4,2,0.1,2.2-0.7C998.4,228.8,992,195.2,977.2,166.9"/>
	</g>
	<g>
		<path class="st2" d="M1472.7,129.6l3.8,25.3h0.1l4-25.3h6.6l4,25.3h0.1l3.8-25.3h6.6l-6.2,34.3h-7.7L1484,139h-0.1l-3.8,24.9h-7.7
			l-6.2-34.3H1472.7z"/>
		<path class="st2" d="M1508.7,154c0,0.8,0.1,1.5,0.2,2.2c0.1,0.7,0.3,1.4,0.6,1.9c0.3,0.6,0.6,1,1,1.3s0.9,0.5,1.5,0.5
			c1.1,0,1.9-0.4,2.4-1.2c0.5-0.8,0.9-2,1.1-3.6h6c-0.1,3-0.9,5.3-2.4,6.9c-1.5,1.6-3.8,2.4-7,2.4c-2.4,0-4.3-0.4-5.6-1.2
			s-2.3-1.9-3-3.2c-0.6-1.3-1-2.8-1.2-4.4c-0.1-1.6-0.2-3.3-0.2-4.9c0-1.7,0.1-3.4,0.4-5c0.2-1.6,0.7-3,1.4-4.3s1.8-2.2,3.1-3
			c1.3-0.7,3.1-1.1,5.4-1.1c1.9,0,3.5,0.3,4.7,0.9c1.2,0.6,2.2,1.5,2.9,2.6c0.7,1.1,1.2,2.5,1.4,4.1c0.3,1.6,0.4,3.4,0.4,5.4v1.5
			h-13.1V154z M1515.3,145.4c-0.1-0.8-0.3-1.4-0.5-1.9c-0.2-0.5-0.6-0.9-1-1.2c-0.4-0.3-1-0.4-1.7-0.4s-1.2,0.2-1.7,0.5
			c-0.4,0.3-0.8,0.7-1,1.2c-0.3,0.5-0.4,1-0.6,1.7c-0.1,0.6-0.2,1.2-0.2,1.8v1h6.8C1515.4,147,1515.4,146.1,1515.3,145.4z"/>
		<path class="st2" d="M1524.7,145.3c0-1.5,0.2-2.8,0.7-3.8c0.5-1,1.1-1.8,1.9-2.4c0.8-0.6,1.8-1.1,2.9-1.3c1.1-0.3,2.3-0.4,3.5-0.4
			c2,0,3.6,0.2,4.8,0.6c1.2,0.4,2.2,0.9,2.8,1.6c0.7,0.7,1.1,1.5,1.4,2.5c0.2,1,0.4,2,0.4,3.2v13.6c0,1.2,0.1,2.2,0.2,2.8
			s0.3,1.4,0.6,2.2h-6.3c-0.2-0.4-0.4-0.9-0.5-1.3c-0.1-0.5-0.2-0.9-0.3-1.4h-0.1c-0.8,1.3-1.7,2.2-2.7,2.6c-1,0.4-2.3,0.6-3.9,0.6
			c-1.2,0-2.1-0.2-2.9-0.6c-0.8-0.4-1.4-1-1.9-1.7c-0.5-0.7-0.8-1.5-1.1-2.4s-0.3-1.8-0.3-2.6c0-1.2,0.1-2.3,0.4-3.1
			c0.3-0.9,0.6-1.6,1.2-2.3c0.5-0.6,1.2-1.1,2-1.6s1.8-0.8,3-1.1l3.7-1c1-0.3,1.7-0.6,2.1-1.1c0.4-0.4,0.6-1.1,0.6-2
			c0-1-0.2-1.8-0.7-2.3s-1.3-0.8-2.4-0.8c-1,0-1.8,0.3-2.3,0.9c-0.5,0.6-0.8,1.4-0.8,2.4v0.7h-6V145.3z M1535.4,151.8
			c-0.5,0.2-1,0.4-1.4,0.5c-1.3,0.3-2.3,0.8-2.9,1.4s-0.9,1.6-0.9,2.7c0,1,0.2,1.8,0.6,2.5c0.4,0.7,1,1.1,1.9,1.1
			c0.4,0,0.9-0.1,1.4-0.2c0.5-0.1,0.9-0.4,1.3-0.7c0.4-0.3,0.7-0.7,1-1.2c0.3-0.5,0.4-1.1,0.4-1.8v-5.1
			C1536.4,151.3,1535.9,151.5,1535.4,151.8z"/>
		<path class="st2" d="M1555.4,130.6v7.4h3.8v4.5h-3.8v14c0,1,0.2,1.8,0.5,2.2c0.3,0.4,0.9,0.6,1.9,0.6c0.3,0,0.5,0,0.8,0
			c0.3,0,0.5,0,0.7-0.1v4.6c-0.7,0-1.4,0-2.1,0.1s-1.4,0.1-2.2,0.1c-1.3,0-2.3-0.1-3.1-0.3c-0.8-0.2-1.4-0.5-1.9-1.1
			c-0.4-0.5-0.7-1.2-0.9-2.1c-0.2-0.9-0.2-2-0.2-3.3v-14.8h-3.4V138h3.4v-7.4H1555.4z"/>
		<path class="st2" d="M1567.7,129.6v11.1h0.1c1.3-2.2,3.4-3.3,6.3-3.3c2.1,0,3.7,0.6,4.9,1.7c1.1,1.2,1.7,3,1.7,5.6v19.2h-6.6V146
			c0-1.3-0.2-2.3-0.7-2.8c-0.4-0.5-1.2-0.8-2.2-0.8c-2.3,0-3.5,1.4-3.5,4.3v17.1h-6.6v-34.3H1567.7z"/>
		<path class="st2" d="M1590.3,154c0,0.8,0.1,1.5,0.2,2.2c0.1,0.7,0.3,1.4,0.6,1.9c0.3,0.6,0.6,1,1,1.3s0.9,0.5,1.5,0.5
			c1.1,0,1.9-0.4,2.4-1.2c0.5-0.8,0.9-2,1.1-3.6h6c-0.1,3-0.9,5.3-2.4,6.9c-1.5,1.6-3.8,2.4-7,2.4c-2.4,0-4.3-0.4-5.6-1.2
			s-2.3-1.9-3-3.2c-0.6-1.3-1-2.8-1.2-4.4c-0.1-1.6-0.2-3.3-0.2-4.9c0-1.7,0.1-3.4,0.4-5c0.2-1.6,0.7-3,1.4-4.3s1.8-2.2,3.1-3
			c1.3-0.7,3.1-1.1,5.4-1.1c1.9,0,3.5,0.3,4.7,0.9c1.2,0.6,2.2,1.5,2.9,2.6c0.7,1.1,1.2,2.5,1.4,4.1c0.3,1.6,0.4,3.4,0.4,5.4v1.5
			h-13.1V154z M1596.9,145.4c-0.1-0.8-0.3-1.4-0.5-1.9c-0.2-0.5-0.6-0.9-1-1.2c-0.4-0.3-1-0.4-1.7-0.4s-1.2,0.2-1.7,0.5
			c-0.4,0.3-0.8,0.7-1,1.2c-0.3,0.5-0.4,1-0.6,1.7c-0.1,0.6-0.2,1.2-0.2,1.8v1h6.8C1597,147,1597,146.1,1596.9,145.4z"/>
		<path class="st2" d="M1612.7,138v3.5h0.1c0.7-1.2,1.5-2.2,2.4-3c1-0.8,2.1-1.1,3.5-1.1c0.2,0,0.4,0,0.6,0c0.2,0,0.4,0,0.6,0.1v6.3
			c-0.4,0-0.7-0.1-1-0.1c-0.3,0-0.7,0-1,0c-0.6,0-1.2,0.1-1.7,0.2s-1.1,0.4-1.6,0.8c-0.5,0.4-0.9,0.8-1.2,1.4
			c-0.3,0.6-0.4,1.3-0.4,2.2v15.5h-6.6V138H1612.7z"/>
		<path class="st2" d="M1467.8,202.9c0-1.5,0.2-2.8,0.7-3.8c0.5-1,1.1-1.8,1.9-2.4c0.8-0.6,1.8-1.1,2.9-1.3c1.1-0.3,2.3-0.4,3.5-0.4
			c2,0,3.6,0.2,4.8,0.6c1.2,0.4,2.2,0.9,2.8,1.6c0.7,0.7,1.1,1.5,1.4,2.5c0.2,1,0.4,2,0.4,3.2v13.6c0,1.2,0.1,2.2,0.2,2.8
			s0.3,1.4,0.6,2.2h-6.3c-0.2-0.4-0.4-0.9-0.5-1.3c-0.1-0.5-0.2-0.9-0.3-1.4h-0.1c-0.8,1.3-1.7,2.2-2.7,2.6c-1,0.4-2.3,0.6-3.9,0.6
			c-1.2,0-2.1-0.2-2.9-0.6c-0.8-0.4-1.4-1-1.9-1.7c-0.5-0.7-0.8-1.5-1.1-2.4s-0.3-1.8-0.3-2.6c0-1.2,0.1-2.3,0.4-3.1
			c0.3-0.9,0.6-1.6,1.2-2.3c0.5-0.6,1.2-1.1,2-1.6s1.8-0.8,3-1.1l3.7-1c1-0.3,1.7-0.6,2.1-1.1c0.4-0.4,0.6-1.1,0.6-2
			c0-1-0.2-1.8-0.7-2.3s-1.3-0.8-2.4-0.8c-1,0-1.8,0.3-2.3,0.9c-0.5,0.6-0.8,1.4-0.8,2.4v0.7h-6V202.9z M1478.5,209.4
			c-0.5,0.2-1,0.4-1.4,0.5c-1.3,0.3-2.3,0.8-2.9,1.4s-0.9,1.6-0.9,2.7c0,1,0.2,1.8,0.6,2.5c0.4,0.7,1,1.1,1.9,1.1
			c0.4,0,0.9-0.1,1.4-0.2c0.5-0.1,0.9-0.4,1.3-0.7c0.4-0.3,0.7-0.7,1-1.2c0.3-0.5,0.4-1.1,0.4-1.8v-5.1
			C1479.5,208.9,1479,209.1,1478.5,209.4z"/>
		<path class="st2" d="M1496.8,195.6v3h0.1c0.7-1.3,1.6-2.2,2.7-2.8c1.1-0.6,2.4-0.9,3.8-0.9c2.1,0,3.7,0.6,4.9,1.7
			c1.1,1.2,1.7,3,1.7,5.6v19.2h-6.6v-17.8c0-1.3-0.2-2.3-0.7-2.8c-0.4-0.5-1.2-0.8-2.2-0.8c-2.3,0-3.5,1.4-3.5,4.3v17.1h-6.6v-25.8
			H1496.8z"/>
		<path class="st2" d="M1527.2,218.7c-0.7,1.2-1.6,2.1-2.5,2.5c-0.9,0.5-2,0.7-3.4,0.7c-2.7,0-4.7-1-6-3.1
			c-1.3-2.1-1.9-5.5-1.9-10.3s0.6-8.3,1.9-10.4c1.3-2.1,3.3-3.2,6-3.2c1.2,0,2.3,0.3,3.2,0.8c0.9,0.5,1.7,1.3,2.4,2.3h0.1v-10.8h6.6
			v34.3h-6.3L1527.2,218.7L1527.2,218.7z M1520.7,214.9c0.4,1.4,1.4,2.1,2.8,2.1c1.5,0,2.4-0.7,2.9-2.1c0.4-1.4,0.6-3.5,0.6-6.4
			c0-2.8-0.2-4.9-0.6-6.4c-0.4-1.4-1.4-2.1-2.9-2.1c-1.4,0-2.4,0.7-2.8,2.1c-0.4,1.4-0.6,3.5-0.6,6.4
			C1520,211.3,1520.2,213.4,1520.7,214.9z"/>
		<path class="st2" d="M1560.9,203c-0.1-0.6-0.2-1.2-0.4-1.7s-0.5-0.9-0.9-1.2c-0.4-0.3-0.9-0.5-1.5-0.5c-0.8,0-1.5,0.2-2,0.6
			c-0.5,0.4-0.9,0.9-1.2,1.6c-0.3,0.7-0.4,1.6-0.5,2.7c-0.1,1.1-0.1,2.4-0.1,3.9c0,1.6,0,3,0.1,4.1c0.1,1.1,0.3,2.1,0.5,2.8
			c0.3,0.7,0.6,1.3,1.1,1.6s1.1,0.5,1.8,0.5c1.1,0,1.9-0.5,2.4-1.4c0.5-1,0.8-2.5,0.8-4.6h6.3c0,3.4-0.8,6-2.3,7.8
			c-1.5,1.8-4,2.7-7.6,2.7c-1.7,0-3.1-0.2-4.3-0.6c-1.2-0.4-2.3-1.1-3.1-2.2c-0.8-1-1.4-2.4-1.8-4.2c-0.4-1.7-0.6-3.9-0.6-6.5
			c0-2.7,0.3-4.9,0.8-6.6s1.2-3.1,2.2-4.2c0.9-1,2-1.8,3.3-2.2c1.3-0.4,2.7-0.6,4.2-0.6c3.1,0,5.4,0.9,6.9,2.7
			c1.6,1.8,2.3,4.2,2.3,7.3h-6.3C1561,204.3,1561,203.6,1560.9,203z"/>
		<path class="st2" d="M1576.2,187.2v34.3h-6.6v-34.3H1576.2z"/>
		<path class="st2" d="M1587.3,186.8v5.7h-6.6v-5.7H1587.3z M1587.3,195.6v25.8h-6.6v-25.8H1587.3z"/>
		<path class="st2" d="M1597.8,195.6v2.6h0.1c0.8-1.2,1.8-2,2.8-2.5c1-0.5,2.3-0.8,3.7-0.8c1.5,0,2.8,0.4,3.9,1.1
			c1,0.7,1.7,1.7,2.1,3.1h0.1c0.5-1.4,1.3-2.4,2.5-3.1c1.1-0.7,2.5-1,4.1-1c2.2,0,3.8,0.7,4.9,2c1,1.3,1.6,3.2,1.6,5.7v18.8h-6.6
			v-18c0-1.1-0.2-1.9-0.6-2.5c-0.4-0.6-1.1-0.9-2-0.9c-1.1,0-1.9,0.4-2.5,1.1s-0.9,1.8-0.9,3.4v17h-6.6v-18c0-1.1-0.2-1.9-0.6-2.5
			c-0.4-0.6-1.1-0.9-2-0.9c-1.1,0-1.9,0.4-2.5,1.1s-0.9,1.8-0.9,3.4v17h-6.6v-25.8H1597.8z"/>
		<path class="st2" d="M1627.3,202.9c0-1.5,0.2-2.8,0.7-3.8c0.5-1,1.1-1.8,1.9-2.4c0.8-0.6,1.8-1.1,2.9-1.3c1.1-0.3,2.3-0.4,3.5-0.4
			c2,0,3.6,0.2,4.8,0.6c1.2,0.4,2.2,0.9,2.8,1.6c0.7,0.7,1.1,1.5,1.4,2.5c0.2,1,0.4,2,0.4,3.2v13.6c0,1.2,0.1,2.2,0.2,2.8
			s0.3,1.4,0.6,2.2h-6.3c-0.2-0.4-0.4-0.9-0.5-1.3c-0.1-0.5-0.2-0.9-0.3-1.4h-0.1c-0.8,1.3-1.7,2.2-2.7,2.6c-1,0.4-2.3,0.6-3.9,0.6
			c-1.2,0-2.1-0.2-2.9-0.6c-0.8-0.4-1.4-1-1.9-1.7c-0.5-0.7-0.8-1.5-1.1-2.4s-0.3-1.8-0.3-2.6c0-1.2,0.1-2.3,0.4-3.1
			c0.3-0.9,0.6-1.6,1.2-2.3c0.5-0.6,1.2-1.1,2-1.6s1.8-0.8,3-1.1l3.7-1c1-0.3,1.7-0.6,2.1-1.1c0.4-0.4,0.6-1.1,0.6-2
			c0-1-0.2-1.8-0.7-2.3s-1.3-0.8-2.4-0.8c-1,0-1.8,0.3-2.3,0.9c-0.5,0.6-0.8,1.4-0.8,2.4v0.7h-6V202.9z M1638,209.4
			c-0.5,0.2-1,0.4-1.4,0.5c-1.3,0.3-2.3,0.8-2.9,1.4s-0.9,1.6-0.9,2.7c0,1,0.2,1.8,0.6,2.5c0.4,0.7,1,1.1,1.9,1.1
			c0.4,0,0.9-0.1,1.4-0.2c0.5-0.1,0.9-0.4,1.3-0.7c0.4-0.3,0.7-0.7,1-1.2c0.3-0.5,0.4-1.1,0.4-1.8v-5.1
			C1638.9,208.9,1638.5,209.1,1638,209.4z"/>
		<path class="st2" d="M1658,188.2v7.4h3.8v4.5h-3.8v14c0,1,0.2,1.8,0.5,2.2c0.3,0.4,0.9,0.6,1.9,0.6c0.3,0,0.5,0,0.8,0
			c0.3,0,0.5,0,0.7-0.1v4.6c-0.7,0-1.4,0-2.1,0.1s-1.4,0.1-2.2,0.1c-1.3,0-2.3-0.1-3.1-0.3c-0.8-0.2-1.4-0.5-1.9-1.1
			c-0.4-0.5-0.7-1.2-0.9-2.1c-0.2-0.9-0.2-2-0.2-3.3v-14.8h-3.4v-4.5h3.4v-7.4H1658z"/>
		<path class="st2" d="M1669.3,211.6c0,0.8,0.1,1.5,0.2,2.2c0.1,0.7,0.3,1.4,0.6,1.9c0.3,0.6,0.6,1,1,1.3s0.9,0.5,1.5,0.5
			c1.1,0,1.9-0.4,2.4-1.2c0.5-0.8,0.9-2,1.1-3.6h6c-0.1,3-0.9,5.3-2.4,6.9c-1.5,1.6-3.8,2.4-7,2.4c-2.4,0-4.3-0.4-5.6-1.2
			s-2.3-1.9-3-3.2c-0.6-1.3-1-2.8-1.2-4.4c-0.1-1.6-0.2-3.3-0.2-4.9c0-1.7,0.1-3.4,0.4-5c0.2-1.6,0.7-3,1.4-4.3s1.8-2.2,3.1-3
			c1.3-0.7,3.1-1.1,5.4-1.1c1.9,0,3.5,0.3,4.7,0.9c1.2,0.6,2.2,1.5,2.9,2.6c0.7,1.1,1.2,2.5,1.4,4.1c0.3,1.6,0.4,3.4,0.4,5.4v1.5
			h-13.1V211.6z M1675.9,203c-0.1-0.8-0.3-1.4-0.5-1.9c-0.2-0.5-0.6-0.9-1-1.2c-0.4-0.3-1-0.4-1.7-0.4s-1.2,0.2-1.7,0.5
			c-0.4,0.3-0.8,0.7-1,1.2c-0.3,0.5-0.4,1-0.6,1.7c-0.1,0.6-0.2,1.2-0.2,1.8v1h6.8C1676.1,204.6,1676,203.7,1675.9,203z"/>
		<path class="st2" d="M1481,276.3c-0.7,1.2-1.6,2.1-2.5,2.5c-0.9,0.5-2,0.7-3.4,0.7c-2.7,0-4.7-1-6-3.1c-1.3-2.1-1.9-5.5-1.9-10.3
			s0.6-8.3,1.9-10.4c1.3-2.1,3.3-3.2,6-3.2c1.2,0,2.3,0.3,3.2,0.8c0.9,0.5,1.7,1.3,2.4,2.3h0.1v-10.8h6.6V279h-6.3L1481,276.3
			L1481,276.3z M1474.5,272.5c0.4,1.4,1.4,2.1,2.8,2.1c1.5,0,2.4-0.7,2.9-2.1c0.4-1.4,0.6-3.5,0.6-6.4c0-2.8-0.2-4.9-0.6-6.4
			c-0.4-1.4-1.4-2.1-2.9-2.1c-1.4,0-2.4,0.7-2.8,2.1c-0.4,1.4-0.6,3.5-0.6,6.4C1473.9,268.9,1474.1,271,1474.5,272.5z"/>
		<path class="st2" d="M1491.4,260.5c0-1.5,0.2-2.8,0.7-3.8c0.5-1,1.1-1.8,1.9-2.4c0.8-0.6,1.8-1.1,2.9-1.3c1.1-0.3,2.3-0.4,3.5-0.4
			c2,0,3.6,0.2,4.8,0.6c1.2,0.4,2.2,0.9,2.8,1.6c0.7,0.7,1.1,1.5,1.4,2.5c0.2,1,0.4,2,0.4,3.2V274c0,1.2,0.1,2.2,0.2,2.8
			s0.3,1.4,0.6,2.2h-6.3c-0.2-0.4-0.4-0.9-0.5-1.3c-0.1-0.5-0.2-0.9-0.3-1.4h-0.1c-0.8,1.3-1.7,2.2-2.7,2.6c-1,0.4-2.3,0.6-3.9,0.6
			c-1.2,0-2.1-0.2-2.9-0.6c-0.8-0.4-1.4-1-1.9-1.7c-0.5-0.7-0.8-1.5-1.1-2.4s-0.3-1.8-0.3-2.6c0-1.2,0.1-2.3,0.4-3.1
			c0.3-0.9,0.6-1.6,1.2-2.3c0.5-0.6,1.2-1.1,2-1.6s1.8-0.8,3-1.1l3.7-1c1-0.3,1.7-0.6,2.1-1.1c0.4-0.4,0.6-1.1,0.6-2
			c0-1-0.2-1.8-0.7-2.3s-1.3-0.8-2.4-0.8c-1,0-1.8,0.3-2.3,0.9c-0.5,0.6-0.8,1.4-0.8,2.4v0.7h-6V260.5z M1502,267
			c-0.5,0.2-1,0.4-1.4,0.5c-1.3,0.3-2.3,0.8-2.9,1.4s-0.9,1.6-0.9,2.7c0,1,0.2,1.8,0.6,2.5c0.4,0.7,1,1.1,1.9,1.1
			c0.4,0,0.9-0.1,1.4-0.2c0.5-0.1,0.9-0.4,1.3-0.7c0.4-0.3,0.7-0.7,1-1.2c0.3-0.5,0.4-1.1,0.4-1.8v-5.1
			C1503,266.5,1502.5,266.7,1502,267z"/>
		<path class="st2" d="M1522.1,245.8v7.4h3.8v4.5h-3.8v14c0,1,0.2,1.8,0.5,2.2c0.3,0.4,0.9,0.6,1.9,0.6c0.3,0,0.5,0,0.8,0
			c0.3,0,0.5,0,0.7-0.1v4.6c-0.7,0-1.4,0-2.1,0.1s-1.4,0.1-2.2,0.1c-1.3,0-2.3-0.1-3.1-0.3c-0.8-0.2-1.4-0.5-1.9-1.1
			c-0.4-0.5-0.7-1.2-0.9-2.1c-0.2-0.9-0.2-2-0.2-3.3v-14.8h-3.4v-4.5h3.4v-7.4H1522.1z"/>
		<path class="st2" d="M1527.7,260.5c0-1.5,0.2-2.8,0.7-3.8c0.5-1,1.1-1.8,1.9-2.4c0.8-0.6,1.8-1.1,2.9-1.3c1.1-0.3,2.3-0.4,3.5-0.4
			c2,0,3.6,0.2,4.8,0.6c1.2,0.4,2.2,0.9,2.8,1.6c0.7,0.7,1.1,1.5,1.4,2.5c0.2,1,0.4,2,0.4,3.2V274c0,1.2,0.1,2.2,0.2,2.8
			s0.3,1.4,0.6,2.2h-6.3c-0.2-0.4-0.4-0.9-0.5-1.3c-0.1-0.5-0.2-0.9-0.3-1.4h-0.1c-0.8,1.3-1.7,2.2-2.7,2.6c-1,0.4-2.3,0.6-3.9,0.6
			c-1.2,0-2.1-0.2-2.9-0.6c-0.8-0.4-1.4-1-1.9-1.7c-0.5-0.7-0.8-1.5-1.1-2.4s-0.3-1.8-0.3-2.6c0-1.2,0.1-2.3,0.4-3.1
			c0.3-0.9,0.6-1.6,1.2-2.3c0.5-0.6,1.2-1.1,2-1.6s1.8-0.8,3-1.1l3.7-1c1-0.3,1.7-0.6,2.1-1.1c0.4-0.4,0.6-1.1,0.6-2
			c0-1-0.2-1.8-0.7-2.3s-1.3-0.8-2.4-0.8c-1,0-1.8,0.3-2.3,0.9c-0.5,0.6-0.8,1.4-0.8,2.4v0.7h-6V260.5z M1538.4,267
			c-0.5,0.2-1,0.4-1.4,0.5c-1.3,0.3-2.3,0.8-2.9,1.4s-0.9,1.6-0.9,2.7c0,1,0.2,1.8,0.6,2.5c0.4,0.7,1,1.1,1.9,1.1
			c0.4,0,0.9-0.1,1.4-0.2c0.5-0.1,0.9-0.4,1.3-0.7c0.4-0.3,0.7-0.7,1-1.2c0.3-0.5,0.4-1.1,0.4-1.8v-5.1
			C1539.3,266.5,1538.9,266.7,1538.4,267z"/>
		<path class="st2" d="M1559.5,257.7v-4.5h3.4v-2.9c0-1.2,0.2-2.1,0.5-2.9c0.3-0.8,0.8-1.4,1.4-1.9c0.6-0.5,1.3-0.8,2.2-1
			c0.9-0.2,1.8-0.3,2.9-0.3c1.2,0,2.4,0,3.6,0.1v4.7c-0.2,0-0.4,0-0.7,0h-0.6c-0.9,0-1.6,0.2-2,0.5c-0.4,0.3-0.6,0.8-0.6,1.6v2.3
			h3.8v4.5h-3.8V279h-6.6v-21.3H1559.5z"/>
		<path class="st2" d="M1574.8,260.3c0.4-1.7,0.9-3.1,1.7-4.2s1.8-2,3.1-2.6c1.3-0.6,2.9-0.9,4.8-0.9c2,0,3.6,0.2,4.9,0.8
			c1.3,0.6,2.4,1.4,3.1,2.6c0.8,1.2,1.3,2.6,1.6,4.3c0.3,1.7,0.5,3.7,0.5,6c0,2.2-0.2,4.2-0.5,5.9c-0.4,1.7-0.9,3.1-1.7,4.2
			c-0.8,1.1-1.8,2-3.1,2.5s-2.9,0.8-4.8,0.8c-2,0-3.6-0.2-4.9-0.7c-1.3-0.5-2.4-1.4-3.1-2.5s-1.3-2.6-1.6-4.3
			c-0.3-1.7-0.5-3.7-0.5-5.9C1574.3,263.9,1574.4,262,1574.8,260.3z M1581,269.8c0.1,1.1,0.2,2.1,0.5,2.9c0.2,0.8,0.6,1.4,1.1,1.9
			c0.5,0.4,1.1,0.7,1.9,0.7c1.3,0,2.3-0.7,2.8-2.1c0.5-1.4,0.8-3.7,0.8-7c0-3.2-0.3-5.6-0.8-7c-0.5-1.4-1.4-2.1-2.8-2.1
			c-0.8,0-1.4,0.2-1.9,0.7c-0.5,0.4-0.8,1.1-1.1,1.9c-0.2,0.8-0.4,1.8-0.5,2.9c-0.1,1.1-0.1,2.3-0.1,3.6
			C1580.9,267.4,1580.9,268.6,1581,269.8z"/>
		<path class="st2" d="M1604,253.2v3.5h0.1c0.7-1.2,1.5-2.2,2.4-3c1-0.8,2.1-1.1,3.5-1.1c0.2,0,0.4,0,0.6,0c0.2,0,0.4,0,0.6,0.1v6.3
			c-0.4,0-0.7-0.1-1-0.1c-0.3,0-0.7,0-1,0c-0.6,0-1.2,0.1-1.7,0.2s-1.1,0.4-1.6,0.8c-0.5,0.4-0.9,0.8-1.2,1.4
			c-0.3,0.6-0.4,1.3-0.4,2.2V279h-6.6v-25.8H1604z"/>
		<path class="st2" d="M1474.2,310.8v3.5h0.1c0.7-1.2,1.5-2.2,2.4-3c1-0.8,2.1-1.1,3.5-1.1c0.2,0,0.4,0,0.6,0c0.2,0,0.4,0,0.6,0.1
			v6.3c-0.4,0-0.7-0.1-1-0.1c-0.3,0-0.7,0-1,0c-0.6,0-1.2,0.1-1.7,0.2s-1.1,0.4-1.6,0.8c-0.5,0.4-0.9,0.8-1.2,1.4
			c-0.3,0.6-0.4,1.3-0.4,2.2v15.5h-6.6v-25.8H1474.2z"/>
		<path class="st2" d="M1489.1,326.8c0,0.8,0.1,1.5,0.2,2.2c0.1,0.7,0.3,1.4,0.6,1.9c0.3,0.6,0.6,1,1,1.3s0.9,0.5,1.5,0.5
			c1.1,0,1.9-0.4,2.4-1.2c0.5-0.8,0.9-2,1.1-3.6h6c-0.1,3-0.9,5.3-2.4,6.9c-1.5,1.6-3.8,2.4-7,2.4c-2.4,0-4.3-0.4-5.6-1.2
			s-2.3-1.9-3-3.2c-0.6-1.3-1-2.8-1.2-4.4c-0.1-1.6-0.2-3.3-0.2-4.9c0-1.7,0.1-3.4,0.4-5c0.2-1.6,0.7-3,1.4-4.3s1.8-2.2,3.1-3
			c1.3-0.7,3.1-1.1,5.4-1.1c1.9,0,3.5,0.3,4.7,0.9c1.2,0.6,2.2,1.5,2.9,2.6c0.7,1.1,1.2,2.5,1.4,4.1c0.3,1.6,0.4,3.4,0.4,5.4v1.5
			h-13.1V326.8z M1495.6,318.2c-0.1-0.8-0.3-1.4-0.5-1.9c-0.2-0.5-0.6-0.9-1-1.2c-0.4-0.3-1-0.4-1.7-0.4s-1.2,0.2-1.7,0.5
			c-0.4,0.3-0.8,0.7-1,1.2c-0.3,0.5-0.4,1-0.6,1.7c-0.1,0.6-0.2,1.2-0.2,1.8v1h6.8C1495.8,319.8,1495.7,318.9,1495.6,318.2z"/>
		<path class="st2" d="M1510,329c0,1.1,0.3,2,0.9,2.7c0.6,0.7,1.4,1,2.6,1c1,0,1.8-0.3,2.4-0.8c0.6-0.5,0.9-1.3,0.9-2.3
			c0-0.8-0.2-1.5-0.7-1.9c-0.5-0.4-1-0.8-1.7-1l-4.7-1.7c-1.8-0.6-3.2-1.5-4.1-2.7c-0.9-1.2-1.4-2.7-1.4-4.5c0-1.1,0.2-2.1,0.5-3
			c0.4-0.9,0.9-1.8,1.7-2.5c0.8-0.7,1.8-1.3,3-1.7c1.2-0.4,2.6-0.6,4.3-0.6c3,0,5.2,0.6,6.7,1.9c1.4,1.3,2.2,3.1,2.2,5.4v1.1h-6
			c0-1.3-0.2-2.3-0.6-3c-0.4-0.6-1.2-0.9-2.3-0.9c-0.8,0-1.6,0.2-2.2,0.7s-0.9,1.2-0.9,2.1c0,0.6,0.2,1.2,0.6,1.7
			c0.4,0.5,1.2,0.9,2.3,1.3l4,1.3c2.1,0.7,3.6,1.6,4.4,2.8c0.9,1.1,1.3,2.7,1.3,4.6c0,1.4-0.2,2.6-0.7,3.6c-0.5,1-1.1,1.8-2,2.5
			c-0.8,0.7-1.9,1.2-3,1.4s-2.5,0.4-3.9,0.4c-1.9,0-3.4-0.2-4.6-0.5s-2.2-0.9-2.9-1.6c-0.7-0.7-1.2-1.6-1.5-2.6
			c-0.3-1-0.4-2.1-0.4-3.4v-0.9h6V329z"/>
		<path class="st2" d="M1532.8,302v5.7h-6.6V302H1532.8z M1532.8,310.8v25.8h-6.6v-25.8H1532.8z"/>
		<path class="st2" d="M1543.9,302.4v34.3h-6.6v-34.3H1543.9z"/>
		<path class="st2" d="M1554.9,302v5.7h-6.6V302H1554.9z M1554.9,310.8v25.8h-6.6v-25.8H1554.9z"/>
		<path class="st2" d="M1564.8,326.8c0,0.8,0.1,1.5,0.2,2.2c0.1,0.7,0.3,1.4,0.6,1.9c0.3,0.6,0.6,1,1,1.3s0.9,0.5,1.5,0.5
			c1.1,0,1.9-0.4,2.4-1.2c0.5-0.8,0.9-2,1.1-3.6h6c-0.1,3-0.9,5.3-2.4,6.9c-1.5,1.6-3.8,2.4-7,2.4c-2.4,0-4.3-0.4-5.6-1.2
			s-2.3-1.9-3-3.2c-0.6-1.3-1-2.8-1.2-4.4c-0.1-1.6-0.2-3.3-0.2-4.9c0-1.7,0.1-3.4,0.4-5c0.2-1.6,0.7-3,1.4-4.3s1.8-2.2,3.1-3
			c1.3-0.7,3.1-1.1,5.4-1.1c1.9,0,3.5,0.3,4.7,0.9c1.2,0.6,2.2,1.5,2.9,2.6c0.7,1.1,1.2,2.5,1.4,4.1c0.3,1.6,0.4,3.4,0.4,5.4v1.5
			h-13.1V326.8z M1571.3,318.2c-0.1-0.8-0.3-1.4-0.5-1.9c-0.2-0.5-0.6-0.9-1-1.2c-0.4-0.3-1-0.4-1.7-0.4s-1.2,0.2-1.7,0.5
			c-0.4,0.3-0.8,0.7-1,1.2c-0.3,0.5-0.4,1-0.6,1.7c-0.1,0.6-0.2,1.2-0.2,1.8v1h6.8C1571.5,319.8,1571.4,318.9,1571.3,318.2z"/>
		<path class="st2" d="M1587.2,310.8v3h0.1c0.7-1.3,1.6-2.2,2.7-2.8c1.1-0.6,2.4-0.9,3.8-0.9c2.1,0,3.7,0.6,4.9,1.7
			c1.1,1.2,1.7,3,1.7,5.6v19.2h-6.6v-17.8c0-1.3-0.2-2.3-0.7-2.8c-0.4-0.5-1.2-0.8-2.2-0.8c-2.3,0-3.5,1.4-3.5,4.3v17.1h-6.6v-25.8
			H1587.2z"/>
		<path class="st2" d="M1616.7,318.2c-0.1-0.6-0.2-1.2-0.4-1.7s-0.5-0.9-0.9-1.2c-0.4-0.3-0.9-0.5-1.5-0.5c-0.8,0-1.5,0.2-2,0.6
			c-0.5,0.4-0.9,0.9-1.2,1.6c-0.3,0.7-0.4,1.6-0.5,2.7c-0.1,1.1-0.1,2.4-0.1,3.9c0,1.6,0,3,0.1,4.1c0.1,1.1,0.3,2.1,0.5,2.8
			c0.3,0.7,0.6,1.3,1.1,1.6s1.1,0.5,1.8,0.5c1.1,0,1.9-0.5,2.4-1.4c0.5-1,0.8-2.5,0.8-4.6h6.3c0,3.4-0.8,6-2.3,7.8
			c-1.5,1.8-4,2.7-7.6,2.7c-1.7,0-3.1-0.2-4.3-0.6c-1.2-0.4-2.3-1.1-3.1-2.2c-0.8-1-1.4-2.4-1.8-4.2c-0.4-1.7-0.6-3.9-0.6-6.5
			c0-2.7,0.3-4.9,0.8-6.6s1.2-3.1,2.2-4.2c0.9-1,2-1.8,3.3-2.2c1.3-0.4,2.7-0.6,4.2-0.6c3.1,0,5.4,0.9,6.9,2.7
			c1.6,1.8,2.3,4.2,2.3,7.3h-6.3C1616.8,319.5,1616.7,318.8,1616.7,318.2z"/>
		<path class="st2" d="M1631.8,326.8c0,0.8,0.1,1.5,0.2,2.2c0.1,0.7,0.3,1.4,0.6,1.9c0.3,0.6,0.6,1,1,1.3s0.9,0.5,1.5,0.5
			c1.1,0,1.9-0.4,2.4-1.2c0.5-0.8,0.9-2,1.1-3.6h6c-0.1,3-0.9,5.3-2.4,6.9c-1.5,1.6-3.8,2.4-7,2.4c-2.4,0-4.3-0.4-5.6-1.2
			s-2.3-1.9-3-3.2c-0.6-1.3-1-2.8-1.2-4.4c-0.1-1.6-0.2-3.3-0.2-4.9c0-1.7,0.1-3.4,0.4-5c0.2-1.6,0.7-3,1.4-4.3s1.8-2.2,3.1-3
			c1.3-0.7,3.1-1.1,5.4-1.1c1.9,0,3.5,0.3,4.7,0.9c1.2,0.6,2.2,1.5,2.9,2.6c0.7,1.1,1.2,2.5,1.4,4.1c0.3,1.6,0.4,3.4,0.4,5.4v1.5
			h-13.1V326.8z M1638.3,318.2c-0.1-0.8-0.3-1.4-0.5-1.9c-0.2-0.5-0.6-0.9-1-1.2c-0.4-0.3-1-0.4-1.7-0.4s-1.2,0.2-1.7,0.5
			c-0.4,0.3-0.8,0.7-1,1.2c-0.3,0.5-0.4,1-0.6,1.7c-0.1,0.6-0.2,1.2-0.2,1.8v1h6.8C1638.5,319.8,1638.4,318.9,1638.3,318.2z"/>
	</g>
	<g>
		<path class="st2" d="M573.9,397.3c0,0.8,0.1,1.5,0.2,2.1c0.1,0.6,0.4,1.2,0.7,1.6c0.3,0.4,0.8,0.8,1.4,1c0.6,0.2,1.3,0.4,2.1,0.4
			c1,0,1.9-0.3,2.7-1c0.8-0.7,1.2-1.7,1.2-3.1c0-0.7-0.1-1.4-0.3-1.9c-0.2-0.5-0.5-1-1-1.5s-1.1-0.8-1.8-1.2
			c-0.8-0.4-1.7-0.7-2.8-1.1c-1.5-0.5-2.8-1-3.8-1.6c-1.1-0.6-2-1.3-2.7-2.1c-0.7-0.8-1.3-1.7-1.6-2.7c-0.3-1-0.5-2.2-0.5-3.6
			c0-3.3,0.9-5.7,2.7-7.3c1.8-1.6,4.3-2.4,7.5-2.4c1.5,0,2.8,0.2,4.1,0.5c1.2,0.3,2.3,0.8,3.2,1.6c0.9,0.7,1.6,1.6,2.1,2.8
			c0.5,1.1,0.8,2.5,0.8,4v0.9h-6.4c0-1.6-0.3-2.8-0.8-3.6c-0.6-0.8-1.5-1.3-2.8-1.3c-0.7,0-1.4,0.1-1.8,0.3
			c-0.5,0.2-0.9,0.5-1.2,0.9c-0.3,0.4-0.5,0.8-0.6,1.2c-0.1,0.5-0.2,0.9-0.2,1.4c0,1,0.2,1.9,0.6,2.6c0.4,0.7,1.4,1.3,2.8,1.9
			l5.1,2.2c1.3,0.6,2.3,1.1,3.1,1.7c0.8,0.6,1.4,1.2,1.9,1.9c0.5,0.7,0.8,1.5,1,2.3c0.2,0.8,0.3,1.8,0.3,2.8c0,3.5-1,6-3,7.6
			c-2,1.6-4.8,2.4-8.4,2.4c-3.8,0-6.4-0.8-8.1-2.4s-2.4-4-2.4-7v-1.3h6.7V397.3z"/>
		<path class="st2" d="M593.6,410c1.2,0,2-0.3,2.5-0.9c0.5-0.6,0.8-1.4,0.9-2.4l-7-24.9h6.7l3.7,17.2h0.1l3.2-17.2h6.4l-6,23.2
			c-0.6,2.1-1.1,3.7-1.6,5s-1.1,2.3-1.8,3c-0.7,0.7-1.5,1.1-2.5,1.4c-1,0.2-2.2,0.3-3.7,0.3h-2.6v-4.8C592.5,410,593,410,593.6,410z
			"/>
		<path class="st2" d="M616.6,399.4c0,1.1,0.3,1.9,0.9,2.6c0.6,0.7,1.4,1,2.5,1c1,0,1.8-0.2,2.4-0.7c0.6-0.5,0.9-1.2,0.9-2.2
			c0-0.8-0.2-1.4-0.7-1.8s-1-0.7-1.6-1l-4.5-1.6c-1.8-0.6-3.1-1.5-4-2.6c-0.9-1.1-1.3-2.6-1.3-4.3c0-1,0.2-2,0.5-2.9
			c0.3-0.9,0.9-1.7,1.6-2.4s1.7-1.2,2.8-1.6c1.2-0.4,2.5-0.6,4.2-0.6c2.9,0,5,0.6,6.4,1.8c1.4,1.2,2.1,3,2.1,5.2v1H623
			c0-1.3-0.2-2.2-0.6-2.8c-0.4-0.6-1.1-0.9-2.2-0.9c-0.8,0-1.5,0.2-2.1,0.7c-0.6,0.4-0.9,1.1-0.9,2c0,0.6,0.2,1.2,0.6,1.7
			c0.4,0.5,1.1,0.9,2.2,1.2l3.8,1.3c2,0.7,3.4,1.6,4.3,2.7s1.2,2.6,1.2,4.5c0,1.3-0.2,2.5-0.7,3.4c-0.5,1-1.1,1.8-1.9,2.4
			c-0.8,0.6-1.8,1.1-2.9,1.4c-1.1,0.3-2.4,0.4-3.7,0.4c-1.8,0-3.3-0.2-4.5-0.5c-1.2-0.3-2.1-0.8-2.8-1.5c-0.7-0.7-1.2-1.5-1.5-2.5
			c-0.3-1-0.4-2.1-0.4-3.3v-0.9h5.7V399.4z"/>
		<path class="st2" d="M639.8,374.7v7.1h3.7v4.3h-3.7v13.4c0,1,0.1,1.7,0.4,2.1c0.3,0.4,0.9,0.6,1.8,0.6c0.2,0,0.5,0,0.7,0
			c0.2,0,0.5,0,0.7-0.1v4.4c-0.7,0-1.4,0-2.1,0.1c-0.7,0-1.4,0.1-2.1,0.1c-1.2,0-2.2-0.1-3-0.3s-1.4-0.5-1.8-1
			c-0.4-0.5-0.7-1.2-0.9-2c-0.2-0.8-0.2-1.9-0.2-3.1v-14.2h-3.2v-4.3h3.2v-7.1H639.8z"/>
		<path class="st2" d="M650.7,397.2c0,0.7,0.1,1.5,0.2,2.1c0.1,0.7,0.3,1.3,0.5,1.8c0.2,0.5,0.6,1,1,1.3s0.9,0.5,1.5,0.5
			c1.1,0,1.9-0.4,2.4-1.2c0.5-0.8,0.8-1.9,1-3.5h5.7c-0.1,2.9-0.9,5.1-2.3,6.6c-1.4,1.5-3.7,2.3-6.7,2.3c-2.3,0-4.1-0.4-5.4-1.2
			c-1.3-0.8-2.2-1.8-2.9-3c-0.6-1.3-1-2.7-1.1-4.3s-0.2-3.1-0.2-4.7c0-1.7,0.1-3.3,0.3-4.8c0.2-1.5,0.7-2.9,1.4-4.1
			c0.7-1.2,1.7-2.2,3-2.9c1.3-0.7,3-1.1,5.2-1.1c1.8,0,3.4,0.3,4.6,0.9c1.2,0.6,2.1,1.4,2.8,2.5c0.7,1.1,1.1,2.4,1.4,4
			c0.2,1.6,0.4,3.3,0.4,5.2v1.4h-12.6V397.2z M657,388.9c-0.1-0.7-0.3-1.3-0.5-1.8c-0.2-0.5-0.6-0.9-1-1.2c-0.4-0.3-0.9-0.4-1.6-0.4
			c-0.6,0-1.2,0.1-1.6,0.4c-0.4,0.3-0.7,0.7-1,1.2c-0.2,0.5-0.4,1-0.5,1.6c-0.1,0.6-0.2,1.2-0.2,1.8v1h6.5
			C657.2,390.5,657.1,389.6,657,388.9z"/>
		<path class="st2" d="M672.3,381.8v2.5h0.1c0.8-1.1,1.7-2,2.7-2.4c1-0.5,2.2-0.7,3.6-0.7c1.5,0,2.7,0.3,3.7,1c1,0.7,1.7,1.7,2,3
			h0.1c0.5-1.3,1.3-2.3,2.4-3c1.1-0.7,2.4-1,3.9-1c2.1,0,3.7,0.6,4.7,1.9c1,1.3,1.5,3.1,1.5,5.5v18.1h-6.4v-17.4
			c0-1-0.2-1.8-0.6-2.4c-0.4-0.6-1-0.8-1.9-0.8c-1,0-1.8,0.3-2.4,1c-0.6,0.7-0.9,1.8-0.9,3.2v16.4h-6.4v-17.4c0-1-0.2-1.8-0.6-2.4
			c-0.4-0.6-1-0.8-1.9-0.8c-1,0-1.8,0.3-2.4,1c-0.6,0.7-0.9,1.8-0.9,3.2v16.4h-6.4v-24.9H672.3z"/>
		<path class="st2" d="M700.7,388.8c0-1.4,0.2-2.7,0.7-3.6c0.5-1,1.1-1.8,1.9-2.4s1.7-1,2.8-1.3c1.1-0.3,2.2-0.4,3.4-0.4
			c1.9,0,3.4,0.2,4.6,0.6c1.2,0.4,2.1,0.9,2.7,1.6c0.6,0.7,1.1,1.5,1.3,2.4c0.2,0.9,0.3,2,0.3,3.1v13.1c0,1.2,0.1,2.1,0.2,2.7
			c0.1,0.6,0.3,1.3,0.6,2.1h-6.1c-0.2-0.4-0.4-0.8-0.5-1.3s-0.2-0.9-0.3-1.3h-0.1c-0.7,1.3-1.6,2.1-2.6,2.5s-2.2,0.6-3.8,0.6
			c-1.1,0-2-0.2-2.8-0.6c-0.8-0.4-1.4-0.9-1.8-1.6c-0.5-0.7-0.8-1.4-1-2.3c-0.2-0.8-0.3-1.7-0.3-2.5c0-1.2,0.1-2.2,0.4-3
			c0.2-0.8,0.6-1.6,1.1-2.2s1.2-1.1,1.9-1.5c0.8-0.4,1.7-0.8,2.8-1.1l3.6-1c1-0.2,1.6-0.6,2-1c0.4-0.4,0.6-1.1,0.6-1.9
			c0-1-0.2-1.7-0.7-2.2c-0.4-0.5-1.2-0.8-2.3-0.8c-1,0-1.7,0.3-2.2,0.9c-0.5,0.6-0.7,1.4-0.7,2.4v0.7h-5.7V388.8z M710.9,395
			c-0.5,0.2-0.9,0.3-1.3,0.4c-1.3,0.3-2.2,0.7-2.8,1.4c-0.6,0.6-0.8,1.5-0.8,2.6c0,1,0.2,1.8,0.6,2.4c0.4,0.7,1,1,1.8,1
			c0.4,0,0.9-0.1,1.3-0.2s0.9-0.4,1.3-0.7c0.4-0.3,0.7-0.7,0.9-1.2c0.2-0.5,0.4-1.1,0.4-1.8v-4.9C711.9,394.6,711.4,394.8,710.9,395
			z"/>
		<path class="st2" d="M730.2,374.7v7.1h3.7v4.3h-3.7v13.4c0,1,0.1,1.7,0.4,2.1c0.3,0.4,0.9,0.6,1.8,0.6c0.2,0,0.5,0,0.7,0
			c0.2,0,0.5,0,0.7-0.1v4.4c-0.7,0-1.4,0-2.1,0.1c-0.7,0-1.4,0.1-2.1,0.1c-1.2,0-2.2-0.1-3-0.3s-1.4-0.5-1.8-1
			c-0.4-0.5-0.7-1.2-0.9-2c-0.2-0.8-0.2-1.9-0.2-3.1v-14.2h-3.2v-4.3h3.2v-7.1H730.2z"/>
		<path class="st2" d="M742.3,373.3v5.5h-6.4v-5.5H742.3z M742.3,381.8v24.9h-6.4v-24.9H742.3z"/>
		<path class="st2" d="M758.2,389c-0.1-0.6-0.2-1.1-0.4-1.6c-0.2-0.5-0.5-0.9-0.9-1.2s-0.9-0.4-1.5-0.4c-0.8,0-1.4,0.2-1.9,0.5
			c-0.5,0.4-0.9,0.9-1.1,1.6c-0.2,0.7-0.4,1.6-0.5,2.6s-0.1,2.3-0.1,3.8c0,1.5,0,2.9,0.1,4c0.1,1.1,0.3,2,0.5,2.7
			c0.2,0.7,0.6,1.2,1,1.5c0.4,0.3,1,0.5,1.7,0.5c1.1,0,1.9-0.5,2.4-1.4c0.5-0.9,0.7-2.4,0.7-4.4h6.1c0,3.3-0.7,5.8-2.2,7.5
			c-1.5,1.7-3.9,2.6-7.3,2.6c-1.6,0-3-0.2-4.2-0.6c-1.2-0.4-2.2-1.1-3-2.1c-0.8-1-1.4-2.3-1.8-4s-0.6-3.8-0.6-6.3
			c0-2.6,0.2-4.7,0.7-6.4c0.5-1.7,1.2-3,2.1-4c0.9-1,2-1.7,3.2-2.1c1.2-0.4,2.6-0.6,4.1-0.6c3,0,5.2,0.9,6.7,2.6
			c1.5,1.7,2.2,4.1,2.2,7h-6.1C758.3,390.1,758.3,389.5,758.2,389z"/>
		<path class="st2" d="M777.7,383.3c0.2-2.1,0.7-3.9,1.5-5.4c0.8-1.5,1.9-2.7,3.4-3.5c1.5-0.8,3.5-1.3,6-1.3c2.5,0,4.5,0.4,6,1.3
			c1.5,0.8,2.6,2,3.4,3.5c0.8,1.5,1.3,3.3,1.5,5.4s0.3,4.4,0.3,6.9c0,2.5-0.1,4.8-0.3,6.9s-0.7,3.9-1.5,5.4
			c-0.8,1.5-1.9,2.7-3.4,3.5s-3.5,1.2-6,1.2c-2.5,0-4.5-0.4-6-1.2c-1.5-0.8-2.6-2-3.4-3.5c-0.8-1.5-1.3-3.3-1.5-5.4
			s-0.3-4.4-0.3-6.9C777.4,387.7,777.5,385.4,777.7,383.3z M784.2,395.8c0.1,1.6,0.3,2.8,0.6,3.8c0.3,1,0.8,1.7,1.4,2.1
			c0.6,0.4,1.4,0.7,2.4,0.7s1.8-0.2,2.4-0.7c0.6-0.4,1.1-1.2,1.4-2.1c0.3-1,0.5-2.2,0.6-3.8c0.1-1.6,0.2-3.4,0.2-5.7
			s-0.1-4.1-0.2-5.6s-0.3-2.8-0.6-3.8c-0.3-1-0.8-1.7-1.4-2.1c-0.6-0.4-1.4-0.7-2.4-0.7s-1.8,0.2-2.4,0.7c-0.6,0.4-1.1,1.2-1.4,2.1
			c-0.3,1-0.5,2.2-0.6,3.8s-0.2,3.4-0.2,5.6S784.1,394.3,784.2,395.8z"/>
		<path class="st2" d="M809.5,373.7v10.4h0.1c0.7-1,1.4-1.7,2.3-2.2c0.8-0.5,1.9-0.7,3.1-0.7c2.6,0,4.5,1,5.8,3.1
			c1.2,2,1.8,5.4,1.8,10c0,4.6-0.6,7.9-1.8,9.9c-1.2,2-3.2,3-5.8,3c-1.3,0-2.4-0.2-3.3-0.7s-1.7-1.3-2.4-2.4h-0.1v2.6h-6.1v-33
			H809.5z M810.1,400.4c0.4,1.4,1.3,2.1,2.7,2.1c1.4,0,2.3-0.7,2.7-2.1c0.4-1.4,0.6-3.4,0.6-6.1s-0.2-4.8-0.6-6.1
			c-0.4-1.4-1.3-2.1-2.7-2.1c-1.4,0-2.3,0.7-2.7,2.1c-0.4,1.4-0.6,3.4-0.6,6.1S809.7,399,810.1,400.4z"/>
		<path class="st2" d="M830.4,399.4c0,1.1,0.3,1.9,0.9,2.6c0.6,0.7,1.4,1,2.5,1c1,0,1.8-0.2,2.4-0.7c0.6-0.5,0.9-1.2,0.9-2.2
			c0-0.8-0.2-1.4-0.7-1.8s-1-0.7-1.6-1l-4.5-1.6c-1.8-0.6-3.1-1.5-4-2.6c-0.9-1.1-1.3-2.6-1.3-4.3c0-1,0.2-2,0.5-2.9
			c0.3-0.9,0.9-1.7,1.6-2.4s1.7-1.2,2.8-1.6c1.2-0.4,2.5-0.6,4.2-0.6c2.9,0,5,0.6,6.4,1.8c1.4,1.2,2.1,3,2.1,5.2v1h-5.7
			c0-1.3-0.2-2.2-0.6-2.8c-0.4-0.6-1.1-0.9-2.2-0.9c-0.8,0-1.5,0.2-2.1,0.7c-0.6,0.4-0.9,1.1-0.9,2c0,0.6,0.2,1.2,0.6,1.7
			c0.4,0.5,1.1,0.9,2.2,1.2l3.8,1.3c2,0.7,3.4,1.6,4.3,2.7s1.2,2.6,1.2,4.5c0,1.3-0.2,2.5-0.7,3.4c-0.5,1-1.1,1.8-1.9,2.4
			c-0.8,0.6-1.8,1.1-2.9,1.4c-1.1,0.3-2.4,0.4-3.7,0.4c-1.8,0-3.3-0.2-4.5-0.5c-1.2-0.3-2.1-0.8-2.8-1.5c-0.7-0.7-1.2-1.5-1.5-2.5
			c-0.3-1-0.4-2.1-0.4-3.3v-0.9h5.7V399.4z"/>
		<path class="st2" d="M851.3,397.2c0,0.7,0.1,1.5,0.2,2.1c0.1,0.7,0.3,1.3,0.5,1.8c0.2,0.5,0.6,1,1,1.3s0.9,0.5,1.5,0.5
			c1.1,0,1.9-0.4,2.4-1.2c0.5-0.8,0.8-1.9,1-3.5h5.7c-0.1,2.9-0.9,5.1-2.3,6.6c-1.4,1.5-3.7,2.3-6.7,2.3c-2.3,0-4.1-0.4-5.4-1.2
			c-1.3-0.8-2.2-1.8-2.9-3c-0.6-1.3-1-2.7-1.1-4.3s-0.2-3.1-0.2-4.7c0-1.7,0.1-3.3,0.3-4.8c0.2-1.5,0.7-2.9,1.4-4.1
			c0.7-1.2,1.7-2.2,3-2.9c1.3-0.7,3-1.1,5.2-1.1c1.8,0,3.4,0.3,4.6,0.9c1.2,0.6,2.1,1.4,2.8,2.5c0.7,1.1,1.1,2.4,1.4,4
			c0.2,1.6,0.4,3.3,0.4,5.2v1.4h-12.6V397.2z M857.6,388.9c-0.1-0.7-0.3-1.3-0.5-1.8c-0.2-0.5-0.6-0.9-1-1.2
			c-0.4-0.3-0.9-0.4-1.6-0.4c-0.6,0-1.2,0.1-1.6,0.4c-0.4,0.3-0.7,0.7-1,1.2c-0.2,0.5-0.4,1-0.5,1.6c-0.1,0.6-0.2,1.2-0.2,1.8v1h6.5
			C857.7,390.5,857.7,389.6,857.6,388.9z"/>
		<path class="st2" d="M872.8,381.8v3.3h0.1c0.6-1.2,1.4-2.2,2.4-2.9c0.9-0.7,2-1.1,3.4-1.1c0.2,0,0.4,0,0.6,0c0.2,0,0.4,0,0.6,0.1
			v6.1c-0.3,0-0.7-0.1-1-0.1s-0.7,0-1,0c-0.6,0-1.1,0.1-1.7,0.2c-0.6,0.2-1.1,0.4-1.5,0.8c-0.5,0.4-0.8,0.8-1.1,1.4
			c-0.3,0.6-0.4,1.3-0.4,2.1v14.9h-6.4v-24.9H872.8z"/>
		<path class="st2" d="M900.6,381.8l-6.2,24.9H887l-6.4-24.9h6.7l3.6,17.8h0.1l3.4-17.8H900.6z"/>
		<path class="st2" d="M902.5,388.8c0-1.4,0.2-2.7,0.7-3.6c0.5-1,1.1-1.8,1.9-2.4s1.7-1,2.8-1.3c1.1-0.3,2.2-0.4,3.4-0.4
			c1.9,0,3.4,0.2,4.6,0.6c1.2,0.4,2.1,0.9,2.7,1.6c0.6,0.7,1.1,1.5,1.3,2.4c0.2,0.9,0.3,2,0.3,3.1v13.1c0,1.2,0.1,2.1,0.2,2.7
			c0.1,0.6,0.3,1.3,0.6,2.1h-6.1c-0.2-0.4-0.4-0.8-0.5-1.3s-0.2-0.9-0.3-1.3H914c-0.7,1.3-1.6,2.1-2.6,2.5s-2.2,0.6-3.8,0.6
			c-1.1,0-2-0.2-2.8-0.6c-0.8-0.4-1.4-0.9-1.8-1.6c-0.5-0.7-0.8-1.4-1-2.3c-0.2-0.8-0.3-1.7-0.3-2.5c0-1.2,0.1-2.2,0.4-3
			c0.2-0.8,0.6-1.6,1.1-2.2s1.2-1.1,1.9-1.5c0.8-0.4,1.7-0.8,2.8-1.1l3.6-1c1-0.2,1.6-0.6,2-1c0.4-0.4,0.6-1.1,0.6-1.9
			c0-1-0.2-1.7-0.7-2.2c-0.4-0.5-1.2-0.8-2.3-0.8c-1,0-1.7,0.3-2.2,0.9c-0.5,0.6-0.7,1.4-0.7,2.4v0.7h-5.7V388.8z M912.8,395
			c-0.5,0.2-0.9,0.3-1.3,0.4c-1.3,0.3-2.2,0.7-2.8,1.4c-0.6,0.6-0.8,1.5-0.8,2.6c0,1,0.2,1.8,0.6,2.4c0.4,0.7,1,1,1.8,1
			c0.4,0,0.9-0.1,1.3-0.2s0.9-0.4,1.3-0.7c0.4-0.3,0.7-0.7,0.9-1.2c0.2-0.5,0.4-1.1,0.4-1.8v-4.9C913.7,394.6,913.2,394.8,912.8,395
			z"/>
		<path class="st2" d="M932.1,374.7v7.1h3.7v4.3h-3.7v13.4c0,1,0.1,1.7,0.4,2.1c0.3,0.4,0.9,0.6,1.8,0.6c0.2,0,0.5,0,0.7,0
			c0.2,0,0.5,0,0.7-0.1v4.4c-0.7,0-1.4,0-2.1,0.1c-0.7,0-1.4,0.1-2.1,0.1c-1.2,0-2.2-0.1-3-0.3s-1.4-0.5-1.8-1
			c-0.4-0.5-0.7-1.2-0.9-2c-0.2-0.8-0.2-1.9-0.2-3.1v-14.2h-3.2v-4.3h3.2v-7.1H932.1z"/>
		<path class="st2" d="M944.1,373.3v5.5h-6.4v-5.5H944.1z M944.1,381.8v24.9h-6.4v-24.9H944.1z"/>
		<path class="st2" d="M947.8,388.6c0.3-1.6,0.9-3,1.7-4.1c0.8-1.1,1.8-1.9,3-2.5c1.2-0.6,2.8-0.9,4.6-0.9c1.9,0,3.5,0.2,4.8,0.8
			c1.3,0.5,2.3,1.4,3,2.5c0.7,1.1,1.3,2.5,1.6,4.1c0.3,1.6,0.5,3.5,0.5,5.7c0,2.1-0.2,4-0.5,5.6s-0.9,3-1.7,4.1
			c-0.8,1.1-1.8,1.9-3,2.4s-2.8,0.8-4.6,0.8c-1.9,0-3.5-0.2-4.8-0.7c-1.3-0.5-2.3-1.3-3-2.4c-0.7-1.1-1.3-2.5-1.6-4.1
			c-0.3-1.6-0.5-3.5-0.5-5.7C947.3,392.1,947.5,390.2,947.8,388.6z M953.8,397.7c0.1,1.1,0.2,2,0.4,2.8c0.2,0.8,0.6,1.4,1,1.8
			s1.1,0.6,1.8,0.6c1.3,0,2.2-0.7,2.7-2c0.5-1.4,0.7-3.6,0.7-6.7s-0.2-5.3-0.7-6.7c-0.5-1.4-1.4-2-2.7-2c-0.8,0-1.4,0.2-1.8,0.6
			s-0.8,1-1,1.8c-0.2,0.8-0.4,1.7-0.4,2.8c-0.1,1.1-0.1,2.2-0.1,3.5S953.7,396.7,953.8,397.7z"/>
		<path class="st2" d="M976,381.8v2.9h0.1c0.7-1.2,1.6-2.1,2.6-2.7c1.1-0.6,2.3-0.9,3.7-0.9c2,0,3.6,0.6,4.7,1.7
			c1.1,1.1,1.6,2.9,1.6,5.4v18.4h-6.4v-17.1c0-1.3-0.2-2.2-0.6-2.7c-0.4-0.5-1.1-0.8-2.1-0.8c-2.2,0-3.4,1.4-3.4,4.1v16.5h-6.4
			v-24.9H976z"/>
		<path class="st2" d="M997.2,399.4c0,1.1,0.3,1.9,0.9,2.6s1.4,1,2.5,1c1,0,1.8-0.2,2.4-0.7c0.6-0.5,0.9-1.2,0.9-2.2
			c0-0.8-0.2-1.4-0.7-1.8s-1-0.7-1.6-1l-4.5-1.6c-1.8-0.6-3.1-1.5-4-2.6c-0.9-1.1-1.3-2.6-1.3-4.3c0-1,0.2-2,0.5-2.9
			c0.3-0.9,0.9-1.7,1.6-2.4s1.7-1.2,2.8-1.6s2.5-0.6,4.2-0.6c2.9,0,5,0.6,6.4,1.8c1.4,1.2,2.1,3,2.1,5.2v1h-5.7
			c0-1.3-0.2-2.2-0.6-2.8c-0.4-0.6-1.1-0.9-2.2-0.9c-0.8,0-1.5,0.2-2.1,0.7c-0.6,0.4-0.9,1.1-0.9,2c0,0.6,0.2,1.2,0.6,1.7
			c0.4,0.5,1.1,0.9,2.2,1.2l3.8,1.3c2,0.7,3.4,1.6,4.3,2.7c0.8,1.1,1.2,2.6,1.2,4.5c0,1.3-0.2,2.5-0.7,3.4c-0.5,1-1.1,1.8-1.9,2.4
			c-0.8,0.6-1.8,1.1-2.9,1.4c-1.1,0.3-2.4,0.4-3.7,0.4c-1.8,0-3.3-0.2-4.5-0.5c-1.2-0.3-2.1-0.8-2.8-1.5c-0.7-0.7-1.2-1.5-1.5-2.5
			c-0.3-1-0.4-2.1-0.4-3.3v-0.9h5.7V399.4z"/>
		<path class="st2" d="M1041.8,373.7v5.5H1030v7.8h11.1v5.5H1030v14.3h-6.7v-33H1041.8z"/>
		<path class="st2" d="M1049.9,373.3v5.5h-6.4v-5.5H1049.9z M1049.9,381.8v24.9h-6.4v-24.9H1049.9z"/>
		<path class="st2" d="M1060,381.8v2.9h0.1c0.7-1.2,1.6-2.1,2.6-2.7c1.1-0.6,2.3-0.9,3.7-0.9c2,0,3.6,0.6,4.7,1.7
			c1.1,1.1,1.6,2.9,1.6,5.4v18.4h-6.4v-17.1c0-1.3-0.2-2.2-0.6-2.7c-0.4-0.5-1.1-0.8-2.1-0.8c-2.2,0-3.4,1.4-3.4,4.1v16.5h-6.4
			v-24.9H1060z"/>
		<path class="st2" d="M1076.5,388.8c0-1.4,0.2-2.7,0.7-3.6c0.5-1,1.1-1.8,1.9-2.4s1.7-1,2.8-1.3s2.2-0.4,3.4-0.4
			c1.9,0,3.5,0.2,4.6,0.6c1.2,0.4,2.1,0.9,2.7,1.6c0.6,0.7,1.1,1.5,1.3,2.4c0.2,0.9,0.3,2,0.3,3.1v13.1c0,1.2,0.1,2.1,0.2,2.7
			c0.1,0.6,0.3,1.3,0.6,2.1h-6.1c-0.2-0.4-0.4-0.8-0.5-1.3c-0.1-0.4-0.2-0.9-0.3-1.3h-0.1c-0.7,1.3-1.6,2.1-2.6,2.5
			c-1,0.4-2.2,0.6-3.8,0.6c-1.1,0-2-0.2-2.8-0.6s-1.4-0.9-1.8-1.6s-0.8-1.4-1-2.3c-0.2-0.8-0.3-1.7-0.3-2.5c0-1.2,0.1-2.2,0.4-3
			c0.2-0.8,0.6-1.6,1.1-2.2c0.5-0.6,1.2-1.1,1.9-1.5c0.8-0.4,1.7-0.8,2.8-1.1l3.6-1c1-0.2,1.6-0.6,2-1c0.4-0.4,0.6-1.1,0.6-1.9
			c0-1-0.2-1.7-0.7-2.2c-0.4-0.5-1.2-0.8-2.3-0.8c-1,0-1.7,0.3-2.2,0.9c-0.5,0.6-0.7,1.4-0.7,2.4v0.7h-5.7V388.8z M1086.8,395
			c-0.5,0.2-0.9,0.3-1.3,0.4c-1.3,0.3-2.2,0.7-2.8,1.4c-0.6,0.6-0.8,1.5-0.8,2.6c0,1,0.2,1.8,0.6,2.4c0.4,0.7,1,1,1.8,1
			c0.4,0,0.9-0.1,1.3-0.2c0.5-0.1,0.9-0.4,1.3-0.7c0.4-0.3,0.7-0.7,0.9-1.2c0.2-0.5,0.4-1.1,0.4-1.8v-4.9
			C1087.7,394.6,1087.3,394.8,1086.8,395z"/>
		<path class="st2" d="M1104.4,381.8v2.9h0.1c0.7-1.2,1.6-2.1,2.6-2.7c1.1-0.6,2.3-0.9,3.7-0.9c2,0,3.6,0.6,4.7,1.7
			c1.1,1.1,1.6,2.9,1.6,5.4v18.4h-6.4v-17.1c0-1.3-0.2-2.2-0.6-2.7c-0.4-0.5-1.1-0.8-2.1-0.8c-2.2,0-3.4,1.4-3.4,4.1v16.5h-6.4
			v-24.9H1104.4z"/>
		<path class="st2" d="M1132.8,389c-0.1-0.6-0.2-1.1-0.4-1.6c-0.2-0.5-0.5-0.9-0.9-1.2c-0.4-0.3-0.9-0.4-1.5-0.4
			c-0.8,0-1.4,0.2-1.9,0.5c-0.5,0.4-0.9,0.9-1.1,1.6c-0.2,0.7-0.4,1.6-0.5,2.6c-0.1,1.1-0.1,2.3-0.1,3.8c0,1.5,0,2.9,0.1,4
			c0.1,1.1,0.3,2,0.5,2.7c0.2,0.7,0.6,1.2,1,1.5s1,0.5,1.7,0.5c1.1,0,1.9-0.5,2.4-1.4c0.5-0.9,0.7-2.4,0.7-4.4h6.1
			c0,3.3-0.7,5.8-2.2,7.5c-1.5,1.7-3.9,2.6-7.3,2.6c-1.6,0-3-0.2-4.2-0.6c-1.2-0.4-2.2-1.1-3-2.1c-0.8-1-1.4-2.3-1.8-4
			s-0.6-3.8-0.6-6.3c0-2.6,0.2-4.7,0.7-6.4c0.5-1.7,1.2-3,2.1-4s2-1.7,3.2-2.1c1.2-0.4,2.6-0.6,4.1-0.6c3,0,5.2,0.9,6.7,2.6
			c1.5,1.7,2.2,4.1,2.2,7h-6.1C1132.9,390.1,1132.9,389.5,1132.8,389z"/>
		<path class="st2" d="M1148.5,373.3v5.5h-6.4v-5.5H1148.5z M1148.5,381.8v24.9h-6.4v-24.9H1148.5z"/>
		<path class="st2" d="M1158.6,381.8v2.9h0.1c0.7-1.2,1.6-2.1,2.6-2.7c1.1-0.6,2.3-0.9,3.7-0.9c2,0,3.6,0.6,4.7,1.7
			c1.1,1.1,1.6,2.9,1.6,5.4v18.4h-6.4v-17.1c0-1.3-0.2-2.2-0.6-2.7c-0.4-0.5-1.1-0.8-2.1-0.8c-2.2,0-3.4,1.4-3.4,4.1v16.5h-6.4
			v-24.9H1158.6z"/>
		<path class="st2" d="M1193.8,405.4c0,3.2-0.8,5.6-2.4,7.2c-1.6,1.6-4.2,2.4-8,2.4c-2.7,0-4.8-0.6-6.3-1.7
			c-1.5-1.2-2.2-2.8-2.2-4.9h6.1c0,0.8,0.3,1.4,1,1.9c0.3,0.2,0.6,0.4,1,0.5s0.7,0.2,1.1,0.2c1.3,0,2.2-0.4,2.7-1.2
			c0.5-0.8,0.8-1.9,0.8-3.1v-3.3h-0.1c-0.6,0.9-1.4,1.7-2.4,2.2c-0.9,0.6-1.9,0.8-2.9,0.8c-2.5,0-4.4-1-5.7-2.9
			c-1.3-1.9-1.9-5.2-1.9-9.7c0-1.4,0.1-2.9,0.3-4.4c0.2-1.5,0.5-2.9,1.1-4.1c0.5-1.2,1.3-2.2,2.4-3s2.4-1.2,4.1-1.2
			c0.9,0,1.8,0.2,2.8,0.7c1,0.5,1.7,1.4,2.4,2.7h0.1v-2.8h6.1V405.4z M1181.1,397.5c0.1,0.8,0.2,1.5,0.5,2.1c0.2,0.6,0.6,1.1,1,1.4
			c0.4,0.4,1,0.5,1.6,0.5c0.7,0,1.2-0.2,1.7-0.5c0.4-0.4,0.8-0.8,1.1-1.5c0.3-0.6,0.4-1.4,0.6-2.2c0.1-0.9,0.2-1.8,0.2-2.9
			c0-3-0.2-5.2-0.7-6.4c-0.5-1.3-1.3-1.9-2.6-1.9c-0.7,0-1.3,0.2-1.7,0.5c-0.4,0.3-0.8,0.8-1,1.5s-0.4,1.6-0.5,2.8
			c-0.1,1.2-0.1,2.6-0.1,4.2C1181,395.9,1181.1,396.7,1181.1,397.5z"/>
		<path class="st2" d="M1227,373.7v5.5h-11.8v7.8h11.1v5.5h-11.1v14.3h-6.7v-33H1227z"/>
		<path class="st2" d="M1228.4,388.8c0-1.4,0.2-2.7,0.7-3.6c0.5-1,1.1-1.8,1.9-2.4s1.7-1,2.8-1.3s2.2-0.4,3.4-0.4
			c1.9,0,3.5,0.2,4.6,0.6c1.2,0.4,2.1,0.9,2.7,1.6c0.6,0.7,1.1,1.5,1.3,2.4c0.2,0.9,0.3,2,0.3,3.1v13.1c0,1.2,0.1,2.1,0.2,2.7
			c0.1,0.6,0.3,1.3,0.6,2.1h-6.1c-0.2-0.4-0.4-0.8-0.5-1.3c-0.1-0.4-0.2-0.9-0.3-1.3h-0.1c-0.7,1.3-1.6,2.1-2.6,2.5
			c-1,0.4-2.2,0.6-3.8,0.6c-1.1,0-2-0.2-2.8-0.6s-1.4-0.9-1.8-1.6s-0.8-1.4-1-2.3c-0.2-0.8-0.3-1.7-0.3-2.5c0-1.2,0.1-2.2,0.4-3
			c0.2-0.8,0.6-1.6,1.1-2.2c0.5-0.6,1.2-1.1,1.9-1.5c0.8-0.4,1.7-0.8,2.8-1.1l3.6-1c1-0.2,1.6-0.6,2-1c0.4-0.4,0.6-1.1,0.6-1.9
			c0-1-0.2-1.7-0.7-2.2c-0.4-0.5-1.2-0.8-2.3-0.8c-1,0-1.7,0.3-2.2,0.9c-0.5,0.6-0.7,1.4-0.7,2.4v0.7h-5.7V388.8z M1238.6,395
			c-0.5,0.2-0.9,0.3-1.3,0.4c-1.3,0.3-2.2,0.7-2.8,1.4c-0.6,0.6-0.8,1.5-0.8,2.6c0,1,0.2,1.8,0.6,2.4c0.4,0.7,1,1,1.8,1
			c0.4,0,0.9-0.1,1.3-0.2c0.5-0.1,0.9-0.4,1.3-0.7c0.4-0.3,0.7-0.7,0.9-1.2c0.2-0.5,0.4-1.1,0.4-1.8v-4.9
			C1239.6,394.6,1239.1,394.8,1238.6,395z"/>
		<path class="st2" d="M1262,389c-0.1-0.6-0.2-1.1-0.4-1.6c-0.2-0.5-0.5-0.9-0.9-1.2c-0.4-0.3-0.9-0.4-1.5-0.4
			c-0.8,0-1.4,0.2-1.9,0.5c-0.5,0.4-0.9,0.9-1.1,1.6c-0.2,0.7-0.4,1.6-0.5,2.6c-0.1,1.1-0.1,2.3-0.1,3.8c0,1.5,0,2.9,0.1,4
			c0.1,1.1,0.3,2,0.5,2.7c0.2,0.7,0.6,1.2,1,1.5s1,0.5,1.7,0.5c1.1,0,1.9-0.5,2.4-1.4c0.5-0.9,0.7-2.4,0.7-4.4h6.1
			c0,3.3-0.7,5.8-2.2,7.5c-1.5,1.7-3.9,2.6-7.3,2.6c-1.6,0-3-0.2-4.2-0.6c-1.2-0.4-2.2-1.1-3-2.1c-0.8-1-1.4-2.3-1.8-4
			s-0.6-3.8-0.6-6.3c0-2.6,0.2-4.7,0.7-6.4c0.5-1.7,1.2-3,2.1-4s2-1.7,3.2-2.1c1.2-0.4,2.6-0.6,4.1-0.6c3,0,5.2,0.9,6.7,2.6
			c1.5,1.7,2.2,4.1,2.2,7h-6.1C1262.2,390.1,1262.1,389.5,1262,389z"/>
		<path class="st2" d="M1277.7,373.3v5.5h-6.4v-5.5H1277.7z M1277.7,381.8v24.9h-6.4v-24.9H1277.7z"/>
		<path class="st2" d="M1288.3,373.7v33h-6.4v-33H1288.3z"/>
		<path class="st2" d="M1299,373.3v5.5h-6.4v-5.5H1299z M1299,381.8v24.9h-6.4v-24.9H1299z"/>
		<path class="st2" d="M1310.8,374.7v7.1h3.7v4.3h-3.7v13.4c0,1,0.1,1.7,0.4,2.1c0.3,0.4,0.9,0.6,1.8,0.6c0.2,0,0.5,0,0.7,0
			c0.2,0,0.5,0,0.7-0.1v4.4c-0.7,0-1.4,0-2.1,0.1c-0.7,0-1.4,0.1-2.1,0.1c-1.2,0-2.2-0.1-3-0.3s-1.4-0.5-1.8-1
			c-0.4-0.5-0.7-1.2-0.9-2c-0.2-0.8-0.2-1.9-0.2-3.1v-14.2h-3.2v-4.3h3.2v-7.1H1310.8z"/>
		<path class="st2" d="M1317.9,410c1.2,0,2-0.3,2.5-0.9c0.5-0.6,0.8-1.4,0.9-2.4l-7-24.9h6.7l3.7,17.2h0.1l3.2-17.2h6.4l-6,23.2
			c-0.6,2.1-1.1,3.7-1.6,5c-0.5,1.3-1.1,2.3-1.8,3c-0.7,0.7-1.5,1.1-2.5,1.4c-1,0.2-2.2,0.3-3.7,0.3h-2.6v-4.8
			C1316.8,410,1317.3,410,1317.9,410z"/>
	</g>
	<g>
		<rect x="500.1" y="154.3" class="st2" width="5" height="165.7"/>
	</g>
	<g>
		<rect x="1395.6" y="154.3" class="st2" width="5" height="165.7"/>
	</g>
</g>
<path class="st2" d="M686.6,156.9c-9.5-6.9-21.7-10.4-36.5-10.4c-6,0-11.9,0.6-17.7,1.8c-5.8,1.2-11,3.2-15.5,6
	c-4.5,2.8-8.1,6.6-10.8,11.3c-2.7,4.7-4.1,10.6-4.1,17.6c0,6.6,2,12,5.9,16.1c3.9,4.1,9.1,7.5,15.6,10.1c6.5,2.6,13.9,4.8,22.1,6.5
	c8.2,1.7,16.6,3.6,25.1,5.6c8.5,2,16.9,4.4,25.1,7.1c8.2,2.7,15.6,6.4,22.1,11c6.5,4.6,11.7,10.4,15.6,17.4c3.9,7,5.9,15.8,5.9,26.4
	c0,11.4-2.6,21.2-7.7,29.3c-5.1,8.1-11.7,14.7-19.7,19.8c-8,5.1-17,8.8-26.9,11.1c-9.9,2.3-19.8,3.5-29.6,3.5
	c-12,0-23.4-1.5-34.1-4.5c-10.7-3-20.1-7.6-28.3-13.7c-8.1-6.1-14.5-13.9-19.2-23.4c-4.7-9.5-7.1-20.8-7.1-33.8h27
	c0,9,1.8,16.8,5.3,23.3c3.5,6.5,8.1,11.9,13.8,16.1c5.7,4.2,12.4,7.3,20,9.3c7.6,2,15.4,3,23.4,3c6.4,0,12.9-0.6,19.4-1.8
	c6.5-1.2,12.4-3.3,17.6-6.2c5.2-2.9,9.4-6.9,12.6-11.9c3.2-5,4.8-11.4,4.8-19.2c0-7.4-2-13.4-5.9-18c-3.9-4.6-9.1-8.4-15.6-11.3
	c-6.5-2.9-13.9-5.3-22.1-7.1c-8.2-1.8-16.6-3.7-25.1-5.6c-8.5-1.9-16.9-4.1-25.1-6.6c-8.2-2.5-15.6-5.8-22.1-9.9
	c-6.5-4.1-11.7-9.4-15.6-15.9c-3.9-6.5-5.9-14.7-5.9-24.5c0-10.8,2.2-20.2,6.6-28.1c4.4-7.9,10.3-14.4,17.6-19.5
	c7.3-5.1,15.6-8.9,24.9-11.4c9.3-2.5,18.9-3.8,28.7-3.8c11,0,21.2,1.3,30.7,3.9c9.4,2.6,17.7,6.7,24.8,12.3
	c7.1,5.6,12.7,12.7,16.8,21.2c4.1,8.5,6.4,18.7,6.8,30.5h-27C701.6,174.9,696.1,163.8,686.6,156.9"/>
<polygon class="st2" points="1164.2,127.6 1164.2,151.6 1051.8,151.6 1051.8,219.8 1150.4,219.8 1150.4,243.9 1051.8,243.9 
	1051.8,342.1 1023.3,342.1 1023.3,127.6 "/>
<polygon class="st2" points="1350.7,127.6 1350.7,151.6 1238.3,151.6 1238.3,219.8 1336.9,219.8 1336.9,243.9 1238.3,243.9 
	1238.3,342.1 1209.8,342.1 1209.8,127.6 "/>
</svg>
